{"glyphs":{"0":{"ha":655,"x_min":23,"x_max":632,"o":"m 328 971 q 112 827 201 971 q 23 479 23 682 q 112 131 23 275 q 328 -13 201 -13 q 543 131 454 -13 q 632 479 632 275 q 543 827 632 682 q 328 971 454 971 m 326 33 q 230 169 243 33 q 218 477 218 306 q 232 788 218 648 q 326 928 247 928 q 425 787 405 928 q 444 480 444 646 q 427 174 444 315 q 326 33 410 33 "},"1":{"ha":446,"x_min":21,"x_max":429,"o":"m 47 690 q 162 627 162 771 l 161 227 q 62 37 161 33 q 47 19 47 37 q 62 1 47 1 l 414 1 q 429 17 428 1 q 416 35 429 34 q 303 222 304 37 l 304 939 q 293 950 304 950 l 262 950 q 254 945 257 950 q 26 707 163 820 q 21 683 14 696 q 47 690 28 671 "},"2":{"ha":624,"x_min":23,"x_max":597,"o":"m 37 678 q 51 649 31 650 q 76 669 72 648 q 132 772 85 719 q 262 829 178 825 q 416 683 397 824 q 298 366 435 543 l 25 15 q 23 3 20 8 q 34 -2 26 -2 l 564 -2 q 575 7 574 -2 l 597 246 q 581 271 598 271 q 562 254 564 272 l 550 153 q 539 142 549 142 l 207 142 q 195 149 199 142 q 199 161 192 155 l 433 388 q 547 526 496 450 q 587 719 597 603 q 314 948 564 948 q 120 867 191 945 q 37 678 48 789 "},"3":{"ha":648,"x_min":30,"x_max":623,"o":"m 62 811 q 62 785 52 791 q 90 795 73 778 q 160 858 121 829 q 252 884 199 886 q 380 832 334 882 q 416 705 426 782 q 348 574 404 620 q 212 506 291 528 q 194 484 193 500 q 218 469 196 467 q 382 438 309 475 q 467 248 454 402 q 439 93 476 157 q 317 26 403 30 q 222 52 250 22 q 191 125 195 81 q 172 219 193 178 q 102 257 152 259 q 40 225 59 256 q 30 159 21 195 q 127 27 50 63 q 318 -9 204 -9 q 529 92 432 -7 q 623 328 625 191 q 440 576 621 525 q 546 637 500 595 q 585 783 591 680 q 494 923 570 882 q 332 964 419 964 q 162 919 232 966 q 62 811 93 873 "},"4":{"ha":635,"x_min":14,"x_max":616,"o":"m 467 935 q 456 945 467 945 l 382 945 q 372 941 377 945 l 15 384 q 14 378 14 380 l 14 296 q 24 285 14 285 l 314 285 q 321 281 319 285 q 325 273 325 278 l 325 227 q 225 37 326 35 q 210 18 211 37 q 225 1 210 1 l 578 1 q 592 17 592 1 q 579 35 593 34 q 467 222 467 35 l 467 273 q 477 285 467 285 l 606 285 q 616 296 616 285 l 616 370 q 606 382 616 382 l 477 382 q 467 392 467 382 l 467 935 m 81 382 q 72 387 75 382 q 72 398 68 393 l 305 761 q 317 765 310 768 q 326 755 326 764 l 326 392 q 314 382 326 382 l 81 382 "},"5":{"ha":647,"x_min":31,"x_max":625,"o":"m 481 319 q 449 111 494 193 q 318 26 404 30 q 224 52 252 22 q 193 125 196 81 q 168 220 191 183 q 103 257 145 257 q 41 225 60 256 q 31 159 22 195 q 130 29 55 67 q 319 -9 205 -9 q 530 92 433 -7 q 625 328 627 191 q 549 554 627 455 q 328 658 472 652 q 158 623 237 661 q 146 634 146 620 q 165 793 160 713 q 178 804 165 806 q 417 815 330 776 q 548 957 505 854 q 547 969 551 963 q 533 970 542 975 q 367 929 461 937 q 149 961 273 922 q 118 941 100 975 q 112 683 130 812 q 75 437 95 553 q 102 426 75 404 q 283 514 189 516 q 481 319 467 512 "},"6":{"ha":631,"x_min":35,"x_max":604,"o":"m 416 850 q 438 762 413 806 q 506 719 463 718 q 567 749 548 719 q 578 817 587 780 q 512 924 559 883 q 357 975 451 975 q 205 924 265 975 q 96 770 146 874 q 35 486 45 665 q 102 115 22 237 q 335 -10 182 -8 q 513 97 427 -11 q 604 341 600 204 q 538 552 608 479 q 389 627 469 624 q 203 469 271 632 q 209 686 202 573 q 234 845 213 743 q 340 943 255 947 q 395 912 377 941 q 416 850 414 882 m 336 27 q 253 65 275 27 q 222 178 230 104 q 209 332 214 243 q 335 557 237 551 q 423 472 400 560 q 448 268 446 385 q 422 99 449 172 q 336 27 396 26 "},"7":{"ha":597,"x_min":22,"x_max":581,"o":"m 22 711 q 23 703 22 705 q 31 697 25 698 l 43 696 q 56 703 53 693 q 158 810 100 809 q 216 810 215 810 q 216 810 216 810 q 349 810 283 810 q 481 810 415 810 q 490 805 487 810 q 491 794 493 800 l 99 16 q 99 5 96 9 q 109 0 102 0 l 273 0 q 283 8 281 0 l 581 935 q 578 944 581 939 q 570 948 576 948 l 92 948 q 81 941 82 948 l 22 711 "},"8":{"ha":649,"x_min":23,"x_max":611,"o":"m 191 505 q 194 500 194 503 q 191 495 194 496 q 73 395 119 452 q 23 249 23 334 q 105 65 23 131 q 302 0 188 0 q 504 56 416 0 q 611 244 591 112 q 578 417 618 328 q 444 563 539 503 q 439 567 441 565 q 438 572 438 568 q 444 583 438 579 q 533 654 496 613 q 576 766 576 701 q 509 915 576 856 q 336 974 442 974 q 135 909 216 977 q 54 751 55 841 q 191 505 51 600 m 227 473 q 235 476 230 476 q 242 474 239 476 q 302 444 258 466 q 429 358 365 414 q 490 227 493 302 q 432 70 486 111 q 304 29 378 29 q 177 82 231 29 q 126 246 123 134 q 227 473 114 387 m 492 764 q 402 602 476 661 q 391 598 399 599 q 378 601 382 598 q 237 684 301 644 q 167 798 168 728 q 215 905 165 861 q 336 948 264 948 q 492 764 490 945 "},"9":{"ha":631,"x_min":26,"x_max":594,"o":"m 214 125 q 191 219 215 182 q 124 257 166 257 q 62 225 81 256 q 52 159 43 195 q 118 52 70 91 q 273 0 178 0 q 425 51 364 0 q 534 205 484 100 q 594 490 584 309 q 528 861 608 737 q 295 986 447 984 q 116 879 203 987 q 26 634 29 770 q 92 423 23 496 q 241 348 160 351 q 427 506 359 342 q 420 290 427 396 q 396 130 416 233 q 290 32 375 27 q 234 63 252 34 q 214 125 216 92 m 294 948 q 377 909 354 948 q 408 798 399 871 q 421 644 415 732 q 300 423 397 428 q 210 505 235 419 q 182 707 184 591 q 207 876 180 803 q 294 948 233 949 "}," ":{"ha":407,"x_min":0,"x_max":0,"o":""}," ":{"ha":407,"x_min":0,"x_max":0,"o":""},"!":{"ha":323,"x_min":52,"x_max":271,"o":"m 63 108 q 63 89 47 97 q 152 0 123 54 q 172 0 161 -20 q 260 89 201 60 q 260 108 279 98 q 172 197 203 137 q 152 197 163 214 q 63 108 116 142 m 52 886 q 52 864 33 873 q 151 344 118 728 q 172 344 161 322 q 271 864 205 734 q 271 886 292 875 q 172 985 208 918 q 151 985 162 1003 q 52 886 111 923 "},"\"":{"ha":559,"x_min":52,"x_max":514,"o":"m 311 884 q 311 865 293 872 q 411 754 403 821 q 377 625 418 688 q 383 612 373 618 q 397 615 391 608 q 474 741 434 665 q 514 875 514 818 q 509 884 514 882 q 420 974 452 913 q 400 974 411 990 q 311 884 364 918 m 52 884 q 52 865 33 872 q 151 754 143 821 q 117 625 159 688 q 123 612 113 618 q 137 615 131 608 q 214 741 174 665 q 254 875 254 818 q 249 884 254 882 q 160 974 192 913 q 140 974 151 990 q 52 884 104 918 "},"#":{"ha":715,"x_min":45,"x_max":666,"o":"m 630 310 l 630 416 l 511 416 l 536 592 l 666 592 l 666 699 l 546 699 l 568 889 l 467 889 l 445 699 l 321 699 l 343 889 l 241 889 l 218 699 l 85 699 l 85 592 l 208 592 l 183 416 l 45 416 l 45 310 l 173 310 l 142 98 l 245 98 l 275 310 l 399 310 l 369 98 l 470 98 l 501 310 l 630 310 m 311 592 l 435 592 l 410 416 l 286 416 l 311 592 "},"$":{"ha":582,"x_min":49,"x_max":525,"o":"m 317 -63 l 317 71 q 424 115 377 80 q 498 207 471 150 q 525 334 525 263 q 478 478 525 424 q 341 586 431 533 q 213 671 251 639 q 175 761 175 703 q 213 852 175 819 q 301 885 250 885 q 375 867 340 885 q 410 808 410 850 q 403 765 410 796 q 396 718 396 733 q 412 663 396 687 q 454 640 429 640 q 495 661 481 640 q 510 715 510 682 q 494 795 510 757 q 449 864 477 834 q 387 911 421 894 q 317 930 352 928 l 317 1057 l 266 1057 l 266 930 q 190 905 225 925 q 127 852 154 884 q 87 779 101 821 q 73 686 73 738 q 89 592 73 632 q 133 522 104 552 q 192 471 162 491 q 270 421 222 451 q 363 359 333 384 q 404 312 393 335 q 414 251 414 288 q 395 179 414 210 q 345 133 376 149 q 281 117 315 117 q 221 130 254 117 q 165 167 189 143 q 142 224 142 191 q 153 269 142 239 q 164 322 164 303 q 158 359 164 341 q 139 388 151 377 q 109 398 127 398 q 64 375 79 398 q 49 315 49 351 q 81 197 49 250 q 162 113 113 144 q 266 71 212 81 l 266 -63 l 317 -63 "},"%":{"ha":991,"x_min":37,"x_max":951,"o":"m 755 521 q 894 447 837 521 q 951 269 951 373 q 894 92 951 165 q 755 18 837 18 q 617 92 674 18 q 560 269 560 165 q 617 447 560 373 q 755 521 674 521 m 755 478 q 704 417 712 478 q 696 269 696 356 q 704 121 696 182 q 755 60 712 60 q 807 121 799 60 q 816 269 816 182 q 807 417 816 356 q 755 478 799 478 m 912 977 q 897 976 902 984 l 97 53 q 98 37 90 43 l 119 20 q 134 21 127 12 l 933 944 q 932 960 940 951 l 912 977 m 233 972 q 94 899 151 972 q 37 722 37 825 q 94 544 37 617 q 233 470 151 470 q 371 544 313 470 q 428 722 428 617 q 371 899 428 825 q 233 972 313 972 m 233 930 q 284 869 275 930 q 293 722 293 808 q 284 574 293 635 q 233 513 275 513 q 181 574 189 513 q 173 722 173 635 q 181 869 173 808 q 233 930 189 930 "},"&":{"ha":796,"x_min":45,"x_max":759,"o":"m 180 297 q 248 427 180 394 q 303 299 276 357 q 360 188 330 241 q 429 80 390 134 q 387 56 413 65 q 340 47 361 47 q 256 86 293 47 q 200 183 220 124 q 180 297 180 242 m 527 501 l 527 463 q 587 441 564 463 q 610 374 610 419 q 590 275 610 323 q 536 190 570 227 q 496 266 514 232 q 459 339 478 300 q 421 420 440 378 q 388 501 402 463 q 468 557 437 534 q 522 618 498 581 q 547 700 547 654 q 524 784 547 749 q 465 837 501 819 q 391 854 429 854 q 294 829 340 854 q 220 755 248 804 q 192 641 192 706 q 229 474 192 570 q 98 366 152 433 q 45 208 45 298 q 100 56 45 125 q 280 -14 155 -14 q 465 45 385 -14 q 525 1 496 15 q 590 -14 553 -14 q 655 1 625 -14 q 712 41 686 15 q 759 102 739 68 l 741 122 q 656 74 693 74 q 563 151 602 74 q 648 330 616 218 q 678 410 664 384 q 706 445 692 436 q 751 463 721 454 l 751 501 l 527 501 m 456 719 q 433 617 456 662 q 369 544 410 572 q 321 722 321 651 q 338 791 321 764 q 389 817 356 817 q 439 790 422 817 q 456 719 456 762 "},"'":{"ha":279,"x_min":41,"x_max":243,"o":"m 41 884 q 41 865 22 872 q 140 754 132 821 q 106 625 148 688 q 113 612 102 618 q 126 615 120 608 q 203 741 163 665 q 243 875 243 818 q 238 884 243 882 q 149 974 181 913 q 130 974 140 990 q 41 884 94 918 "},"(":{"ha":345,"x_min":20,"x_max":311,"o":"m 300 -35 q 307 -33 304 -36 q 311 -18 313 -28 q 300 -6 310 -7 q 212 64 248 0 q 175 529 175 127 q 212 995 175 930 q 300 1065 248 1059 q 307 1090 329 1068 q 300 1093 303 1094 q 101 921 182 1084 q 20 529 20 757 q 101 136 20 300 q 300 -35 182 -28 "},")":{"ha":345,"x_min":38,"x_max":329,"o":"m 50 1089 q 42 1087 45 1090 q 38 1072 37 1082 q 48 1060 39 1062 q 137 990 100 1055 q 174 525 174 926 q 137 59 174 123 q 48 -11 100 -5 q 42 -37 20 -14 q 50 -39 46 -40 q 248 133 166 -31 q 329 526 329 297 q 248 918 329 754 q 50 1089 166 1082 "},"*":{"ha":488,"x_min":6,"x_max":458,"o":"m 149 947 q 149 930 132 937 q 219 804 206 900 q 214 795 220 798 q 205 795 210 791 q 130 921 125 855 q 116 929 132 936 q 15 902 72 905 q 7 888 -2 902 q 37 780 37 837 q 51 772 37 762 q 189 772 103 806 q 195 764 195 771 q 189 755 195 758 q 47 756 99 720 q 34 748 34 766 q 6 647 32 696 q 15 632 0 632 q 123 604 73 633 q 137 612 138 595 q 205 732 133 675 q 214 732 210 735 q 219 723 220 728 q 149 600 205 627 q 149 584 132 593 q 222 509 191 556 q 239 509 232 496 q 317 589 266 561 q 317 606 332 598 q 249 719 262 632 q 254 729 247 724 q 264 728 258 730 q 327 612 328 673 q 341 604 327 595 q 450 632 391 634 q 458 646 464 632 q 431 748 432 695 q 416 755 431 764 q 277 755 362 722 q 271 764 271 758 q 277 772 271 771 q 414 772 359 804 q 427 780 427 762 q 457 888 427 838 q 449 903 465 901 q 348 929 392 905 q 334 922 332 937 q 264 800 336 858 q 253 798 259 795 q 248 808 247 802 q 317 925 263 895 q 317 941 334 933 q 239 1021 267 969 q 222 1021 231 1037 q 149 947 192 974 "},"+":{"ha":549,"x_min":52,"x_max":509,"o":"m 509 496 l 313 496 l 313 703 l 252 703 l 252 496 l 52 496 l 52 433 l 252 433 l 252 212 l 313 212 l 313 433 l 509 433 l 509 496 "},",":{"ha":255,"x_min":24,"x_max":227,"o":"m 24 108 q 24 89 6 96 q 124 -22 116 44 q 90 -152 132 -88 q 96 -165 86 -159 q 110 -161 104 -168 q 187 -35 147 -112 q 227 98 227 41 q 222 108 227 105 q 133 197 165 137 q 113 197 124 214 q 24 108 77 142 "},"-":{"ha":414,"x_min":40,"x_max":418,"o":"m 145 520 q 136 514 139 519 l 98 439 q 98 429 95 433 q 106 426 100 426 l 372 452 q 380 458 376 452 l 418 534 q 418 542 420 538 q 410 546 416 547 l 145 520 m 86 370 q 78 365 81 370 l 40 289 q 40 280 37 283 q 47 276 42 276 l 313 302 q 321 308 319 302 l 360 384 q 360 393 362 388 q 352 396 357 397 l 86 370 "},".":{"ha":279,"x_min":36,"x_max":233,"o":"m 36 108 q 36 89 20 97 q 125 0 96 54 q 144 0 134 -20 q 233 89 174 60 q 233 108 252 98 q 144 197 176 137 q 125 197 136 214 q 36 108 89 142 "},"/":{"ha":725,"x_min":43,"x_max":700,"o":"m 673 1034 q 658 1030 662 1039 l 43 -24 q 47 -40 37 -35 l 70 -54 q 85 -49 79 -59 l 700 1005 q 696 1021 705 1014 l 673 1034 "},":":{"ha":279,"x_min":36,"x_max":233,"o":"m 36 554 q 36 535 20 543 q 125 446 96 500 q 144 446 134 427 q 233 535 174 506 q 233 554 252 545 q 144 644 176 583 q 125 644 136 660 q 36 554 89 588 m 36 108 q 36 89 20 97 q 125 0 96 54 q 144 0 134 -20 q 233 89 174 60 q 233 108 252 98 q 144 197 176 137 q 125 197 136 214 q 36 108 89 142 "},";":{"ha":238,"x_min":24,"x_max":233,"o":"m 24 108 q 24 89 6 96 q 124 -22 116 44 q 90 -152 132 -88 q 96 -165 86 -159 q 110 -161 104 -168 q 187 -35 147 -112 q 227 98 227 41 q 222 108 227 105 q 133 197 165 137 q 113 197 124 214 q 24 108 77 142 m 36 554 q 36 535 20 543 q 125 446 96 500 q 144 446 134 427 q 233 535 174 506 q 233 554 252 545 q 144 644 176 583 q 125 644 136 660 q 36 554 89 588 "},"<":{"ha":401,"x_min":5,"x_max":379,"o":"m 342 648 q 336 646 338 648 l 10 401 q 5 392 5 396 q 10 383 5 387 l 336 138 q 342 136 337 136 l 369 136 q 379 142 377 136 q 378 153 382 147 l 182 385 q 182 399 175 391 l 378 631 q 379 642 382 636 q 369 648 377 648 l 342 648 "},"=":{"ha":538,"x_min":32,"x_max":510,"o":"m 43 364 q 32 353 32 364 l 32 275 q 43 264 32 264 l 499 264 q 510 275 510 264 l 510 353 q 499 364 510 364 l 43 364 m 43 566 q 32 554 32 566 l 32 477 q 43 465 32 465 l 499 465 q 510 477 510 465 l 510 554 q 499 566 510 566 l 43 566 "},">":{"ha":401,"x_min":8,"x_max":382,"o":"m 45 136 q 52 138 50 136 l 377 383 q 382 392 382 388 q 377 401 382 397 l 52 646 q 45 648 50 648 l 18 648 q 8 642 10 648 q 9 631 5 637 l 205 399 q 205 385 212 393 l 9 153 q 8 142 5 148 q 18 136 10 136 l 45 136 "},"?":{"ha":633,"x_min":45,"x_max":570,"o":"m 163 815 q 136 859 136 814 q 188 926 136 894 q 301 958 239 958 q 432 789 427 956 q 374 692 431 720 q 249 635 317 665 q 146 551 182 605 q 127 413 111 498 q 200 310 139 345 q 339 277 262 276 q 445 317 406 277 q 488 404 484 357 q 481 425 495 421 q 459 410 466 426 q 417 334 450 362 q 339 304 384 305 q 260 337 296 302 q 225 416 225 371 q 277 488 224 463 q 394 535 330 513 q 513 602 459 556 q 570 752 568 648 q 315 988 571 989 q 45 800 51 982 q 154 695 50 693 q 200 713 184 695 q 216 749 216 730 q 163 815 217 815 m 232 108 q 232 89 216 97 q 321 0 292 54 q 340 0 330 -20 q 429 89 370 60 q 429 108 448 98 q 340 197 372 137 q 321 197 332 214 q 232 108 285 142 "},"@":{"ha":844,"x_min":22,"x_max":828,"o":"m 803 100 l 777 100 q 763 98 770 100 q 753 93 755 96 q 631 -73 709 -10 q 429 -139 547 -139 q 203 -47 295 -139 q 116 195 116 39 q 153 374 116 284 q 271 531 195 472 q 461 595 357 595 q 643 528 564 595 q 716 340 716 465 q 662 151 716 229 q 559 71 609 71 q 552 91 552 71 q 591 252 552 121 l 642 425 q 637 437 646 432 q 614 441 629 443 l 545 432 q 535 430 541 432 q 527 427 530 429 q 460 444 502 444 q 372 417 416 444 q 284 339 327 390 q 217 233 240 286 q 195 127 195 179 q 222 48 195 84 q 300 13 249 13 q 437 83 362 13 q 529 13 437 13 q 728 117 660 13 q 795 332 795 221 q 711 549 795 451 q 458 643 630 643 q 346 628 401 643 q 241 585 290 612 q 149 516 190 555 q 80 428 107 476 q 37 320 52 375 q 22 205 22 265 q 137 -79 22 37 q 265 -164 193 -136 q 427 -192 338 -192 q 559 -173 497 -192 q 675 -116 622 -153 q 770 -26 731 -76 q 828 83 808 24 q 825 96 833 91 q 803 100 817 100 m 493 348 q 488 306 493 330 q 474 252 484 281 q 447 192 464 220 q 411 140 431 163 q 340 92 366 92 q 323 106 330 92 q 316 140 316 120 q 324 189 316 160 q 346 250 332 218 q 377 311 361 283 q 408 357 393 338 q 438 387 424 376 q 465 397 452 397 q 493 348 493 397 "},"A":{"ha":1131,"x_min":31,"x_max":1096,"o":"m 747 814 q 785 787 779 814 q 791 734 791 760 q 791 472 791 603 q 793 210 790 340 q 790 203 793 206 q 764 173 777 186 q 736 148 751 159 q 640 112 677 105 q 560 162 602 118 q 497 216 534 189 q 413 263 460 243 q 406 271 407 265 q 410 281 405 278 q 591 453 498 351 q 683 690 684 555 q 601 898 682 806 q 368 989 521 989 q 134 895 236 989 q 31 671 31 801 q 85 522 31 577 q 218 445 138 467 q 262 363 292 424 q 264 343 255 350 q 286 346 274 336 q 341 502 378 429 q 195 595 304 576 q 113 636 148 602 q 85 732 77 671 q 123 823 90 775 q 227 882 156 871 q 416 828 337 898 q 513 661 496 758 q 495 473 530 560 q 399 323 459 387 q 304 238 355 277 q 201 165 254 200 q 180 136 174 149 q 201 129 186 123 q 223 136 216 134 q 336 111 290 153 q 435 25 381 69 q 527 -17 470 -3 q 656 29 585 -30 q 746 109 728 88 q 780 145 764 129 q 791 148 785 150 q 798 139 797 145 q 918 -12 816 17 q 949 -7 935 -17 l 1090 121 q 1096 143 1102 130 q 1072 145 1090 155 q 964 237 964 94 l 964 706 q 977 853 964 791 q 1038 952 991 916 q 1047 975 1053 962 q 1025 980 1042 987 l 741 844 q 731 829 731 838 q 747 814 731 814 "},"B":{"ha":1241,"x_min":21,"x_max":1205,"o":"m 262 194 q 409 130 335 216 q 588 7 484 43 q 783 -14 680 -25 q 999 63 887 -2 q 1205 340 1202 183 q 1144 509 1205 439 q 1002 597 1082 578 q 993 606 994 599 q 999 618 991 614 l 1152 689 q 1163 707 1166 696 q 1147 718 1161 718 q 1092 791 1112 717 q 1007 952 1065 903 q 871 1002 949 1002 q 737 960 789 1002 q 665 850 684 918 q 656 842 664 842 q 645 848 648 840 q 543 957 610 913 q 363 1005 475 1000 q 133 925 233 1010 q 21 718 33 840 q 68 518 9 595 q 281 442 127 440 q 384 471 339 442 q 428 505 412 488 q 431 520 434 511 q 418 529 429 529 q 402 519 410 529 q 387 505 393 509 q 264 473 340 471 q 125 543 168 487 q 81 675 81 600 q 153 806 81 747 q 307 865 224 865 q 490 768 430 865 q 551 581 551 672 q 442 352 552 436 q 224 209 332 268 q 217 196 217 204 q 232 180 217 180 q 239 182 235 180 q 250 188 243 184 q 262 194 256 191 m 711 514 q 700 496 698 508 q 718 485 703 484 q 898 468 825 492 q 1018 380 970 444 q 1066 252 1067 315 q 1028 141 1065 189 q 908 68 978 76 q 768 94 838 60 q 663 158 713 119 q 567 242 613 197 q 440 304 501 305 q 621 476 536 375 q 692 703 707 578 q 695 842 683 781 q 780 920 708 903 q 861 884 833 925 q 907 776 889 842 q 977 659 930 686 q 982 648 982 655 q 976 639 982 644 l 711 514 "},"C":{"ha":954,"x_min":49,"x_max":920,"o":"m 518 163 q 742 376 749 290 q 555 622 732 468 q 471 749 469 696 q 528 834 472 791 q 593 862 561 861 q 755 805 638 862 q 767 798 760 802 q 780 793 774 793 q 787 794 784 793 q 795 802 789 795 q 854 854 824 827 q 918 915 884 881 q 919 933 927 925 q 897 933 911 941 q 827 935 860 918 q 772 966 795 953 q 719 993 748 978 q 668 991 690 1008 q 557 895 617 939 q 541 901 545 887 q 489 976 526 945 q 389 1008 451 1008 q 135 850 235 1008 q 49 467 35 693 q 195 146 59 310 q 538 -18 330 -18 q 909 111 747 -18 q 916 134 923 123 q 892 138 908 145 q 690 86 787 86 q 380 211 516 86 q 220 583 245 335 q 254 846 206 726 q 399 966 302 966 q 516 873 495 966 q 511 861 517 867 q 469 834 498 852 q 436 815 440 817 q 319 665 319 743 q 458 454 318 581 q 555 353 528 391 q 581 287 583 315 q 500 187 578 245 q 494 166 486 176 q 518 163 501 156 "},"D":{"ha":1126,"x_min":32,"x_max":1080,"o":"m 145 71 q 268 111 208 123 q 384 68 327 98 q 755 -2 609 -53 q 1002 201 901 48 q 1080 418 1069 301 q 1053 644 1091 534 q 929 842 1014 753 q 718 979 844 932 q 482 1007 602 1015 q 261 949 361 1000 q 96 815 161 899 q 32 629 32 731 q 149 380 32 444 q 361 347 265 316 q 395 359 369 349 q 406 383 414 370 q 380 389 398 397 q 354 379 367 382 q 159 420 254 354 q 97 631 64 486 q 273 812 123 751 q 571 838 422 873 q 915 599 786 787 q 963 218 1044 410 q 812 96 916 108 q 576 170 709 84 q 333 235 425 265 q 124 98 241 205 q 118 72 109 84 q 145 71 127 60 m 534 230 q 687 401 672 306 q 574 603 702 496 q 533 785 432 722 q 542 809 550 795 q 515 812 534 822 q 361 666 409 753 q 452 460 313 578 q 544 366 494 423 q 515 256 593 309 q 508 233 500 245 q 534 230 515 220 "},"E":{"ha":976,"x_min":50,"x_max":940,"o":"m 554 852 q 594 863 574 862 q 756 806 639 863 q 780 797 771 798 q 796 802 789 797 q 854 855 825 828 q 919 916 884 882 q 921 936 929 927 q 897 934 913 944 q 829 936 863 918 q 773 966 795 954 q 720 994 749 979 q 669 992 691 1009 q 558 895 618 939 l 555 894 q 548 895 551 893 q 541 901 543 895 q 489 977 527 945 q 389 1008 452 1008 q 136 851 236 1008 q 50 467 35 694 q 195 147 60 311 q 539 -17 331 -17 q 909 111 747 -17 q 917 135 924 124 q 893 138 910 146 q 691 87 787 87 q 381 211 517 87 q 221 531 245 336 q 250 846 197 726 q 400 967 303 967 q 517 874 497 967 q 512 862 518 867 q 470 835 499 852 q 437 816 441 818 q 320 666 320 743 q 459 454 319 582 q 556 353 528 391 q 581 288 583 315 q 500 188 579 246 q 495 165 487 176 q 519 164 503 155 q 743 377 749 290 q 661 523 736 439 q 658 534 656 528 q 666 541 660 540 q 760 498 699 548 q 863 491 816 450 q 904 534 886 511 q 938 580 921 557 q 940 608 950 598 q 911 606 929 618 q 817 633 878 585 q 746 665 782 660 q 672 625 710 669 q 629 572 645 593 q 621 568 625 568 q 612 571 617 567 q 555 623 591 591 q 472 749 470 696 q 528 835 473 791 q 554 852 541 845 "},"F":{"ha":1049,"x_min":45,"x_max":1019,"o":"m 921 388 l 993 475 q 1009 493 1000 484 q 1019 509 1019 503 q 1011 524 1019 517 q 998 535 1004 530 q 950 576 973 555 q 902 617 926 597 q 876 614 888 629 q 817 542 846 577 q 759 470 787 506 q 741 471 749 460 q 674 557 710 513 q 602 646 639 601 q 608 768 551 707 q 614 781 614 774 q 597 798 614 798 q 587 794 590 798 l 587 793 q 455 628 485 703 q 567 373 425 552 q 667 215 629 294 q 694 73 704 136 q 629 -75 681 -19 q 485 -127 578 -132 q 360 -59 379 -121 q 367 94 340 3 q 355 234 395 191 q 242 293 315 277 q 205 300 225 296 q 169 304 186 304 q 149 287 149 303 q 169 271 149 271 q 208 257 191 271 q 214 163 238 233 q 199 108 205 136 l 186 52 q 281 -110 194 -54 q 488 -167 368 -167 q 660 -121 581 -167 q 789 -3 739 -75 q 850 159 838 68 q 821 338 862 249 q 774 422 802 378 q 777 437 768 431 q 875 414 818 471 q 889 394 881 407 q 908 382 898 382 q 921 388 915 382 m 460 395 q 473 407 470 399 q 473 419 476 414 q 462 428 470 425 q 441 425 454 430 q 197 430 292 367 q 97 607 101 493 q 175 793 94 720 q 386 867 257 867 q 603 818 496 867 q 772 724 711 769 q 809 725 792 711 q 906 796 857 762 q 1004 865 956 830 q 1017 889 1021 878 q 998 897 1013 900 q 978 890 991 895 q 849 903 915 868 q 652 987 749 956 q 458 1019 554 1019 q 138 887 253 1019 q 45 599 24 755 q 197 389 67 443 q 460 395 325 335 "},"G":{"ha":1069,"x_min":41,"x_max":1029,"o":"m 777 988 q 756 992 768 1000 l 610 885 q 593 889 599 878 q 423 994 545 994 q 153 844 270 994 q 41 467 36 694 q 209 109 47 256 q 590 -26 370 -38 q 889 90 761 -17 q 1029 342 1018 196 q 977 528 1034 425 q 825 635 920 632 q 819 655 798 638 l 981 768 q 985 789 992 776 q 977 794 983 791 q 869 884 920 837 q 777 988 817 931 m 673 543 q 819 464 766 543 q 873 300 871 385 q 811 110 874 198 q 629 21 747 21 q 340 173 456 21 q 217 593 225 326 q 274 847 213 735 q 433 961 336 958 q 571 875 541 963 q 567 862 574 867 l 541 842 q 432 770 485 802 q 355 697 379 739 q 349 591 331 654 q 452 422 366 528 q 540 235 574 274 q 476 167 506 195 q 470 145 463 155 q 493 143 477 136 q 675 294 619 210 q 585 538 731 377 q 492 700 497 633 q 560 821 487 766 l 637 877 q 652 875 646 883 q 819 717 715 796 q 818 699 829 707 l 623 564 q 613 545 609 555 q 633 537 617 534 q 673 543 654 542 "},"H":{"ha":1019,"x_min":25,"x_max":985,"o":"m 25 109 q 47 108 35 100 q 114 106 81 133 q 168 58 146 79 q 306 -14 250 -28 q 471 105 361 1 q 569 292 580 208 q 476 482 558 376 q 479 498 469 492 l 500 511 q 621 547 574 558 q 715 485 669 536 q 803 106 870 309 q 487 -157 736 -96 q 471 -176 469 -161 q 494 -186 473 -190 q 826 -19 677 -155 q 985 292 975 117 q 935 500 991 410 q 806 652 879 590 q 759 709 761 690 q 753 718 758 715 q 740 714 749 720 l 453 526 q 438 528 445 521 q 307 730 332 652 q 342 863 281 808 q 433 900 393 909 q 519 837 474 892 q 641 775 585 758 q 765 852 698 791 q 770 877 779 867 q 746 876 761 886 q 701 886 732 867 q 647 937 669 905 q 323 886 551 1076 q 170 664 170 759 q 293 414 170 568 q 440 219 401 279 q 440 119 480 159 q 371 101 406 85 q 290 168 336 117 q 156 229 213 254 q 26 130 100 203 q 25 109 16 118 "},"I":{"ha":951,"x_min":33,"x_max":889,"o":"m 526 463 q 503 467 519 474 q 278 466 389 416 q 156 633 167 515 q 198 813 145 751 q 351 881 251 875 q 533 806 458 879 q 690 733 607 734 q 703 727 701 734 q 697 713 705 720 q 565 522 569 610 q 673 265 562 433 q 762 71 752 143 q 720 -49 771 -1 q 595 -85 667 -96 q 434 24 524 -73 q 35 32 239 239 q 33 9 23 19 q 61 12 43 -1 q 174 14 128 54 q 275 -75 220 -26 q 514 -162 387 -175 q 747 -73 641 -150 q 889 120 858 7 q 815 392 920 234 q 713 633 703 561 q 872 801 724 706 q 889 830 897 817 q 864 833 881 842 q 763 843 812 807 q 644 941 713 880 q 551 993 616 966 q 421 1019 486 1021 q 164 904 256 1015 q 82 651 73 793 q 229 435 92 509 q 517 441 366 361 q 526 463 532 449 "},"J":{"ha":986,"x_min":33,"x_max":907,"o":"m 526 463 q 500 467 519 475 q 266 461 376 412 q 142 629 156 511 q 188 811 128 747 q 348 881 248 875 q 440 864 397 884 q 520 811 484 844 q 689 733 605 733 q 701 726 699 734 q 696 713 703 719 q 576 536 584 620 q 693 231 568 452 q 795 -81 819 11 q 721 -222 772 -174 q 596 -259 668 -271 q 435 -149 524 -248 q 36 -142 239 66 q 33 -163 24 -153 q 62 -161 41 -173 q 175 -160 129 -119 q 275 -250 221 -201 q 514 -336 387 -349 q 748 -247 642 -323 q 907 -9 859 -165 q 838 349 955 147 q 728 615 735 524 q 878 808 721 706 q 888 830 895 818 q 862 833 880 842 q 759 845 808 810 q 642 941 710 880 q 548 993 613 966 q 418 1019 484 1021 q 162 911 254 1015 q 79 661 71 808 q 225 437 87 513 q 514 441 363 361 q 526 463 531 450 "},"K":{"ha":1127,"x_min":27,"x_max":1092,"o":"m 789 492 l 595 386 q 585 365 579 377 q 609 359 590 353 q 680 342 648 376 q 731 246 712 309 q 799 88 758 157 q 904 -23 840 20 q 916 -23 910 -26 l 1078 81 q 1092 106 1099 94 q 1063 109 1084 118 q 935 204 983 79 q 863 360 898 298 q 791 443 829 422 q 783 452 783 446 q 790 463 783 458 l 950 554 q 962 574 966 562 q 943 583 958 585 q 906 616 922 580 q 861 712 890 652 q 732 821 822 788 q 558 814 642 854 q 449 707 474 774 q 431 578 425 639 q 423 565 431 568 q 410 571 415 563 q 408 831 323 707 q 675 958 492 956 q 915 853 823 952 q 1010 629 1006 755 q 995 509 1013 556 q 907 420 977 463 q 897 397 889 410 q 925 395 904 384 q 1041 489 994 431 q 1086 622 1088 546 q 968 881 1081 774 q 676 987 854 988 q 389 907 522 989 q 217 684 256 825 q 230 528 199 619 q 328 364 262 437 q 441 213 401 283 q 443 111 481 144 q 369 92 402 76 q 300 153 336 109 q 195 224 241 224 q 94 178 149 224 q 32 125 38 131 q 27 101 18 111 q 54 104 37 92 q 157 60 98 138 q 297 -17 227 -32 q 471 92 368 -3 q 573 251 557 170 q 498 459 589 332 q 456 594 454 517 q 512 709 457 672 q 624 722 566 745 q 709 626 682 699 q 788 511 744 534 q 795 502 795 508 q 789 492 795 495 "},"L":{"ha":794,"x_min":27,"x_max":756,"o":"m 49 130 q 152 134 102 152 q 253 76 202 117 q 425 -14 347 0 q 566 -5 503 -28 q 676 64 629 17 q 756 159 723 112 q 753 183 766 176 q 729 174 740 190 q 594 104 682 106 q 426 170 505 103 q 247 273 343 239 q 238 281 239 275 q 243 292 237 287 q 365 486 385 402 q 305 636 346 570 q 265 709 283 671 q 248 790 248 747 q 302 900 248 853 q 441 947 356 947 q 581 874 529 941 q 626 688 633 808 q 557 549 620 585 q 425 542 494 513 q 401 536 407 549 q 418 513 395 524 q 646 512 538 453 q 755 700 754 570 q 444 977 758 977 q 209 914 302 977 q 87 747 117 851 q 87 639 72 696 q 138 530 102 581 q 216 410 179 469 q 205 291 253 351 q 121 204 158 231 q 45 161 83 177 q 27 139 23 153 q 49 130 32 125 "},"M":{"ha":1536,"x_min":35,"x_max":1494,"o":"m 382 375 q 398 360 382 359 q 417 380 414 360 q 247 525 443 575 q 107 543 145 498 q 68 663 70 588 q 130 789 66 736 q 307 831 195 843 q 505 692 418 819 q 593 396 592 565 q 550 182 593 267 q 467 96 507 98 q 421 115 437 95 q 389 157 406 134 q 98 108 283 296 q 95 81 84 93 q 121 82 106 70 q 237 61 180 146 q 380 -18 302 -35 q 546 109 458 -2 q 677 322 626 211 q 724 553 728 433 q 637 812 718 701 q 637 827 631 820 q 742 857 684 874 q 862 742 799 840 q 936 461 926 644 q 910 177 947 279 q 858 127 891 124 q 784 167 824 130 q 684 195 735 212 q 546 58 633 178 q 545 36 536 45 q 567 39 554 28 q 628 58 602 66 q 680 22 655 50 q 863 49 766 -73 q 989 239 936 144 q 1069 522 1042 334 q 1068 668 1080 599 q 1030 793 1057 737 q 1030 803 1027 798 q 1129 888 1071 890 q 1235 757 1211 887 q 1305 593 1257 625 q 1311 585 1311 590 q 1307 576 1312 581 q 1120 240 1090 382 q 1294 -18 1149 98 q 1308 -18 1301 -23 q 1399 55 1354 18 q 1490 127 1444 91 q 1494 151 1503 139 q 1464 151 1484 163 q 1367 147 1411 119 q 1299 244 1322 175 q 1295 495 1245 397 q 1476 639 1344 594 q 1492 655 1493 644 q 1478 667 1491 666 q 1415 752 1430 671 q 1337 918 1391 869 q 1199 969 1282 968 q 1090 935 1134 969 q 1019 848 1047 901 q 1009 842 1015 842 q 999 848 1003 842 q 818 972 919 968 q 693 941 740 975 q 616 859 646 908 q 608 853 612 854 q 599 858 603 852 q 481 945 550 916 q 353 974 412 974 q 129 880 222 974 q 35 656 35 785 q 111 460 35 526 q 283 417 186 394 q 365 422 345 431 q 382 375 384 413 "},"N":{"ha":1226,"x_min":36,"x_max":1185,"o":"m 384 381 q 399 363 383 364 q 418 387 414 361 q 248 531 444 581 q 109 549 146 505 q 69 669 71 594 q 132 796 67 743 q 308 837 196 849 q 507 698 420 825 q 595 402 593 571 q 551 189 595 273 q 469 103 508 104 q 423 121 438 101 q 391 163 408 140 q 100 114 285 302 q 96 86 85 99 q 122 88 107 74 q 238 67 181 153 q 381 -12 303 -28 q 550 111 460 4 q 681 322 633 206 q 725 559 729 439 q 681 746 721 660 q 680 755 679 749 q 729 841 697 806 q 801 876 760 876 q 877 853 851 876 q 917 764 903 831 q 991 600 943 630 q 997 592 996 597 q 991 583 998 588 q 809 245 785 388 q 987 -12 832 103 q 1002 -12 995 -17 q 1092 62 1046 25 q 1181 135 1137 98 q 1185 159 1195 147 q 1156 158 1176 170 q 1058 154 1103 125 q 988 251 1013 182 q 981 502 933 404 q 1160 645 1029 600 q 1176 662 1177 651 q 1161 673 1175 673 q 1098 758 1114 679 q 1023 924 1069 873 q 869 975 977 975 q 747 922 800 975 q 667 807 693 869 q 657 800 665 801 q 647 805 650 800 q 508 935 590 890 q 354 980 427 980 q 122 889 207 979 q 36 662 37 800 q 112 466 36 532 q 284 423 188 399 q 366 428 347 437 q 384 381 385 419 "},"O":{"ha":1047,"x_min":37,"x_max":986,"o":"m 41 162 q 37 143 30 152 q 54 141 44 135 q 159 139 103 172 q 282 64 215 106 q 585 -9 433 -32 q 875 164 736 14 q 986 383 958 253 q 960 654 1014 513 q 773 883 907 792 q 477 995 640 974 q 466 989 469 996 q 369 889 433 928 q 207 804 305 850 q 46 596 50 722 q 214 405 42 470 q 363 335 330 360 q 363 271 397 309 q 362 253 354 260 q 383 256 370 245 q 486 423 494 348 q 292 566 477 498 q 184 672 193 602 q 238 780 175 741 q 457 819 338 841 q 691 716 576 798 q 883 438 854 600 q 850 189 913 277 q 683 81 783 94 q 444 169 583 67 q 247 276 304 272 q 41 162 190 280 "},"P":{"ha":1238,"x_min":21,"x_max":1201,"o":"m 390 509 q 277 473 346 472 q 124 525 182 473 q 67 665 67 576 q 130 803 67 754 q 283 848 192 852 q 425 774 368 846 q 492 603 481 702 q 508 428 500 515 q 525 254 517 341 q 523 245 525 248 q 515 241 520 242 q 309 96 414 233 q 310 75 299 83 q 332 79 320 67 q 534 91 399 144 q 541 82 541 88 q 507 -210 559 -101 q 508 -228 500 -222 q 526 -225 516 -234 q 601 -119 576 -177 q 636 24 626 -62 q 642 32 637 29 q 652 31 647 35 q 895 0 793 -47 q 1101 188 996 46 q 1201 452 1192 314 q 1048 722 1209 589 q 932 849 968 787 q 945 945 897 910 q 949 967 958 956 q 921 969 941 978 l 627 817 q 613 821 618 811 q 513 926 577 882 q 356 973 450 971 q 111 890 201 973 q 21 690 21 806 q 93 506 21 574 q 273 441 165 439 q 345 450 309 442 q 407 482 380 458 q 414 511 425 500 q 390 509 404 521 m 636 771 q 642 785 632 780 l 728 829 q 739 830 733 832 q 744 820 744 828 q 804 693 748 753 q 942 568 860 633 q 1076 203 1183 373 q 946 110 1027 126 q 727 173 865 94 q 654 211 688 196 q 648 221 648 213 q 656 405 650 304 q 658 650 662 505 q 652 709 656 677 q 636 771 648 740 "},"Q":{"ha":1107,"x_min":36,"x_max":1067,"o":"m 40 162 q 36 144 29 153 q 53 142 43 136 q 158 139 102 172 q 281 64 214 106 q 771 73 534 -96 q 786 71 779 78 q 939 8 878 -35 q 1067 149 1000 52 q 1065 176 1079 168 q 1041 170 1051 184 q 977 127 1010 132 q 894 173 943 122 q 893 188 887 179 q 987 400 965 277 q 959 655 1010 524 q 772 884 905 793 q 476 996 639 975 q 465 991 469 997 q 369 893 431 930 q 205 804 306 857 q 45 596 49 722 q 212 406 41 471 q 362 335 328 361 q 362 272 396 310 q 362 253 353 260 q 382 257 370 246 q 484 424 493 349 q 290 566 475 498 q 182 672 191 602 q 237 781 174 742 q 456 821 336 842 q 690 718 575 799 q 875 466 838 611 q 870 226 912 321 q 861 219 867 220 q 851 222 855 218 q 740 274 796 283 q 579 167 684 266 q 575 146 566 155 q 600 147 584 138 q 681 164 645 176 q 749 116 716 153 q 752 107 752 113 q 746 98 753 101 q 443 170 619 41 q 245 276 302 273 q 40 162 189 280 "},"R":{"ha":1292,"x_min":33,"x_max":1252,"o":"m 153 96 q 202 107 174 113 q 269 51 231 101 q 385 -14 315 -9 q 539 69 456 -20 q 672 243 623 158 q 735 427 722 328 q 721 676 751 556 q 718 783 709 725 q 776 866 727 840 q 874 861 826 892 q 939 755 922 829 q 974 684 947 715 q 1032 624 1000 652 q 1036 614 1036 618 q 1030 606 1034 608 l 776 447 q 763 428 760 438 q 782 423 765 418 q 852 384 827 434 q 897 237 878 334 q 1062 -20 946 21 q 1073 -19 1069 -22 q 1158 44 1116 12 q 1244 107 1201 76 q 1252 132 1261 120 q 1229 132 1242 143 q 1141 141 1180 92 q 1073 310 1103 191 q 964 511 1054 431 q 961 521 960 515 q 966 529 961 526 l 1203 668 q 1214 689 1221 679 q 1193 694 1207 700 q 1133 776 1164 682 q 995 948 1097 897 q 806 946 893 1000 q 692 800 720 892 q 682 790 688 790 q 671 798 675 790 q 479 958 598 923 q 177 914 318 1004 q 33 631 35 824 q 99 460 35 526 q 267 389 163 395 q 450 442 374 382 q 458 462 463 454 q 443 464 452 470 q 275 421 366 410 q 138 490 186 432 q 89 628 89 547 q 184 803 87 745 q 410 801 281 860 q 564 656 519 751 q 614 447 609 561 q 605 269 618 352 q 543 125 592 185 q 481 101 515 92 q 401 172 448 109 q 304 225 363 221 q 138 116 245 229 q 134 95 127 104 q 153 96 142 87 "},"S":{"ha":1053,"x_min":38,"x_max":1002,"o":"m 937 914 q 847 882 914 884 q 570 984 781 880 q 522 987 545 996 q 38 472 43 795 q 196 114 34 243 q 551 -16 358 -16 q 784 38 682 -16 q 947 183 886 92 q 999 293 979 232 q 1002 429 1019 354 q 917 570 981 514 q 784 642 852 625 q 667 635 713 659 q 568 582 621 611 q 427 513 491 537 q 322 549 363 489 q 297 560 310 568 q 298 535 284 553 q 473 371 410 381 q 675 450 536 361 q 869 511 782 517 q 971 406 957 505 q 884 220 988 282 q 635 155 779 157 q 289 259 429 149 q 144 531 149 368 q 162 665 142 600 q 249 794 182 730 q 396 856 317 860 q 571 804 475 852 q 714 744 663 757 q 817 762 764 732 q 881 810 846 779 q 966 890 915 842 q 969 921 985 908 q 937 914 953 933 "},"T":{"ha":1040,"x_min":33,"x_max":1002,"o":"m 366 482 q 372 505 380 492 q 349 507 365 517 q 256 484 308 477 q 76 680 73 502 q 139 814 77 755 q 305 873 201 873 q 501 817 394 873 q 705 692 608 760 q 883 683 805 626 l 1000 781 q 1002 803 1013 793 q 976 800 991 814 q 861 800 923 753 q 652 928 771 865 q 399 991 533 992 q 137 898 241 991 q 33 673 33 805 q 99 521 33 583 q 261 457 165 459 q 366 482 330 457 m 70 266 q 56 239 50 251 q 78 234 62 227 q 125 246 103 246 q 210 205 167 247 q 442 35 338 83 q 632 -12 546 -13 q 789 28 718 -11 q 926 121 861 67 q 933 145 942 134 q 904 144 924 157 q 804 90 852 112 q 695 81 757 68 q 548 154 633 94 q 337 343 463 213 q 209 355 292 391 q 70 266 151 332 m 532 755 q 538 775 547 766 q 514 776 530 785 q 364 607 355 690 q 472 450 373 524 q 574 336 556 386 q 526 244 592 287 q 519 226 513 236 q 540 222 526 216 q 725 378 715 287 q 604 572 736 470 q 505 673 528 630 q 532 755 482 716 "},"U":{"ha":990,"x_min":33,"x_max":951,"o":"m 782 -9 q 800 -14 790 -14 q 819 -6 810 -13 l 948 111 q 951 129 958 120 q 930 133 943 138 q 826 204 827 96 l 821 682 q 839 831 821 767 q 909 933 857 895 q 915 955 924 946 q 893 958 905 964 q 757 890 825 924 q 621 823 689 856 q 620 791 589 805 q 658 726 658 776 l 662 236 q 659 229 662 232 q 528 127 595 155 q 374 180 461 98 q 325 229 348 203 q 260 264 302 254 q 250 272 250 266 q 256 283 249 279 q 432 478 417 393 q 335 677 446 563 q 281 728 313 699 q 252 837 249 758 q 288 909 253 879 q 364 937 323 939 q 449 885 421 933 q 422 795 477 838 q 417 769 406 781 q 442 768 427 756 q 483 891 507 818 q 363 969 458 965 q 240 940 311 971 q 127 837 170 908 q 107 673 73 746 q 192 549 142 600 q 274 427 251 488 q 210 283 296 366 l 210 282 l 38 138 q 34 117 25 126 q 54 117 42 107 q 151 141 101 158 q 251 70 200 123 q 530 53 397 -85 q 587 114 558 83 q 644 174 616 144 q 657 179 650 181 q 663 168 663 177 q 690 53 666 85 q 782 -9 713 24 "},"V":{"ha":1232,"x_min":31,"x_max":1156,"o":"m 258 477 q 127 536 174 481 q 81 671 81 592 q 141 803 81 751 q 281 861 201 854 q 477 775 404 865 q 555 597 551 685 q 532 450 559 520 q 460 323 506 380 q 448 319 456 318 q 331 307 390 337 q 184 189 272 277 q 181 165 170 176 q 206 169 192 155 q 304 197 252 216 q 425 119 357 178 q 710 -15 561 -1 q 1002 86 859 -30 q 1155 274 1112 176 q 1059 491 1199 372 q 988 610 991 548 q 1123 741 985 671 q 1115 767 1158 758 q 1075 801 1089 771 q 1042 868 1061 831 q 905 987 994 961 q 747 969 817 1013 q 655 856 677 924 q 647 846 652 847 q 635 853 642 845 q 357 991 542 991 q 124 901 217 991 q 31 698 31 812 q 98 514 31 583 q 271 442 165 444 q 429 511 355 440 q 431 529 440 522 q 409 526 421 536 q 337 488 378 499 q 258 477 296 476 m 685 724 q 686 851 671 810 q 737 910 701 892 q 817 902 782 932 q 868 829 852 872 q 908 745 884 785 q 969 687 931 705 q 977 679 976 684 q 972 669 977 673 q 861 517 879 593 q 939 351 842 441 q 1026 222 1008 285 q 975 102 1044 160 q 824 77 911 49 q 643 186 737 105 q 562 253 598 224 q 494 300 526 281 q 487 308 488 303 q 491 318 486 313 q 610 449 553 376 q 680 592 666 521 q 685 724 693 663 "},"W":{"ha":1497,"x_min":34,"x_max":1451,"o":"m 261 469 q 131 528 178 472 q 85 663 84 583 q 150 791 89 742 q 285 846 212 840 q 481 766 408 857 q 559 588 554 675 q 531 429 563 505 q 448 295 500 354 q 435 292 444 290 q 314 291 382 311 q 151 188 246 271 q 148 169 140 178 q 171 170 155 159 q 395 100 290 244 q 556 -8 459 11 q 799 87 652 -28 q 897 77 852 123 q 1099 -16 987 -16 q 1339 110 1211 -15 q 1451 304 1441 208 q 1369 467 1461 400 q 1280 561 1297 518 q 1310 653 1263 604 q 1398 692 1353 682 q 1411 704 1411 694 q 1392 724 1411 713 q 1348 780 1358 745 q 1320 852 1338 814 q 1124 984 1259 972 q 891 907 989 997 q 870 887 884 901 q 853 889 861 879 q 738 986 781 988 q 629 880 695 985 q 612 879 621 870 q 360 982 515 982 q 124 894 220 982 q 34 688 28 806 q 102 505 35 574 q 275 433 169 435 q 434 504 358 430 q 434 520 443 513 q 412 516 425 528 q 261 469 353 465 m 1245 652 q 1250 643 1250 648 q 1246 633 1250 637 q 1182 576 1215 609 q 1223 345 1073 465 q 1339 208 1333 256 q 1316 124 1345 160 q 1212 80 1278 75 q 1042 199 1147 84 q 974 240 1003 233 q 964 246 965 241 q 967 257 962 251 q 1023 432 1030 347 q 940 624 1015 518 q 871 779 873 715 q 915 892 869 842 q 1027 917 960 941 q 1139 807 1095 893 q 1180 724 1159 765 q 1245 652 1202 684 m 645 836 q 645 848 641 842 q 736 916 694 914 q 831 861 779 918 q 831 846 838 852 q 753 678 766 767 q 810 488 740 589 q 893 312 872 398 q 831 155 914 226 q 679 104 743 79 q 547 205 614 128 q 475 271 506 250 q 473 289 465 279 q 604 427 541 349 q 684 589 668 505 q 645 836 711 730 "},"X":{"ha":1001,"x_min":49,"x_max":963,"o":"m 337 529 q 167 543 235 491 q 96 670 98 594 q 149 798 94 745 q 302 851 203 850 q 436 784 386 851 q 494 606 486 718 q 490 596 494 599 q 474 583 479 589 l 391 490 q 399 471 373 471 l 481 471 q 488 468 485 471 q 491 460 492 465 q 483 366 490 433 q 457 239 476 299 q 404 150 438 179 q 315 174 370 121 q 214 207 268 216 q 92 51 160 197 q 94 27 84 33 q 111 31 104 21 q 225 16 140 79 q 351 1 274 -20 q 488 254 429 22 q 499 264 490 264 q 509 254 507 264 q 743 -9 558 41 q 771 -13 756 -14 q 796 -3 787 -12 q 857 60 824 26 q 934 151 899 104 q 932 166 941 160 q 910 165 923 173 q 741 182 829 118 q 636 460 652 246 q 639 468 635 464 q 647 471 643 471 l 776 471 q 806 490 795 471 l 860 583 q 852 602 870 602 l 642 602 q 634 605 637 602 q 631 613 631 608 q 638 684 631 639 q 662 767 645 730 q 706 822 678 805 q 775 807 733 838 q 875 794 825 768 q 963 937 924 821 q 958 961 969 956 q 938 956 946 966 q 830 960 899 909 q 709 952 755 1014 q 630 758 663 890 q 619 750 627 750 q 609 758 611 750 q 514 924 581 861 q 314 987 446 987 q 104 886 183 987 q 49 668 24 785 q 156 508 74 551 q 352 503 238 465 q 366 523 372 509 q 337 529 359 537 "},"Y":{"ha":1190,"x_min":31,"x_max":1154,"o":"m 258 481 q 127 540 174 484 q 81 675 81 596 q 142 808 81 755 q 281 859 203 861 q 477 779 404 869 q 555 602 551 688 q 531 438 558 528 q 461 283 505 349 q 384 195 429 234 q 300 114 340 156 q 294 88 285 98 q 317 89 302 78 q 433 64 365 127 q 558 3 495 7 q 661 56 621 -1 q 704 112 679 80 q 766 184 730 144 q 764 210 777 201 q 736 203 751 219 q 655 151 699 161 q 547 192 611 141 q 478 235 501 224 q 471 243 472 236 q 475 253 471 250 q 594 387 537 309 q 681 602 650 464 q 682 762 699 684 q 690 864 671 819 q 758 916 710 909 q 846 882 817 922 q 887 787 875 842 q 926 685 901 717 q 976 642 951 654 q 982 632 982 637 q 976 622 982 627 q 829 486 856 558 q 869 304 802 413 q 921 -22 983 119 q 645 -173 858 -163 q 448 -133 532 -173 q 294 -16 365 -93 q 274 -11 283 -3 q 273 -29 264 -18 q 435 -165 343 -117 q 653 -216 528 -213 q 810 -192 732 -218 q 964 -111 888 -165 q 1117 101 1084 -18 q 1057 384 1150 221 q 990 574 975 523 q 1133 678 1004 625 q 1153 700 1157 687 q 1133 710 1149 713 q 1067 831 1105 705 q 963 970 1039 922 q 801 996 888 1018 q 699 936 737 979 q 650 838 660 892 q 527 954 606 912 q 357 995 448 995 q 124 905 217 995 q 31 701 31 815 q 98 518 31 587 q 271 446 165 448 q 431 517 355 444 q 431 533 441 526 q 409 529 420 541 q 258 481 349 477 "},"Z":{"ha":925,"x_min":32,"x_max":888,"o":"m 353 576 q 249 617 286 580 q 217 725 212 654 q 275 836 223 796 q 422 877 326 876 q 614 829 544 878 q 678 691 684 779 q 590 539 672 597 q 369 457 507 481 q 343 433 340 453 q 373 418 347 414 q 709 265 577 464 q 762 101 762 184 q 705 -34 762 19 q 553 -79 629 -105 q 383 56 477 -54 q 229 150 310 142 q 41 58 149 159 q 32 29 22 41 q 56 28 42 17 q 130 41 96 58 q 222 -35 163 24 q 431 -156 310 -125 q 743 -50 551 -187 q 850 78 809 -1 q 888 262 890 157 q 825 427 886 357 q 664 524 764 496 q 654 533 654 526 q 661 545 653 541 q 777 626 730 574 q 823 768 823 678 q 727 942 821 869 q 517 1015 633 1015 q 262 948 359 1017 q 157 765 166 878 q 206 598 149 652 q 345 542 264 543 q 373 558 372 542 q 353 576 375 575 "},"[":{"ha":254,"x_min":23,"x_max":218,"o":"m 39 1027 q 23 1010 23 1027 l 23 -50 q 39 -66 23 -66 q 121 -66 69 -66 q 203 -66 172 -66 q 218 -50 218 -66 l 218 -45 q 203 -29 218 -29 l 163 -29 q 148 -14 148 -29 l 148 975 q 163 990 148 990 l 203 990 q 218 1006 218 990 l 218 1010 q 203 1027 218 1027 q 121 1027 172 1027 q 39 1027 69 1027 "},"\\":{"ha":149,"x_min":-254,"x_max":582,"o":"m 561 899 q 545 898 551 906 l -254 -25 q -253 -41 -261 -35 l -233 -58 q -217 -57 -224 -66 l 582 866 q 581 882 589 873 l 561 899 "},"]":{"ha":254,"x_min":23,"x_max":218,"o":"m 203 -66 q 218 -50 218 -66 l 218 1011 q 203 1027 218 1027 q 121 1027 172 1027 q 39 1027 69 1027 q 23 1011 23 1027 l 23 1006 q 39 990 23 990 l 78 990 q 94 975 94 990 l 94 -14 q 78 -29 94 -29 l 39 -29 q 23 -45 23 -29 l 23 -50 q 39 -66 23 -66 q 121 -66 69 -66 q 203 -66 172 -66 "},"^":{"ha":581,"x_min":28,"x_max":541,"o":"m 541 642 q 539 648 541 646 l 294 974 q 285 979 289 979 q 276 974 279 979 l 31 648 q 28 642 28 647 l 28 615 q 35 605 28 607 q 46 606 40 602 l 278 802 q 292 802 284 809 l 524 606 q 535 605 529 602 q 541 615 541 607 l 541 642 "},"_":{"ha":633,"x_min":-12,"x_max":644,"o":"m -1 -157 q -12 -168 -12 -157 l -12 -245 q -1 -257 -12 -257 l 633 -257 q 644 -245 644 -257 l 644 -168 q 633 -157 644 -157 l -1 -157 "},"`":{"ha":694,"x_min":225,"x_max":431,"o":"m 277 840 l 406 715 l 431 715 l 377 876 q 338 955 355 940 q 290 972 317 972 q 225 924 225 972 q 277 840 225 890 "},"a":{"ha":640,"x_min":36,"x_max":604,"o":"m 362 96 q 373 98 367 98 q 380 90 378 94 q 477 -13 400 4 q 495 -24 488 -16 q 518 -24 509 -39 l 519 -23 q 557 50 534 15 q 604 122 580 85 q 604 143 613 137 q 585 137 595 149 q 535 119 558 108 q 513 162 513 131 l 511 472 l 511 473 q 545 530 513 507 q 538 556 571 550 q 332 694 435 577 q 302 692 313 713 q 242 612 276 645 q 168 549 208 578 q 36 308 40 450 q 142 38 32 142 q 184 -16 184 -2 q 190 -28 183 -27 q 210 -20 197 -30 q 286 38 245 6 q 362 96 328 69 m 370 495 q 378 484 378 492 l 372 173 q 373 141 372 151 q 370 134 373 138 q 303 100 331 92 q 302 101 302 101 q 172 330 193 144 q 228 566 156 459 q 271 560 244 593 q 370 495 328 507 "},"b":{"ha":617,"x_min":38,"x_max":587,"o":"m 38 888 q 89 789 68 847 q 109 639 109 731 l 111 228 q 68 138 111 153 q 57 128 58 135 q 71 116 56 121 q 298 -24 224 68 q 323 -24 313 -43 q 384 71 343 18 l 385 70 q 445 129 410 100 q 510 187 481 157 q 587 376 581 259 q 515 593 593 492 q 481 631 500 612 q 460 676 462 651 q 431 685 455 711 q 351 623 394 650 q 266 574 308 596 q 254 573 259 570 q 250 583 250 575 l 248 759 q 275 893 247 859 q 373 930 304 927 q 389 945 390 932 q 372 957 387 958 q 129 819 203 939 q 118 812 124 810 q 109 821 112 813 q 60 903 92 862 q 40 908 50 915 q 38 888 30 901 m 250 537 q 255 547 250 543 q 360 559 331 591 q 432 453 405 508 q 460 330 460 397 q 406 132 460 212 q 404 131 406 131 l 393 118 q 364 115 381 106 l 260 178 q 252 192 252 182 l 250 537 "},"c":{"ha":492,"x_min":40,"x_max":458,"o":"m 231 -20 q 242 -28 231 -27 q 260 -26 254 -30 q 350 35 300 6 q 454 92 399 64 q 458 105 463 96 q 442 106 452 111 q 285 120 363 76 q 174 321 206 164 q 169 504 157 404 q 226 630 181 604 q 250 626 243 640 l 321 479 q 352 467 333 455 q 444 503 393 495 q 448 525 458 505 l 369 685 q 344 702 359 705 q 237 665 289 688 q 144 606 184 642 q 40 312 32 505 q 76 150 44 227 q 186 21 109 74 q 213 5 197 13 q 231 -20 229 -3 "},"d":{"ha":631,"x_min":34,"x_max":607,"o":"m 175 945 q 183 957 185 947 q 164 964 182 966 q 34 819 51 949 l 34 816 q 70 726 39 771 q 163 652 100 680 q 213 629 187 640 q 264 608 239 618 q 271 600 270 605 q 267 589 271 592 q 132 543 199 534 q 110 521 110 545 l 111 239 q 68 149 111 165 q 61 137 60 145 q 72 127 62 129 q 281 -11 243 79 q 306 -11 287 -24 q 374 28 336 9 q 441 72 413 47 l 442 73 q 548 197 503 116 q 607 401 593 279 l 607 403 q 487 651 593 566 q 239 789 382 736 q 238 790 239 790 q 158 825 192 799 q 123 882 123 851 q 175 945 121 930 m 307 589 q 370 555 351 568 q 487 339 473 482 q 440 111 501 197 q 408 102 425 92 l 261 189 q 253 203 253 193 l 250 538 q 264 562 250 552 l 296 587 q 307 589 301 591 "},"e":{"ha":503,"x_min":40,"x_max":467,"o":"m 231 -19 q 242 -28 231 -26 q 260 -25 254 -29 q 350 36 300 7 q 454 93 399 65 q 459 105 463 97 q 442 107 456 113 q 287 120 365 77 q 176 313 209 162 q 182 326 174 321 l 460 433 l 462 433 q 467 456 473 438 l 369 686 q 344 703 361 706 q 237 666 289 688 q 144 607 184 643 q 40 313 32 506 q 76 151 44 227 q 186 22 109 75 q 213 5 197 14 q 231 -19 229 -3 m 168 364 q 172 526 158 444 q 226 631 186 608 q 250 627 244 642 l 333 424 q 327 410 337 414 l 182 355 q 172 356 176 353 q 168 364 168 359 "},"f":{"ha":339,"x_min":-13,"x_max":401,"o":"m 222 686 q 206 693 214 686 q 151 731 193 708 q 122 826 108 753 q 215 863 136 899 q 336 850 297 823 q 399 954 375 877 q 401 981 408 979 q 387 968 395 983 q 329 955 370 942 q 238 984 288 967 q 119 948 149 1013 q 94 786 89 882 q 68 687 98 725 q -5 642 39 649 q -13 630 -13 640 q -2 621 -12 621 l 77 621 q 114 206 96 413 q 149 -208 132 -1 q 162 -233 151 -233 q 176 -210 173 -233 l 244 504 q 246 610 250 572 q 249 618 245 614 q 257 622 252 622 l 339 622 q 350 633 350 622 l 350 675 q 339 686 350 686 l 222 686 "},"g":{"ha":646,"x_min":39,"x_max":566,"o":"m 404 83 q 418 78 414 88 l 419 77 q 420 75 420 77 q 444 -119 456 -35 q 349 -239 432 -204 q 203 -177 253 -278 q 118 -115 166 -106 q 81 -140 94 -119 q 81 -186 68 -162 q 311 -276 138 -293 q 514 -165 412 -266 q 555 159 616 -64 l 554 159 l 554 160 q 510 353 517 258 q 566 540 503 448 q 553 562 583 554 q 336 701 437 585 q 305 699 317 720 q 245 618 279 652 q 171 555 210 585 q 70 446 109 507 q 39 315 32 384 q 60 191 47 243 q 117 75 73 138 q 143 23 132 52 q 154 -18 155 -6 q 159 -30 153 -28 q 179 -22 165 -32 q 286 34 218 6 q 404 83 355 61 m 443 462 q 448 446 454 456 q 379 282 386 362 q 400 123 372 201 q 395 111 402 114 q 297 82 335 72 l 296 82 l 296 83 q 212 178 239 105 q 174 336 184 250 q 231 573 159 466 q 275 567 250 603 q 275 566 275 566 l 276 565 q 353 510 300 543 q 443 462 405 477 "},"h":{"ha":616,"x_min":37,"x_max":587,"o":"m 37 892 q 88 793 68 851 q 109 643 108 734 l 110 190 q 67 100 111 115 q 71 78 47 90 q 202 -20 142 45 q 227 -20 218 -36 q 279 49 245 18 q 346 117 313 80 q 346 131 353 124 q 329 132 338 138 q 313 119 320 126 q 296 109 305 111 q 252 154 252 99 l 249 564 q 255 574 249 572 q 338 574 308 600 q 418 449 396 524 q 444 288 440 373 q 356 -31 453 70 q 163 -216 258 -131 q 158 -234 151 -226 q 182 -230 166 -241 q 446 4 301 -149 q 587 356 591 157 q 492 608 584 492 q 458 647 477 627 q 437 692 440 667 q 409 701 434 726 q 339 646 377 670 q 264 601 302 621 q 254 601 259 597 q 248 610 248 604 l 247 762 q 299 906 246 869 q 423 939 352 943 q 440 951 440 937 q 422 965 440 964 q 251 934 336 972 q 127 825 167 896 q 117 820 123 819 q 107 827 109 820 q 59 907 89 869 q 39 912 49 919 q 37 892 28 905 "},"i":{"ha":379,"x_min":27,"x_max":341,"o":"m 112 159 q 143 54 112 96 q 235 -18 174 12 q 267 -9 254 -28 q 302 55 285 22 q 340 119 320 87 q 341 142 351 135 q 324 136 331 149 q 275 121 305 104 q 250 206 250 137 l 250 493 q 263 548 250 532 q 294 572 277 565 q 303 580 302 572 q 291 593 305 587 q 214 648 241 622 q 158 709 186 674 q 133 709 144 722 q 84 635 108 673 q 31 561 60 598 q 27 534 18 544 q 48 537 37 525 l 75 565 q 103 552 87 578 q 107 531 107 544 l 112 159 m 210 964 q 150 944 178 964 q 119 892 121 923 q 130 821 117 859 q 167 782 142 782 q 233 818 191 781 q 279 892 275 855 q 210 964 286 964 "},"j":{"ha":337,"x_min":-72,"x_max":312,"o":"m 91 530 l 93 -46 q 53 -187 93 -149 q -55 -226 12 -226 q -72 -238 -72 -226 q -55 -252 -72 -251 q 99 -213 28 -254 q 210 -103 170 -171 q 220 -98 214 -98 q 230 -104 227 -98 q 258 -149 241 -127 q 290 -190 275 -171 q 312 -196 301 -203 q 311 -175 323 -189 q 252 -81 273 -137 q 233 60 231 -24 l 233 513 q 246 569 233 551 q 278 591 259 587 q 287 600 286 592 q 275 612 289 607 q 197 666 224 639 q 142 728 170 692 q 117 729 129 743 q 68 655 92 692 q 15 581 45 618 q 11 555 1 566 q 32 557 21 545 l 59 585 q 85 570 71 598 q 91 530 90 562 m 194 984 q 133 963 161 984 q 103 911 105 943 q 114 840 101 879 q 151 802 126 802 q 217 838 175 801 q 262 911 258 875 q 194 984 271 984 "},"k":{"ha":451,"x_min":28,"x_max":420,"o":"m 28 577 q 43 568 27 568 l 104 568 q 118 554 118 568 l 119 185 q 105 130 119 146 q 74 107 91 113 q 67 95 66 104 q 78 85 67 87 q 179 49 146 73 q 245 -20 211 26 q 270 -20 262 -34 q 379 136 308 57 q 378 151 387 144 q 361 150 368 158 q 315 117 330 110 l 266 145 q 256 173 256 151 l 256 555 q 266 568 256 568 l 403 568 q 414 579 414 568 l 414 623 q 403 633 414 633 l 286 633 q 269 648 270 633 q 277 677 267 663 q 406 720 332 730 q 418 731 418 717 l 418 851 q 404 862 418 863 q 278 748 319 838 q 265 742 273 739 q 256 753 256 744 q 297 901 256 863 q 404 940 337 940 q 420 952 421 940 q 404 966 418 965 q 251 927 321 968 q 139 817 180 885 q 129 812 136 812 q 119 819 123 812 q 91 863 108 842 q 59 904 75 885 q 37 909 46 917 q 39 889 27 901 q 88 817 68 859 q 115 711 107 776 q 100 624 117 649 q 42 589 83 600 q 28 577 29 587 "},"l":{"ha":379,"x_min":35,"x_max":418,"o":"m 35 891 q 94 797 73 853 q 115 643 115 741 l 116 187 q 102 132 116 149 q 71 109 88 115 q 64 97 64 106 q 75 87 64 89 q 174 50 139 75 q 243 -18 210 25 q 267 -18 259 -32 q 376 138 305 59 q 377 156 388 151 q 359 152 366 162 q 312 119 329 113 l 263 147 q 253 175 253 153 l 254 762 q 294 903 254 865 q 401 942 334 942 q 418 955 418 942 q 401 968 417 967 q 248 929 319 970 q 136 819 176 887 q 126 814 133 814 q 117 821 120 814 q 89 865 105 844 q 56 906 72 887 q 35 909 43 918 q 35 891 26 901 "},"m":{"ha":985,"x_min":45,"x_max":941,"o":"m 275 533 l 276 538 l 279 543 l 336 586 q 400 570 368 612 q 426 485 426 535 l 427 245 q 382 120 430 135 q 377 110 377 115 q 382 101 377 104 q 485 -20 446 56 q 494 -26 487 -26 q 505 -20 500 -26 q 604 102 545 59 q 609 111 609 106 q 604 120 609 115 q 563 245 563 134 l 564 532 q 574 550 564 542 q 628 593 584 559 q 644 592 636 597 l 701 545 q 712 517 712 537 l 711 161 q 742 58 711 101 q 835 -16 773 14 q 865 -7 853 -26 q 902 57 884 25 q 941 121 920 90 q 940 145 950 138 q 924 139 930 152 q 875 124 905 106 q 849 209 849 140 l 849 504 q 863 559 849 543 q 894 583 876 576 q 901 595 901 583 q 890 604 901 602 q 792 641 821 616 q 722 709 763 666 q 698 709 705 727 q 648 649 684 681 q 576 587 612 616 q 566 583 572 583 q 558 592 561 583 q 439 709 537 661 q 410 701 420 720 q 358 645 395 677 q 288 583 321 612 q 277 582 283 580 q 270 589 272 583 q 152 709 250 661 l 151 709 q 121 701 132 721 q 84 636 102 669 q 46 572 66 604 q 45 548 35 554 q 62 555 55 541 q 111 570 81 589 q 137 485 137 554 l 137 245 q 93 120 138 135 q 88 111 88 116 q 92 101 88 105 q 195 -20 156 57 q 205 -26 199 -26 q 216 -20 212 -26 q 315 102 255 58 q 319 111 319 105 q 315 120 319 116 q 274 245 273 135 l 275 533 "},"n":{"ha":700,"x_min":42,"x_max":659,"o":"m 271 245 l 271 515 q 275 523 271 519 l 346 578 q 361 577 354 583 l 419 530 l 419 528 l 420 528 q 430 502 430 522 l 429 155 q 553 -22 429 37 q 583 -14 571 -33 q 620 51 602 18 q 658 115 637 83 q 658 138 668 131 q 641 132 648 145 q 593 117 623 99 q 567 202 567 133 l 567 489 q 581 544 567 528 q 612 568 594 561 q 620 578 621 570 q 608 589 620 586 q 510 626 538 601 q 440 694 481 651 q 416 694 423 712 q 362 631 401 665 q 286 565 323 596 q 275 562 280 561 q 268 571 269 564 q 149 694 248 644 l 148 694 q 117 686 128 706 q 80 621 98 654 q 43 557 62 589 q 42 534 33 541 q 59 541 52 526 q 108 555 78 574 q 134 470 134 539 l 134 245 q 90 119 134 136 q 85 109 85 115 q 89 100 85 103 q 192 -22 154 55 q 202 -27 196 -27 q 212 -22 208 -27 q 311 101 250 55 q 316 110 316 104 q 311 119 316 115 q 271 245 270 136 "},"o":{"ha":574,"x_min":-1,"x_max":539,"o":"m 262 -12 q 342 76 291 46 q 437 149 393 106 q 503 230 474 186 q 539 328 532 273 q 522 446 544 375 q 467 557 500 516 q 395 701 406 627 q 389 710 394 709 q 378 708 384 711 q 57 610 237 625 q 48 605 50 609 q 47 597 45 602 q 48 585 48 593 l 50 239 q 7 149 50 164 q -1 138 -1 146 q 11 127 -1 131 q 237 -12 163 81 q 262 -12 252 -29 m 189 594 q 196 606 189 603 q 237 618 216 611 q 245 618 241 621 q 252 612 250 616 q 332 479 279 533 q 387 395 365 443 q 410 288 409 348 q 352 121 416 191 q 319 115 337 103 l 199 189 q 191 203 191 193 l 189 594 "},"p":{"ha":626,"x_min":5,"x_max":596,"o":"m 118 803 q 119 820 127 812 q 98 814 110 827 q 17 689 28 750 q 68 576 7 627 q 97 548 83 564 q 113 501 111 532 q 118 394 115 438 q 121 249 121 350 l 121 228 q 111 217 121 217 q 5 100 5 210 q 11 88 5 90 q 24 92 18 85 q 121 98 52 123 q 128 88 127 96 q 148 -91 135 2 q 174 -267 160 -184 q 185 -276 176 -275 q 197 -267 194 -276 q 223 -125 211 -195 q 244 19 236 -54 q 249 28 244 26 q 260 28 254 31 q 294 8 277 18 q 328 -12 311 -1 q 343 -9 336 -18 q 496 149 397 65 q 596 368 587 225 q 522 579 606 485 q 479 630 500 604 q 452 692 458 656 q 445 701 450 698 q 434 699 439 703 q 257 579 343 629 q 247 579 252 577 q 241 588 241 581 q 218 653 237 625 q 140 699 199 682 q 92 742 95 713 q 118 803 88 772 m 252 189 q 252 245 252 226 l 243 514 q 242 538 243 530 q 249 549 242 545 q 373 541 337 591 q 437 432 408 489 q 465 302 467 374 q 446 185 464 232 q 408 106 429 138 q 393 102 403 98 q 326 141 359 121 q 258 178 293 161 q 252 189 252 180 "},"q":{"ha":597,"x_min":26,"x_max":559,"o":"m 358 106 q 370 108 364 111 q 376 98 375 105 q 394 -75 378 8 q 430 -273 410 -157 q 440 -285 431 -285 q 451 -273 449 -286 q 493 -87 477 -151 q 507 124 509 -23 l 500 400 q 507 480 499 441 q 558 535 515 519 q 559 549 566 538 q 546 553 553 555 l 544 552 q 430 604 490 562 q 322 700 370 645 q 292 699 303 720 q 232 618 266 651 q 158 555 197 585 q 26 314 30 456 q 132 44 22 148 q 174 -10 174 4 q 180 -22 173 -21 q 199 -14 187 -24 q 280 47 236 14 q 358 106 323 80 m 263 564 q 363 491 316 515 q 368 483 368 490 q 373 343 370 433 q 376 162 375 254 q 374 155 376 158 q 320 105 334 109 q 292 107 306 102 q 161 336 183 151 q 218 572 146 465 q 261 566 238 602 l 263 564 "},"r":{"ha":504,"x_min":37,"x_max":475,"o":"m 266 509 q 269 515 266 513 l 300 554 q 311 558 305 559 q 319 553 317 557 l 374 451 q 382 445 376 446 q 393 449 388 444 l 474 547 q 475 558 478 552 l 404 694 q 395 700 401 700 q 386 696 390 701 l 281 576 q 271 572 277 570 q 262 581 264 574 q 143 703 243 654 q 113 695 124 715 q 76 630 94 663 q 38 566 58 597 q 37 543 28 550 q 54 549 47 535 q 103 564 73 583 q 129 479 129 548 l 129 192 q 84 114 130 121 q 75 103 75 111 q 87 92 75 96 q 184 54 151 77 q 255 -13 217 31 q 280 -13 269 -28 q 389 143 318 64 q 389 160 399 155 q 372 157 379 165 q 325 123 340 114 l 276 152 q 265 180 265 158 l 266 509 "},"s":{"ha":580,"x_min":35,"x_max":545,"o":"m 263 840 q 246 822 243 836 q 267 814 250 808 q 429 808 355 844 q 500 741 478 781 q 503 663 522 701 q 424 627 485 627 q 273 709 363 628 q 258 712 264 717 q 166 632 215 668 q 79 554 118 597 q 36 448 38 508 q 100 318 33 387 q 136 268 126 290 q 115 218 146 246 q 76 180 96 199 q 38 142 56 161 q 40 122 26 127 q 190 68 119 96 q 269 3 260 40 q 300 0 275 -24 q 402 103 351 52 q 500 212 454 155 q 520 307 534 253 q 414 441 506 361 q 420 499 385 467 q 457 530 437 515 q 508 572 477 545 q 545 656 538 600 q 521 758 551 712 q 437 829 491 803 q 263 840 358 865 m 155 231 l 250 329 q 309 342 285 357 q 420 166 462 233 q 352 127 386 113 q 255 170 303 148 q 159 214 207 191 q 155 231 148 220 m 248 372 q 139 473 184 425 q 140 576 94 522 q 199 603 176 618 q 297 545 222 588 q 382 515 344 519 q 393 509 391 515 q 389 496 395 503 l 263 373 q 248 372 256 366 "},"t":{"ha":429,"x_min":20,"x_max":401,"o":"m 260 553 q 269 564 260 564 l 387 564 q 398 575 397 564 l 401 626 q 397 635 401 630 q 389 638 394 638 l 272 638 q 262 642 267 638 q 262 652 260 646 q 300 765 269 703 q 363 865 332 827 q 362 882 371 876 q 345 878 354 888 q 192 724 276 805 q 26 585 107 642 q 20 572 17 579 q 32 564 22 564 l 112 564 q 122 552 123 564 l 123 185 q 78 107 123 118 q 70 96 69 104 q 81 85 71 87 q 178 47 146 70 q 249 -20 211 25 q 274 -20 262 -34 q 383 136 311 57 q 382 153 393 146 q 366 150 372 159 q 318 117 332 105 l 269 145 q 259 173 259 152 l 260 553 "},"u":{"ha":700,"x_min":41,"x_max":658,"o":"m 429 168 q 425 159 429 161 q 353 103 408 146 q 338 104 345 98 l 279 153 q 269 179 269 159 l 271 526 q 148 703 271 638 l 147 703 q 117 695 128 715 q 80 630 98 663 q 42 567 62 597 q 41 543 32 551 q 58 549 51 536 q 107 564 77 582 q 133 479 133 548 l 133 192 q 119 137 133 153 q 88 114 105 120 q 79 104 80 111 q 92 92 79 97 q 186 55 151 78 q 259 -12 222 32 q 284 -12 273 -28 q 337 51 298 16 q 414 116 376 85 q 424 118 417 120 q 432 111 431 116 q 551 -12 450 37 q 583 -4 571 -24 q 619 60 601 27 q 657 123 637 92 q 657 147 667 140 q 640 141 648 154 q 592 126 621 107 q 566 212 566 142 l 566 450 q 610 576 565 564 q 615 585 615 579 q 610 595 615 591 q 507 716 543 638 q 497 722 504 722 q 488 716 490 722 q 388 594 448 637 q 383 585 383 590 q 388 576 383 580 q 429 450 429 564 l 429 168 "},"v":{"ha":627,"x_min":0,"x_max":589,"o":"m 84 71 q 203 46 139 89 q 304 -21 267 3 q 319 -18 312 -26 q 397 72 350 24 q 488 159 444 120 q 589 383 578 235 q 515 600 597 503 q 471 652 492 625 q 444 715 450 678 q 437 725 444 723 q 426 722 431 727 q 319 644 373 681 q 205 574 265 607 q 191 578 196 570 q 113 667 163 617 q 120 766 73 709 q 121 781 128 775 q 105 778 114 787 q 0 624 16 688 q 94 448 -16 560 q 158 290 159 382 q 80 95 158 199 q 70 75 68 84 q 84 71 71 66 m 207 182 q 200 190 201 184 q 201 199 199 196 q 256 353 242 271 q 214 541 272 440 q 218 556 209 551 q 365 561 326 618 q 429 448 400 507 q 458 315 458 389 q 430 187 456 243 q 385 98 404 131 q 370 94 378 88 q 286 143 333 115 q 207 182 243 169 "},"w":{"ha":957,"x_min":47,"x_max":920,"o":"m 591 576 q 581 574 585 573 q 575 582 577 576 q 462 688 551 644 q 460 689 460 688 q 430 681 441 701 q 372 618 414 654 q 296 552 330 581 q 283 550 288 547 q 277 560 277 553 q 254 637 274 604 q 170 690 233 670 q 121 733 124 703 q 148 793 118 762 q 149 810 157 803 q 127 804 140 817 q 47 679 58 741 q 98 567 37 618 q 126 538 112 555 q 142 492 141 522 q 144 366 144 429 l 144 239 q 100 113 144 134 q 94 104 94 110 q 100 95 94 98 q 202 -27 165 48 q 212 -33 206 -33 q 222 -27 217 -34 q 322 96 256 47 q 326 104 326 98 q 322 113 326 110 q 280 239 280 132 q 279 370 280 304 q 279 500 279 435 q 283 510 279 506 l 356 566 q 420 549 389 591 q 442 503 441 524 l 442 503 q 442 368 440 435 q 444 233 444 300 q 401 143 444 158 q 394 133 394 140 q 404 121 394 126 q 631 -18 558 74 q 656 -18 648 -37 q 711 66 680 27 q 779 134 743 106 q 843 193 814 162 q 920 382 913 264 q 848 598 928 494 q 814 637 833 617 q 793 682 795 656 q 764 690 788 715 q 682 629 732 659 q 591 576 632 598 m 584 433 q 585 543 585 524 q 590 553 583 551 q 616 567 606 562 q 693 564 669 591 q 766 458 739 513 q 794 336 794 403 q 738 136 794 218 l 726 123 q 698 121 715 112 l 593 183 q 585 197 585 187 q 584 433 585 276 "},"x":{"ha":547,"x_min":48,"x_max":517,"o":"m 307 524 q 310 530 307 528 l 342 569 q 352 573 346 574 q 360 568 358 572 l 416 466 q 434 464 425 452 l 516 562 q 517 573 520 567 l 446 709 q 437 715 442 715 q 427 711 431 715 l 323 591 q 312 587 318 585 q 304 595 306 589 q 185 718 284 669 q 153 710 165 730 q 117 645 135 677 q 79 581 99 612 q 78 557 68 565 q 96 564 88 550 q 144 578 115 598 q 170 494 170 563 l 171 212 q 144 130 170 149 q 78 75 101 106 q 48 -6 56 43 q 138 -212 29 -136 q 409 -246 246 -288 q 450 -218 437 -239 q 452 -172 463 -196 q 399 -139 433 -138 q 341 -165 365 -139 q 298 -197 318 -191 q 148 -173 219 -222 q 75 -38 76 -125 q 102 19 73 -9 q 171 46 130 47 q 230 23 200 47 q 275 -16 260 -1 q 289 -23 282 -24 q 299 -16 296 -22 q 357 73 317 21 q 431 158 396 124 q 431 173 439 166 q 413 172 422 180 q 366 139 380 132 l 317 167 q 307 195 307 173 l 307 524 "},"y":{"ha":650,"x_min":41,"x_max":620,"o":"m 282 595 q 272 596 277 593 q 266 604 267 599 q 240 662 260 637 q 167 703 220 687 q 118 746 121 717 q 145 807 115 776 q 145 824 154 817 q 123 818 136 831 q 42 692 54 754 q 90 580 29 631 q 118 551 104 568 q 134 504 133 535 q 135 350 136 429 q 133 193 133 271 q 90 104 134 119 q 81 94 81 101 q 94 81 81 86 q 176 36 159 51 q 225 -16 193 21 q 250 -16 243 -32 q 302 53 270 20 q 369 120 334 85 q 370 137 379 130 q 350 136 361 144 l 319 112 q 275 157 277 95 q 273 338 274 248 q 271 559 272 428 q 276 569 271 566 q 370 578 338 604 q 450 452 428 528 q 477 291 473 376 q 389 -27 486 73 q 195 -212 291 -127 q 192 -229 184 -221 q 215 -227 199 -237 q 479 7 334 -146 q 620 359 624 160 q 526 612 616 496 q 491 650 510 631 q 470 695 472 670 q 441 704 465 729 q 365 644 406 670 q 282 595 323 618 "},"z":{"ha":463,"x_min":38,"x_max":429,"o":"m 90 561 q 178 580 140 590 q 231 520 216 570 q 190 414 246 471 q 58 313 133 357 q 62 290 32 297 q 167 257 122 281 q 169 239 180 252 q 38 -50 38 113 q 91 -197 38 -138 q 203 -255 144 -255 q 356 -159 281 -255 q 429 54 431 -63 q 398 220 427 166 q 317 312 369 273 q 318 330 304 322 q 419 387 355 356 q 427 403 431 393 q 404 405 422 412 q 290 338 345 376 q 278 336 285 334 q 211 366 248 353 q 203 375 203 369 q 208 385 202 381 q 349 520 302 448 q 283 678 395 592 q 258 689 269 688 q 245 706 248 690 q 231 719 241 718 q 208 705 220 721 q 144 641 177 671 q 79 581 111 611 q 72 563 68 572 q 90 561 76 553 m 203 -231 q 121 -176 144 -231 q 97 -51 97 -122 q 193 227 98 117 q 208 228 200 236 q 301 12 288 158 q 282 -176 313 -122 q 203 -231 252 -231 "},"{":{"ha":460,"x_min":27,"x_max":399,"o":"m 399 -22 l 399 -2 q 394 2 399 0 q 382 5 389 5 q 267 134 267 35 q 270 168 267 144 q 279 227 273 192 q 289 286 286 261 q 292 321 292 311 q 241 447 292 387 l 241 446 q 190 490 220 470 q 123 526 159 511 q 252 609 212 559 q 292 728 292 659 q 289 764 292 739 q 279 823 286 789 q 270 882 273 858 q 267 916 267 905 q 382 1043 267 1015 q 394 1046 389 1044 q 399 1050 399 1048 l 399 1071 q 392 1077 399 1074 q 374 1078 385 1079 q 286 1053 327 1072 q 210 1004 244 1034 q 153 931 173 972 q 134 846 134 891 q 147 751 134 825 q 158 692 155 714 q 161 660 161 670 q 153 617 161 636 q 130 584 145 597 q 47 545 92 551 q 33 542 38 544 q 27 537 27 541 l 27 513 q 33 508 27 509 q 47 505 38 506 q 129 465 92 500 q 161 389 161 437 q 158 358 161 380 q 147 299 155 336 q 134 204 134 225 q 205 50 134 121 q 374 -29 268 -14 q 392 -27 385 -30 q 399 -22 399 -25 "},"|":{"ha":220,"x_min":66,"x_max":150,"o":"m 150 -59 l 150 1076 q 144 1081 150 1080 q 130 1083 138 1083 l 85 1083 q 72 1081 77 1083 q 66 1076 66 1080 l 66 -59 q 72 -64 66 -62 q 85 -65 77 -65 l 130 -65 q 144 -64 138 -65 q 150 -59 150 -62 "},"}":{"ha":460,"x_min":27,"x_max":399,"o":"m 27 1071 l 27 1051 q 32 1047 27 1049 q 45 1044 37 1044 q 160 915 160 1014 q 157 881 160 905 q 147 823 153 857 q 138 763 141 788 q 134 728 134 738 q 186 602 134 662 l 186 603 q 237 559 206 579 q 304 523 267 538 q 174 440 214 490 q 134 321 134 391 q 138 286 134 311 q 147 226 141 260 q 157 168 153 191 q 160 134 160 144 q 45 6 160 35 q 32 3 37 5 q 27 -1 27 1 l 27 -22 q 35 -27 27 -25 q 53 -29 42 -30 q 141 -4 100 -23 q 217 45 182 15 q 273 118 254 77 q 293 203 293 158 q 279 298 293 224 q 269 357 272 335 q 266 389 266 379 q 274 432 266 413 q 297 465 281 452 q 380 504 334 498 q 394 507 389 505 q 399 512 399 509 l 399 536 q 394 542 399 540 q 380 544 389 543 q 298 584 334 549 q 266 660 266 612 q 269 691 266 669 q 279 750 272 713 q 293 845 293 824 q 222 999 293 928 q 53 1078 159 1063 q 35 1077 42 1079 q 27 1071 27 1074 "},"~":{"ha":509,"x_min":32,"x_max":477,"o":"m 43 465 q 32 453 32 465 l 32 376 q 43 364 32 364 l 467 364 q 477 376 477 364 l 477 453 q 467 465 477 465 l 43 465 "},"¡":{"ha":279,"x_min":27,"x_max":247,"o":"m 235 609 q 235 628 252 620 q 146 717 176 663 q 127 717 137 736 q 38 628 98 657 q 38 609 19 618 q 127 519 95 580 q 146 519 136 503 q 235 609 182 575 m 247 -169 q 247 -147 265 -157 q 148 373 180 -12 q 126 373 138 395 q 27 -147 94 -18 q 27 -169 6 -158 q 126 -269 91 -201 q 148 -269 136 -286 q 247 -169 188 -206 "},"¢":{"ha":578,"x_min":40,"x_max":537,"o":"m 337 -65 l 337 21 q 378 40 356 31 q 513 102 458 74 q 516 115 522 106 q 500 116 511 121 q 337 117 430 89 l 337 574 l 393 538 q 446 541 427 529 q 537 576 487 569 q 507 597 574 590 l 370 687 q 344 702 359 705 q 337 700 340 701 l 337 747 l 294 747 l 294 687 q 237 665 264 677 q 144 606 184 642 q 40 312 32 505 q 76 150 44 227 q 186 21 109 74 q 213 5 197 13 q 231 -20 229 -3 q 242 -28 231 -27 q 260 -26 254 -30 q 294 -2 275 -14 l 294 -65 l 337 -65 m 226 630 q 253 627 243 640 l 294 601 l 294 134 q 174 321 203 179 q 169 504 157 404 q 226 630 181 604 "},"£":{"ha":794,"x_min":27,"x_max":756,"o":"m 382 418 q 367 427 374 418 q 363 446 360 435 q 365 494 370 471 q 305 644 346 578 q 265 717 283 679 q 248 798 248 755 q 302 908 248 861 q 441 955 356 955 q 581 882 529 949 q 626 695 633 815 q 557 557 620 593 q 425 549 494 521 q 401 544 407 556 q 418 521 395 531 q 646 519 538 460 q 755 707 754 578 q 444 985 758 984 q 209 922 302 985 q 87 755 117 859 q 87 646 72 704 q 138 538 102 589 q 197 446 169 492 q 201 427 205 437 q 186 418 197 417 l 83 418 q 52 392 52 418 q 83 365 52 365 l 208 365 q 217 363 212 365 q 225 359 221 362 q 230 354 229 357 q 230 347 231 351 q 205 298 225 323 q 121 211 158 238 q 45 169 83 184 q 27 146 23 161 q 49 137 32 132 q 152 142 102 159 q 253 83 202 124 q 425 -6 347 7 q 566 2 503 -20 q 676 72 629 24 q 756 167 723 119 q 753 190 766 183 q 729 182 740 197 q 594 112 682 113 q 426 177 505 111 q 247 280 343 246 q 238 288 239 282 q 243 300 237 294 q 302 352 278 327 q 320 363 309 361 q 340 365 330 365 l 469 365 q 503 392 503 365 q 469 418 503 418 l 383 418 l 382 418 "},"¤":{"ha":926,"x_min":90,"x_max":837,"o":"m 94 164 l 136 121 l 263 248 q 465 176 361 176 q 665 250 573 176 l 794 121 l 837 164 l 708 293 q 781 491 781 387 q 709 690 781 597 l 836 817 l 792 860 l 665 734 q 463 808 570 808 q 260 733 357 808 l 133 861 l 90 817 l 218 689 q 145 492 145 596 q 220 291 145 383 l 94 164 m 460 742 q 640 668 565 742 q 711 491 711 597 q 639 316 711 389 q 463 243 566 243 q 287 316 360 243 q 214 492 214 389 q 286 668 214 595 q 460 742 360 742 "},"¥":{"ha":796,"x_min":33,"x_max":769,"o":"m 73 561 l 73 503 l 254 503 l 294 408 l 294 351 l 73 351 l 73 292 l 294 292 l 294 46 l 212 46 l 212 0 l 595 0 l 595 46 l 513 46 l 513 292 l 729 292 l 729 351 l 513 351 l 513 438 l 539 503 l 729 503 l 729 561 l 564 561 l 649 768 q 684 838 653 781 q 721 876 703 871 q 769 880 728 878 l 769 926 l 547 926 l 547 880 q 597 877 587 880 q 621 833 621 870 q 595 755 621 819 l 492 506 l 336 880 l 395 880 l 395 926 l 33 926 l 33 880 l 96 880 l 230 561 l 73 561 "},"¦":{"ha":694,"x_min":310,"x_max":384,"o":"m 310 926 l 310 470 l 384 470 l 384 926 l 310 926 m 310 213 l 310 -231 l 384 -231 l 384 213 l 310 213 "},"§":{"ha":655,"x_min":50,"x_max":616,"o":"m 545 908 q 464 973 515 948 q 328 999 412 998 q 153 955 219 999 q 75 838 87 911 q 84 732 64 774 q 159 656 104 690 q 164 649 163 654 q 161 640 164 642 q 107 583 138 618 q 59 508 76 548 q 50 428 41 469 q 115 353 58 387 q 209 310 148 333 q 332 260 271 287 q 441 202 394 233 q 493 136 488 171 q 453 59 498 89 q 334 31 408 30 q 212 96 175 31 q 228 145 222 117 q 223 194 233 172 q 191 218 216 207 q 136 228 165 230 q 74 170 75 222 q 96 85 72 117 q 177 20 125 45 q 338 -4 228 -4 q 521 37 446 -4 q 609 153 595 79 q 590 259 620 216 q 507 337 560 303 q 502 345 503 340 q 505 354 500 351 q 558 411 527 376 q 607 485 589 446 q 615 565 624 525 q 550 640 607 606 q 455 683 517 660 q 333 733 394 706 q 233 789 271 760 q 191 854 195 818 q 221 932 185 900 q 332 964 257 964 q 430 897 466 962 q 413 848 418 876 q 418 800 408 820 q 450 774 425 785 q 505 765 475 762 q 567 823 566 770 q 545 908 568 876 m 218 624 q 352 565 280 593 q 490 502 425 536 q 506 439 528 481 q 461 372 484 396 q 448 369 455 366 q 313 429 385 400 q 176 492 241 457 q 160 555 138 512 q 205 622 182 597 q 218 624 210 628 "},"¨":{"ha":640,"x_min":120,"x_max":571,"o":"m 211 984 q 150 963 178 984 q 120 911 122 943 q 130 840 117 879 q 168 802 143 802 q 234 838 192 801 q 279 911 275 875 q 211 984 286 984 m 503 984 q 442 963 470 984 q 412 911 414 943 q 422 840 409 879 q 459 802 435 802 q 525 838 484 801 q 571 911 567 875 q 503 984 578 984 "},"©":{"ha":1138,"x_min":58,"x_max":1063,"o":"m 560 903 q 712 873 642 903 q 842 785 783 844 q 931 655 901 726 q 960 503 960 585 q 931 350 960 420 q 842 221 901 280 q 713 133 783 162 q 560 104 644 104 q 407 134 478 104 q 278 221 336 163 q 190 350 219 280 q 160 503 160 420 q 190 655 160 585 q 278 785 219 726 q 408 873 337 844 q 560 903 478 903 m 560 1007 q 368 970 457 1007 q 205 859 279 932 q 94 696 131 785 q 58 503 58 607 q 94 311 58 399 q 205 149 131 222 q 368 37 279 75 q 560 0 457 0 q 752 37 663 0 q 916 149 842 75 q 1026 311 989 222 q 1063 503 1063 399 q 1026 696 1063 607 q 916 859 989 785 q 752 970 842 932 q 560 1007 663 1007 m 315 356 l 414 410 q 477 352 437 374 q 563 330 516 330 q 632 344 600 330 q 688 382 665 358 q 726 438 712 406 q 740 507 740 471 q 726 576 740 544 q 688 633 712 609 q 632 671 665 657 q 563 685 600 685 q 471 660 512 685 q 408 594 431 635 l 310 640 q 354 700 328 673 q 413 747 380 728 q 483 778 446 767 q 561 789 520 789 q 672 766 620 789 q 763 705 724 744 q 824 614 802 666 q 846 503 846 562 q 824 391 846 444 q 763 300 802 339 q 672 239 724 261 q 561 216 620 216 q 485 227 522 216 q 417 255 449 237 q 360 299 386 273 q 315 356 334 325 "},"ª":{"ha":500,"x_min":28,"x_max":484,"o":"m 290 365 q 298 366 294 367 q 304 360 302 363 q 382 278 320 292 q 396 269 390 276 q 414 269 407 257 l 415 270 q 446 329 427 300 q 484 386 464 357 q 483 402 490 398 q 468 398 476 407 q 428 384 446 374 q 410 418 410 393 l 408 666 l 408 667 q 436 713 411 694 q 431 733 457 728 q 266 843 349 750 q 242 842 251 859 q 194 778 221 804 q 134 727 166 751 q 28 534 32 648 q 114 319 26 401 q 148 275 148 287 q 152 266 146 267 q 168 272 158 264 q 229 318 196 293 q 290 365 262 344 m 296 684 q 302 675 302 682 l 298 427 q 298 401 298 409 q 296 395 298 398 q 243 368 264 361 q 241 369 242 369 q 137 552 155 404 q 182 741 125 656 q 217 736 195 762 q 296 684 262 694 m 43 205 q 32 194 32 205 l 32 117 q 43 105 32 105 l 467 105 q 477 117 477 105 l 477 194 q 467 205 477 205 l 43 205 "},"«":{"ha":676,"x_min":15,"x_max":648,"o":"m 352 648 q 345 646 347 648 l 20 401 q 15 392 15 396 q 20 383 15 387 l 345 138 q 352 136 347 136 l 378 136 q 389 142 387 136 q 387 153 391 147 l 192 385 q 192 399 184 391 l 387 631 q 389 642 391 636 q 378 648 387 648 l 352 648 m 611 648 q 604 646 606 648 l 279 401 q 274 392 274 396 q 279 383 274 387 l 604 138 q 611 136 606 136 l 637 136 q 648 142 646 136 q 646 153 650 147 l 451 385 q 451 399 444 391 l 646 631 q 648 642 650 636 q 637 648 646 648 l 611 648 "},"¬":{"ha":694,"x_min":46,"x_max":648,"o":"m 574 0 l 648 0 l 648 370 l 46 370 l 46 303 l 574 303 l 574 0 "},"­":{"ha":538,"x_min":32,"x_max":510,"o":"m 43 465 q 32 453 32 465 l 32 376 q 43 364 32 364 l 499 364 q 510 376 510 364 l 510 453 q 499 465 510 465 l 43 465 "},"®":{"ha":746,"x_min":66,"x_max":654,"o":"m 360 946 q 449 929 408 946 q 525 877 490 912 q 577 801 559 842 q 594 712 594 760 q 577 623 594 664 q 525 547 559 582 q 450 496 491 513 q 360 479 409 479 q 271 496 312 479 q 195 547 229 513 q 143 623 161 582 q 126 712 126 664 q 143 801 126 760 q 195 877 161 842 q 271 929 230 911 q 360 946 312 946 m 338 829 q 385 819 370 829 q 400 789 400 809 q 384 757 400 768 q 338 747 368 747 l 323 747 l 323 829 l 338 829 m 353 884 l 239 884 l 239 552 l 323 552 l 323 694 l 328 694 q 351 681 340 694 q 378 637 363 668 l 420 552 l 511 552 l 467 640 q 442 679 456 663 q 412 703 428 694 q 470 732 450 710 q 491 789 491 755 q 456 860 491 837 q 353 884 422 884 m 360 1007 q 248 985 300 1007 q 153 920 196 964 q 88 825 109 877 q 66 712 66 773 q 88 600 66 652 q 153 505 109 549 q 248 440 196 462 q 360 418 300 418 q 473 440 420 418 q 568 505 525 462 q 632 600 611 549 q 654 712 654 652 q 632 825 654 773 q 568 920 611 877 q 473 985 525 964 q 360 1007 420 1007 "},"¯":{"ha":700,"x_min":45,"x_max":633,"o":"m 56 905 q 45 894 45 905 l 45 817 q 56 805 45 805 l 622 805 q 633 817 633 805 l 633 894 q 622 905 633 905 l 56 905 "},"°":{"ha":465,"x_min":37,"x_max":428,"o":"m 233 972 q 94 899 151 972 q 37 722 37 825 q 94 544 37 617 q 233 470 151 470 q 371 544 313 470 q 428 722 428 617 q 371 899 428 825 q 233 972 313 972 m 233 930 q 284 869 275 930 q 293 722 293 808 q 284 574 293 635 q 233 513 275 513 q 181 574 189 513 q 173 722 173 635 q 181 869 173 808 q 233 930 189 930 "},"±":{"ha":538,"x_min":32,"x_max":510,"o":"m 220 288 q 232 277 220 277 l 309 277 q 321 288 321 277 l 321 465 l 499 465 q 510 477 510 465 l 510 554 q 499 566 510 566 l 321 566 l 321 744 q 309 755 321 755 l 232 755 q 220 744 220 755 l 220 566 l 43 566 q 32 554 32 566 l 32 477 q 43 465 32 465 l 220 465 l 220 288 m 43 201 q 32 190 32 201 l 32 113 q 43 101 32 101 l 499 101 q 510 113 510 101 l 510 190 q 499 201 510 201 l 43 201 "},"²":{"ha":412,"x_min":10,"x_max":397,"o":"m 18 810 q 33 784 12 785 q 57 802 54 783 q 88 867 64 832 q 121 891 100 882 q 172 901 142 900 q 252 812 229 901 l 252 813 q 258 772 258 791 q 240 693 258 735 q 189 609 222 652 l 12 381 q 10 367 9 374 q 23 359 12 359 l 369 359 q 382 370 380 359 l 397 527 q 382 549 399 545 q 360 533 362 552 q 356 500 359 517 q 353 467 354 484 q 352 467 353 467 l 136 467 q 136 465 134 467 q 135 467 135 465 l 135 467 l 288 615 q 328 658 309 635 q 363 706 347 681 q 391 809 391 749 q 391 822 391 816 q 390 836 391 829 q 205 991 375 991 q 77 936 121 991 q 18 810 33 882 "},"³":{"ha":427,"x_min":12,"x_max":414,"o":"m 35 889 l 35 890 q 31 872 30 880 q 36 861 31 864 q 48 860 41 858 q 64 871 56 861 q 109 910 84 893 q 165 927 133 928 q 210 919 190 926 q 243 895 229 911 q 266 817 270 863 q 251 771 262 792 q 224 737 241 751 q 138 694 189 709 q 121 672 120 689 q 128 660 122 663 q 144 656 134 656 q 198 652 173 658 q 245 635 223 647 q 299 518 289 611 q 300 508 300 513 q 300 498 300 503 q 295 457 300 476 q 281 422 291 438 q 207 380 259 383 q 151 396 168 378 q 133 439 134 414 q 127 468 132 454 q 115 498 123 483 q 68 532 99 532 q 40 525 52 532 q 21 509 28 519 q 13 486 14 498 q 14 459 11 473 q 39 406 22 428 q 81 371 56 385 q 138 351 106 357 q 209 345 170 345 q 351 412 284 346 q 399 486 384 447 q 414 571 415 525 q 305 734 412 694 q 360 779 336 752 q 389 869 393 812 q 371 918 387 896 q 329 958 355 941 q 275 984 303 975 q 218 993 246 993 q 160 985 188 993 q 108 962 132 977 q 65 929 83 947 q 35 889 46 911 "},"´":{"ha":694,"x_min":290,"x_max":496,"o":"m 315 714 l 444 839 q 496 923 496 889 q 431 972 496 972 q 383 954 404 972 q 344 876 366 939 l 290 714 l 315 714 "},"µ":{"ha":689,"x_min":-17,"x_max":647,"o":"m 284 37 q 286 48 284 45 q 293 54 288 51 l 401 115 q 421 111 417 125 q 540 -12 439 37 l 541 -12 q 572 -4 560 -24 q 608 60 590 27 q 646 123 626 92 q 647 147 656 140 q 629 141 637 154 q 581 126 610 107 q 555 212 555 142 l 555 450 q 562 523 555 490 q 599 576 568 556 q 604 585 604 579 q 600 595 604 591 q 496 716 534 640 q 487 722 493 722 q 477 716 479 722 q 377 594 437 637 q 372 585 372 590 q 377 576 372 580 q 415 517 411 551 q 418 450 418 484 l 418 168 q 414 159 418 161 l 296 92 q 287 92 290 89 q 284 100 285 95 l 286 528 q 158 703 291 638 l 157 703 q 127 695 138 715 q 90 630 108 663 q 52 567 72 597 q 52 543 42 551 q 68 549 61 536 q 117 564 87 582 q 143 479 143 548 l 144 -46 q 104 -187 144 -149 q -3 -226 64 -226 q -17 -243 -20 -226 q -3 -252 -14 -252 q 151 -213 79 -254 q 262 -103 222 -171 q 272 -98 265 -98 q 281 -104 278 -98 q 310 -149 293 -127 q 342 -190 326 -171 q 360 -194 350 -200 q 363 -175 372 -184 q 304 -81 325 -137 q 284 37 286 -32 "},"¶":{"ha":558,"x_min":21,"x_max":541,"o":"m 401 837 q 391 848 391 837 l 391 876 q 379 887 391 887 l 360 887 q 349 876 349 887 l 349 845 q 339 834 349 835 q 113 729 204 819 q 21 519 21 640 q 113 308 21 397 q 339 203 204 218 q 349 192 349 202 l 349 71 q 360 59 349 59 l 379 59 q 391 71 391 59 l 391 190 q 401 201 391 201 q 444 205 429 201 q 453 201 450 205 q 456 193 456 198 l 456 71 q 467 59 456 59 l 486 59 q 497 71 497 59 l 497 208 q 505 218 497 215 q 534 227 513 219 q 541 237 541 229 l 541 267 q 536 277 541 272 q 526 277 532 279 q 512 273 512 273 q 502 275 507 271 q 497 283 497 278 l 497 763 q 502 772 497 767 q 512 773 506 774 q 526 768 526 768 q 536 770 531 767 q 541 779 541 773 l 541 800 q 534 810 541 807 q 505 820 513 818 q 497 830 497 822 l 497 876 q 486 887 497 887 l 467 887 q 456 876 456 887 l 456 844 q 453 836 456 839 q 444 833 448 832 q 401 837 416 836 m 446 785 q 456 774 456 784 l 456 272 q 446 261 456 262 q 416 260 437 260 q 408 260 412 260 q 401 260 404 260 q 391 271 391 260 l 391 775 q 401 787 391 785 q 408 787 404 787 q 416 787 412 787 q 446 785 427 787 m 335 774 q 345 773 340 776 q 349 764 349 770 l 349 283 q 345 273 349 277 q 335 272 340 270 q 234 366 260 297 q 208 523 208 435 q 234 680 208 611 q 335 774 260 749 "},"·":{"ha":279,"x_min":36,"x_max":233,"o":"m 36 554 q 36 535 20 543 q 125 446 96 500 q 144 446 134 427 q 233 535 174 506 q 233 554 252 545 q 144 644 176 583 q 125 644 136 660 q 36 554 89 588 "},"¸":{"ha":694,"x_min":218,"x_max":541,"o":"m 376 0 l 288 -133 l 309 -153 q 345 -144 326 -144 q 385 -156 369 -144 q 402 -193 402 -169 q 374 -242 402 -226 q 312 -256 351 -256 q 232 -243 270 -256 l 218 -273 q 270 -287 237 -281 q 372 -298 328 -298 q 480 -279 439 -298 q 541 -190 541 -252 q 503 -119 541 -146 q 420 -94 469 -94 q 355 -104 392 -94 l 422 0 l 376 0 "},"¹":{"ha":294,"x_min":4,"x_max":288,"o":"m 35 810 l 35 810 q 74 825 60 825 q 100 774 99 825 l 100 513 q 88 426 100 455 q 41 396 77 397 q 25 378 25 396 q 42 359 25 359 l 271 359 q 288 376 287 359 q 284 390 288 385 q 273 395 280 395 q 205 511 205 400 l 207 978 q 192 991 207 991 l 172 991 q 161 985 165 991 q 95 906 132 945 q 14 831 58 867 q 4 818 6 824 q 6 807 3 811 q 16 803 9 803 q 35 810 24 803 "},"º":{"ha":492,"x_min":31,"x_max":468,"o":"m 243 263 q 306 333 265 309 q 382 392 347 357 q 435 456 412 421 q 464 535 458 491 q 450 629 468 572 q 406 718 433 686 q 349 833 357 774 q 344 841 348 840 q 335 839 340 842 q 78 760 222 772 q 71 757 73 760 q 70 750 69 754 q 71 741 71 747 l 73 464 q 38 392 73 404 q 32 383 32 389 q 41 374 31 377 q 222 263 163 337 q 243 263 235 250 m 183 748 q 189 757 183 755 q 222 768 205 762 q 229 767 225 769 q 234 762 233 765 q 298 656 256 699 q 342 589 324 627 q 361 503 359 551 q 314 370 366 425 q 288 364 302 355 l 192 424 q 186 435 186 427 l 183 748 m 47 205 q 36 194 36 205 l 36 117 q 47 105 36 105 l 457 105 q 468 117 468 105 l 468 194 q 457 205 468 205 l 47 205 "},"»":{"ha":667,"x_min":8,"x_max":641,"o":"m 304 136 q 311 138 309 136 l 636 383 q 641 392 641 388 q 636 401 641 397 l 311 646 q 304 648 309 648 l 277 648 q 267 642 269 648 q 269 631 264 637 l 464 399 q 464 385 471 393 l 269 153 q 267 142 264 148 q 277 136 269 136 l 304 136 m 45 136 q 52 138 50 136 l 377 383 q 382 392 382 388 q 377 401 382 397 l 52 646 q 45 648 50 648 l 18 648 q 8 642 10 648 q 9 631 5 637 l 205 399 q 205 385 212 393 l 9 153 q 8 142 5 148 q 18 136 10 136 l 45 136 "},"¼":{"ha":1023,"x_min":101,"x_max":968,"o":"m 948 906 q 932 905 937 913 l 133 -18 q 134 -33 125 -26 l 154 -50 q 170 -50 161 -58 l 968 873 q 968 889 975 880 l 948 906 m 614 77 l 754 77 q 761 83 761 77 l 761 302 q 756 308 761 307 q 749 305 751 309 l 609 87 q 609 81 606 83 q 614 77 610 77 m 846 410 l 846 83 q 852 77 846 77 l 930 77 q 936 70 936 77 l 936 26 q 930 19 936 19 l 852 19 q 846 12 846 19 l 846 -18 q 913 -130 845 -130 q 921 -142 922 -131 q 913 -151 921 -151 l 701 -151 q 692 -140 692 -151 q 701 -130 692 -130 q 761 -15 761 -130 l 761 12 q 759 17 761 15 q 754 19 757 19 l 580 19 q 574 26 574 19 l 574 75 q 574 79 574 77 l 789 413 q 795 416 791 416 l 840 416 q 846 410 846 416 m 118 800 q 189 760 189 850 l 189 511 q 126 393 189 390 q 117 382 117 393 q 127 370 117 370 l 346 370 q 355 381 354 370 q 347 391 355 391 q 277 509 277 393 l 277 955 q 270 962 277 962 l 252 962 q 246 958 248 962 q 104 810 188 878 q 101 795 97 802 q 118 800 106 786 "},"½":{"ha":1030,"x_min":101,"x_max":981,"o":"m 948 906 q 932 905 937 913 l 133 -18 q 134 -33 125 -26 l 154 -50 q 170 -50 161 -58 l 968 873 q 968 889 975 880 l 948 906 m 118 800 q 189 760 189 850 l 189 511 q 126 393 189 390 q 117 382 117 393 q 127 370 117 370 l 346 370 q 355 381 354 370 q 347 391 355 391 q 277 509 277 393 l 277 955 q 270 962 277 962 l 252 962 q 246 958 248 962 q 104 810 188 878 q 101 795 97 802 q 118 800 106 786 m 633 265 q 642 247 629 248 q 657 260 654 245 q 692 323 663 290 q 773 359 720 355 q 868 268 856 355 q 795 71 880 181 l 626 -146 q 625 -153 623 -149 q 631 -157 627 -157 l 960 -157 q 967 -151 966 -157 l 981 -3 q 970 12 981 12 q 958 1 960 13 l 951 -60 q 945 -66 950 -66 l 739 -66 q 732 -63 732 -66 q 733 -55 728 -59 l 879 85 q 949 171 916 119 q 975 290 981 217 q 805 433 959 433 q 684 382 728 429 q 633 265 640 333 "},"¾":{"ha":1023,"x_min":50,"x_max":968,"o":"m 948 906 q 932 905 937 913 l 133 -18 q 134 -33 125 -26 l 154 -50 q 170 -50 161 -58 l 968 873 q 968 889 975 880 l 948 906 m 551 72 l 690 72 q 697 78 697 72 l 697 296 q 692 302 697 301 q 685 300 687 303 l 545 81 q 545 75 542 78 q 551 72 546 72 m 783 405 l 783 78 q 789 72 783 72 l 866 72 q 872 64 872 72 l 872 21 q 866 14 872 14 l 789 14 q 783 7 783 14 l 783 -24 q 850 -136 781 -136 q 857 -147 858 -136 q 850 -157 857 -157 l 637 -157 q 628 -146 628 -157 q 637 -135 628 -135 q 697 -20 697 -135 l 697 7 q 695 12 697 9 q 690 14 693 14 l 516 14 q 510 21 510 14 l 510 70 q 511 73 510 71 l 726 408 q 732 411 728 411 l 776 411 q 783 405 783 411 m 70 875 q 71 859 63 861 q 87 865 77 854 q 130 903 106 885 q 186 920 153 920 q 266 887 237 918 q 288 809 294 856 q 246 728 281 757 q 163 686 212 701 q 152 673 149 683 q 166 664 153 663 q 267 645 221 667 q 319 528 311 623 q 302 433 324 471 q 227 391 279 394 q 169 408 185 389 q 149 452 152 425 q 138 510 150 484 q 94 534 125 534 q 56 514 68 532 q 50 473 45 495 q 110 392 63 414 q 228 370 159 369 q 357 432 298 371 q 415 577 416 493 q 303 730 414 699 q 368 768 340 742 q 391 857 396 793 q 336 943 382 918 q 236 968 290 968 q 132 941 174 969 q 70 875 90 913 "},"¿":{"ha":607,"x_min":28,"x_max":594,"o":"m 477 -87 q 504 -131 504 -87 q 452 -198 503 -166 q 321 -227 401 -230 q 167 -58 172 -224 q 230 51 169 17 q 359 115 292 85 q 469 189 427 144 q 496 318 512 233 q 422 421 484 387 q 283 454 361 455 q 182 409 216 454 q 134 327 148 364 q 142 307 127 310 q 163 321 157 305 q 211 395 182 365 q 283 427 239 426 q 362 394 327 429 q 397 315 397 360 q 346 243 399 269 q 228 196 293 218 q 97 129 163 175 q 28 -21 31 83 q 307 -257 31 -260 q 594 -73 589 -254 q 486 33 589 35 q 439 15 456 33 q 423 -21 423 -3 q 477 -87 422 -87 m 391 623 q 391 642 407 634 q 302 731 331 677 q 282 731 292 751 q 193 642 253 671 q 193 623 174 633 q 282 534 250 594 q 302 534 291 517 q 391 623 338 589 "},"À":{"ha":1131,"x_min":31,"x_max":1096,"o":"m 747 814 q 785 787 779 814 q 791 734 791 760 q 791 472 791 603 q 793 210 790 340 q 790 203 793 206 q 764 173 777 186 q 736 148 751 159 q 640 112 677 105 q 560 162 602 118 q 497 216 534 189 q 413 263 460 243 q 406 271 407 265 q 410 281 405 278 q 591 453 498 351 q 683 690 684 555 q 601 898 682 806 q 368 989 521 989 q 134 895 236 989 q 31 671 31 801 q 85 522 31 577 q 218 445 138 467 q 262 363 292 424 q 264 343 255 350 q 286 346 274 336 q 341 502 378 429 q 195 595 304 576 q 113 636 148 602 q 85 732 77 671 q 123 823 90 775 q 227 882 156 871 q 416 828 337 898 q 513 661 496 758 q 495 473 530 560 q 399 323 459 387 q 304 238 355 277 q 201 165 254 200 q 180 136 174 149 q 201 129 186 123 q 223 136 216 134 q 336 111 290 153 q 435 25 381 69 q 527 -17 470 -3 q 656 29 585 -30 q 746 109 728 88 q 780 145 764 129 q 791 148 785 150 q 798 139 797 145 q 918 -12 816 17 q 949 -7 935 -17 l 1090 121 q 1096 143 1102 130 q 1072 145 1090 155 q 964 237 964 94 l 964 706 q 977 853 964 791 q 1038 952 991 916 q 1047 975 1053 962 q 1025 980 1042 987 l 741 844 q 731 829 731 838 q 747 814 731 814 m 578 1086 l 707 962 l 732 962 l 678 1123 q 639 1202 656 1187 q 591 1219 618 1219 q 526 1171 526 1219 q 578 1086 526 1137 "},"Á":{"ha":1131,"x_min":31,"x_max":1096,"o":"m 747 814 q 785 787 779 814 q 791 734 791 760 q 791 472 791 603 q 793 210 790 340 q 790 203 793 206 q 764 173 777 186 q 736 148 751 159 q 640 112 677 105 q 560 162 602 118 q 497 216 534 189 q 413 263 460 243 q 406 271 407 265 q 410 281 405 278 q 591 453 498 351 q 683 690 684 555 q 601 898 682 806 q 368 989 521 989 q 134 895 236 989 q 31 671 31 801 q 85 522 31 577 q 218 445 138 467 q 262 363 292 424 q 264 343 255 350 q 286 346 274 336 q 341 502 378 429 q 195 595 304 576 q 113 636 148 602 q 85 732 77 671 q 123 823 90 775 q 227 882 156 871 q 416 828 337 898 q 513 661 496 758 q 495 473 530 560 q 399 323 459 387 q 304 238 355 277 q 201 165 254 200 q 180 136 174 149 q 201 129 186 123 q 223 136 216 134 q 336 111 290 153 q 435 25 381 69 q 527 -17 470 -3 q 656 29 585 -30 q 746 109 728 88 q 780 145 764 129 q 791 148 785 150 q 798 139 797 145 q 918 -12 816 17 q 949 -7 935 -17 l 1090 121 q 1096 143 1102 130 q 1072 145 1090 155 q 964 237 964 94 l 964 706 q 977 853 964 791 q 1038 952 991 916 q 1047 975 1053 962 q 1025 980 1042 987 l 741 844 q 731 829 731 838 q 747 814 731 814 m 728 959 l 858 1084 q 909 1168 909 1134 q 845 1217 909 1217 q 797 1199 817 1217 q 758 1120 779 1184 l 703 959 l 728 959 "},"Â":{"ha":1131,"x_min":31,"x_max":1096,"o":"m 747 814 q 785 787 779 814 q 791 734 791 760 q 791 472 791 603 q 793 210 790 340 q 790 203 793 206 q 764 173 777 186 q 736 148 751 159 q 640 112 677 105 q 560 162 602 118 q 497 216 534 189 q 413 263 460 243 q 406 271 407 265 q 410 281 405 278 q 591 453 498 351 q 683 690 684 555 q 601 898 682 806 q 368 989 521 989 q 134 895 236 989 q 31 671 31 801 q 85 522 31 577 q 218 445 138 467 q 262 363 292 424 q 264 343 255 350 q 286 346 274 336 q 341 502 378 429 q 195 595 304 576 q 113 636 148 602 q 85 732 77 671 q 123 823 90 775 q 227 882 156 871 q 416 828 337 898 q 513 661 496 758 q 495 473 530 560 q 399 323 459 387 q 304 238 355 277 q 201 165 254 200 q 180 136 174 149 q 201 129 186 123 q 223 136 216 134 q 336 111 290 153 q 435 25 381 69 q 527 -17 470 -3 q 656 29 585 -30 q 746 109 728 88 q 780 145 764 129 q 791 148 785 150 q 798 139 797 145 q 918 -12 816 17 q 949 -7 935 -17 l 1090 121 q 1096 143 1102 130 q 1072 145 1090 155 q 964 237 964 94 l 964 706 q 977 853 964 791 q 1038 952 991 916 q 1047 975 1053 962 q 1025 980 1042 987 l 741 844 q 731 829 731 838 q 747 814 731 814 m 905 1006 q 903 1010 905 1008 l 746 1219 q 741 1222 743 1222 q 734 1219 737 1222 l 577 1010 q 576 1006 576 1009 l 576 989 q 580 982 576 983 q 587 983 583 981 l 736 1108 q 745 1108 740 1114 l 894 983 q 901 982 897 981 q 905 989 905 983 l 905 1006 "},"Ã":{"ha":1131,"x_min":31,"x_max":1096,"o":"m 747 814 q 785 787 779 814 q 791 734 791 760 q 791 472 791 603 q 793 210 790 340 q 790 203 793 206 q 764 173 777 186 q 736 148 751 159 q 640 112 677 105 q 560 162 602 118 q 497 216 534 189 q 413 263 460 243 q 406 271 407 265 q 410 281 405 278 q 591 453 498 351 q 683 690 684 555 q 601 898 682 806 q 368 989 521 989 q 134 895 236 989 q 31 671 31 801 q 85 522 31 577 q 218 445 138 467 q 262 363 292 424 q 264 343 255 350 q 286 346 274 336 q 341 502 378 429 q 195 595 304 576 q 113 636 148 602 q 85 732 77 671 q 123 823 90 775 q 227 882 156 871 q 416 828 337 898 q 513 661 496 758 q 495 473 530 560 q 399 323 459 387 q 304 238 355 277 q 201 165 254 200 q 180 136 174 149 q 201 129 186 123 q 223 136 216 134 q 336 111 290 153 q 435 25 381 69 q 527 -17 470 -3 q 656 29 585 -30 q 746 109 728 88 q 780 145 764 129 q 791 148 785 150 q 798 139 797 145 q 918 -12 816 17 q 949 -7 935 -17 l 1090 121 q 1096 143 1102 130 q 1072 145 1090 155 q 964 237 964 94 l 964 706 q 977 853 964 791 q 1038 952 991 916 q 1047 975 1053 962 q 1025 980 1042 987 l 741 844 q 731 829 731 838 q 747 814 731 814 m 931 1113 q 918 1086 924 1094 q 882 1072 905 1072 q 820 1084 861 1072 q 761 1103 779 1098 q 688 1115 718 1115 q 591 1063 627 1115 q 565 990 575 1038 l 591 990 q 637 1030 602 1030 q 699 1018 661 1030 q 831 987 795 987 q 927 1036 890 987 q 959 1113 948 1065 l 931 1113 "},"Ä":{"ha":1131,"x_min":31,"x_max":1096,"o":"m 578 1231 q 518 1210 546 1231 q 488 1158 490 1190 q 498 1087 485 1126 q 535 1048 511 1048 q 601 1085 559 1048 q 647 1158 643 1122 q 578 1231 654 1231 m 870 1231 q 809 1210 838 1231 q 779 1158 781 1190 q 789 1087 777 1126 q 827 1048 802 1048 q 893 1085 851 1048 q 939 1158 935 1122 q 870 1231 945 1231 m 747 827 q 785 800 779 827 q 791 747 791 772 q 791 484 791 615 q 793 222 790 353 q 790 215 793 218 q 764 185 777 199 q 736 160 751 171 q 640 124 677 117 q 560 174 602 130 q 497 228 534 201 q 413 275 460 256 q 406 283 407 277 q 410 294 405 290 q 591 465 498 363 q 683 703 684 568 q 601 910 682 819 q 368 1002 521 1002 q 134 907 236 1001 q 31 683 31 813 q 85 534 31 589 q 218 457 138 479 q 262 376 292 436 q 264 355 255 362 q 286 358 274 348 q 341 514 378 441 q 195 608 304 588 q 113 649 148 614 q 85 744 77 683 q 123 835 90 787 q 227 894 156 883 q 416 840 337 910 q 513 673 496 770 q 495 486 530 572 q 399 336 459 399 q 304 251 355 289 q 201 177 254 212 q 180 149 174 161 q 201 141 186 136 q 223 149 216 146 q 336 123 290 165 q 435 37 381 81 q 527 -4 470 9 q 656 41 585 -18 q 746 121 728 100 q 780 157 764 141 q 791 160 785 162 q 798 151 797 157 q 918 0 816 29 q 949 5 935 -5 l 1090 134 q 1096 155 1102 142 q 1072 157 1090 168 q 964 249 964 106 l 964 718 q 977 865 964 803 q 1038 964 991 928 q 1047 987 1053 975 q 1025 992 1042 999 l 741 856 q 731 842 731 850 q 747 827 731 827 "},"Å":{"ha":1131,"x_min":31,"x_max":1096,"o":"m 713 1223 q 600 1179 647 1223 q 553 1071 553 1134 q 600 962 553 1007 q 713 918 647 918 q 827 962 780 918 q 874 1071 874 1007 q 827 1179 874 1134 q 713 1223 780 1223 m 713 1178 q 756 1146 749 1178 q 763 1069 763 1114 q 756 991 763 1023 q 713 960 749 960 q 671 991 678 960 q 665 1069 665 1023 q 671 1146 665 1114 q 713 1178 678 1178 m 747 814 q 785 787 779 814 q 791 734 791 760 q 791 472 791 603 q 793 210 790 340 q 790 203 793 206 q 764 173 777 186 q 736 148 751 159 q 640 112 677 105 q 560 162 602 118 q 497 216 534 189 q 413 263 460 243 q 406 271 407 265 q 410 281 405 278 q 591 453 498 351 q 683 690 684 555 q 601 898 682 806 q 368 989 521 989 q 134 895 236 989 q 31 671 31 801 q 85 522 31 577 q 218 445 138 467 q 262 363 292 424 q 264 343 255 350 q 286 346 274 336 q 341 502 378 429 q 195 595 304 576 q 113 636 148 602 q 85 732 77 671 q 123 823 90 775 q 227 882 156 871 q 416 828 337 898 q 513 661 496 758 q 495 473 530 560 q 399 323 459 387 q 304 238 355 277 q 201 165 254 200 q 180 136 174 149 q 201 129 186 123 q 223 136 216 134 q 336 111 290 153 q 435 25 381 69 q 527 -17 470 -3 q 656 29 585 -30 q 746 109 728 88 q 780 145 764 129 q 791 148 785 150 q 798 139 797 145 q 918 -12 816 17 q 949 -7 935 -17 l 1090 121 q 1096 143 1102 130 q 1072 145 1090 155 q 964 237 964 94 l 964 706 q 977 853 964 791 q 1038 952 991 916 q 1047 975 1053 962 q 1025 980 1042 987 l 741 844 q 731 829 731 838 q 747 814 731 814 "},"Æ":{"ha":1446,"x_min":31,"x_max":1417,"o":"m 747 742 q 785 715 779 742 q 791 662 791 688 q 791 472 791 603 q 793 210 790 340 q 790 203 793 206 q 764 173 777 186 q 736 148 751 159 q 640 112 677 105 q 560 162 602 118 q 497 216 534 189 q 413 263 460 243 q 406 271 407 265 q 410 281 405 278 q 591 453 498 351 q 683 690 684 555 q 601 898 682 806 q 368 989 521 989 q 134 895 236 989 q 31 671 31 801 q 85 522 31 577 q 218 445 138 467 q 262 363 292 424 q 264 343 255 350 q 286 346 274 336 q 341 502 378 429 q 195 595 304 576 q 113 636 148 602 q 85 732 77 671 q 123 823 90 775 q 227 882 156 871 q 416 828 337 898 q 513 661 496 758 q 495 473 530 560 q 399 323 459 387 q 304 238 355 277 q 201 165 254 200 q 180 136 174 149 q 201 129 186 123 q 223 136 216 134 q 336 111 290 153 q 435 25 381 69 q 527 -17 470 -3 q 656 29 585 -30 q 745 109 728 88 q 785 134 756 121 q 857 132 813 147 q 945 75 907 114 q 1100 -14 1035 -2 q 1227 -4 1164 -26 q 1337 66 1290 18 q 1417 161 1384 113 q 1414 184 1428 177 q 1390 176 1401 191 q 1255 106 1343 107 q 1108 169 1166 104 q 964 266 1050 234 l 964 524 q 998 553 977 536 q 1104 498 1022 578 q 1208 491 1160 450 q 1248 534 1231 511 q 1282 580 1265 557 q 1284 608 1295 598 q 1256 606 1274 618 q 1162 633 1223 585 q 1090 665 1126 660 q 1017 625 1055 669 q 964 568 1000 605 l 964 633 q 977 781 964 718 q 1007 844 987 827 q 1037 863 1027 862 q 1199 806 1082 863 q 1223 797 1214 798 q 1239 802 1232 797 q 1297 855 1267 828 q 1362 916 1327 882 q 1364 936 1372 927 q 1340 934 1356 944 q 1272 936 1306 918 q 1216 966 1238 954 q 1163 994 1192 979 q 1112 992 1134 1009 q 741 771 1062 941 q 731 757 731 766 q 747 742 731 742 "},"Ç":{"ha":954,"x_min":49,"x_max":920,"o":"m 518 163 q 742 376 749 290 q 555 622 732 468 q 471 749 469 696 q 528 834 472 791 q 593 862 561 861 q 755 805 638 862 q 767 798 760 802 q 780 793 774 793 q 787 794 784 793 q 795 802 789 795 q 854 854 824 827 q 918 915 884 881 q 919 933 927 925 q 897 933 911 941 q 827 935 860 918 q 772 966 795 953 q 719 993 748 978 q 668 991 690 1008 q 557 895 617 939 q 541 901 545 887 q 489 976 526 945 q 389 1008 451 1008 q 135 850 235 1008 q 49 467 35 693 q 195 146 59 310 q 538 -18 330 -18 q 909 111 747 -18 q 916 134 923 123 q 892 138 908 145 q 690 86 787 86 q 380 211 516 86 q 220 583 245 335 q 254 846 206 726 q 399 966 302 966 q 516 873 495 966 q 511 861 517 867 q 469 834 498 852 q 436 815 440 817 q 319 665 319 743 q 458 454 318 581 q 555 353 528 391 q 581 287 583 315 q 500 187 578 245 q 494 166 486 176 q 518 163 501 156 m 474 0 l 386 -133 l 406 -153 q 443 -144 423 -144 q 483 -156 467 -144 q 500 -193 500 -169 q 472 -242 500 -226 q 410 -256 449 -256 q 330 -243 368 -256 l 316 -273 q 368 -287 335 -281 q 470 -298 426 -298 q 578 -279 536 -298 q 638 -190 638 -252 q 601 -119 638 -146 q 517 -94 567 -94 q 453 -104 490 -94 l 520 0 l 474 0 "},"È":{"ha":976,"x_min":50,"x_max":940,"o":"m 554 852 q 594 863 574 862 q 756 806 639 863 q 780 797 771 798 q 796 802 789 797 q 854 855 825 828 q 919 916 884 882 q 921 936 929 927 q 897 934 913 944 q 829 936 863 918 q 773 966 795 954 q 720 994 749 979 q 669 992 691 1009 q 558 895 618 939 l 555 894 q 548 895 551 893 q 541 901 543 895 q 489 977 527 945 q 389 1008 452 1008 q 136 851 236 1008 q 50 467 35 694 q 195 147 60 311 q 539 -17 331 -17 q 909 111 747 -17 q 917 135 924 124 q 893 138 910 146 q 691 87 787 87 q 381 211 517 87 q 221 531 245 336 q 250 846 197 726 q 400 967 303 967 q 517 874 497 967 q 512 862 518 867 q 470 835 499 852 q 437 816 441 818 q 320 666 320 743 q 459 454 319 582 q 556 353 528 391 q 581 288 583 315 q 500 188 579 246 q 495 165 487 176 q 519 164 503 155 q 743 377 749 290 q 661 523 736 439 q 658 534 656 528 q 666 541 660 540 q 760 498 699 548 q 863 491 816 450 q 904 534 886 511 q 938 580 921 557 q 940 608 950 598 q 911 606 929 618 q 817 633 878 585 q 746 665 782 660 q 672 625 710 669 q 629 572 645 593 q 621 568 625 568 q 612 571 617 567 q 555 623 591 591 q 472 749 470 696 q 528 835 473 791 q 554 852 541 845 m 450 1128 l 579 1004 l 604 1004 l 550 1165 q 511 1244 528 1229 q 463 1261 490 1261 q 398 1213 398 1261 q 450 1128 398 1179 "},"É":{"ha":976,"x_min":50,"x_max":940,"o":"m 554 852 q 594 863 574 862 q 756 806 639 863 q 780 797 771 798 q 796 802 789 797 q 854 855 825 828 q 919 916 884 882 q 921 936 929 927 q 897 934 913 944 q 829 936 863 918 q 773 966 795 954 q 720 994 749 979 q 669 992 691 1009 q 558 895 618 939 l 555 894 q 548 895 551 893 q 541 901 543 895 q 489 977 527 945 q 389 1008 452 1008 q 136 851 236 1008 q 50 467 35 694 q 195 147 60 311 q 539 -17 331 -17 q 909 111 747 -17 q 917 135 924 124 q 893 138 910 146 q 691 87 787 87 q 381 211 517 87 q 221 531 245 336 q 250 846 197 726 q 400 967 303 967 q 517 874 497 967 q 512 862 518 867 q 470 835 499 852 q 437 816 441 818 q 320 666 320 743 q 459 454 319 582 q 556 353 528 391 q 581 288 583 315 q 500 188 579 246 q 495 165 487 176 q 519 164 503 155 q 743 377 749 290 q 661 523 736 439 q 658 534 656 528 q 666 541 660 540 q 760 498 699 548 q 863 491 816 450 q 904 534 886 511 q 938 580 921 557 q 940 608 950 598 q 911 606 929 618 q 817 633 878 585 q 746 665 782 660 q 672 625 710 669 q 629 572 645 593 q 621 568 625 568 q 612 571 617 567 q 555 623 591 591 q 472 749 470 696 q 528 835 473 791 q 554 852 541 845 m 574 991 l 703 1116 q 755 1200 755 1166 q 690 1249 755 1249 q 642 1231 663 1249 q 603 1152 625 1216 l 549 991 l 574 991 "},"Ê":{"ha":976,"x_min":50,"x_max":940,"o":"m 554 852 q 594 863 574 862 q 756 806 639 863 q 780 797 771 798 q 796 802 789 797 q 854 855 825 828 q 919 916 884 882 q 921 936 929 927 q 897 934 913 944 q 829 936 863 918 q 773 966 795 954 q 720 994 749 979 q 669 992 691 1009 q 558 895 618 939 l 555 894 q 548 895 551 893 q 541 901 543 895 q 489 977 527 945 q 389 1008 452 1008 q 136 851 236 1008 q 50 467 35 694 q 195 147 60 311 q 539 -17 331 -17 q 909 111 747 -17 q 917 135 924 124 q 893 138 910 146 q 691 87 787 87 q 381 211 517 87 q 221 531 245 336 q 250 846 197 726 q 400 967 303 967 q 517 874 497 967 q 512 862 518 867 q 470 835 499 852 q 437 816 441 818 q 320 666 320 743 q 459 454 319 582 q 556 353 528 391 q 581 288 583 315 q 500 188 579 246 q 495 165 487 176 q 519 164 503 155 q 743 377 749 290 q 661 523 736 439 q 658 534 656 528 q 666 541 660 540 q 760 498 699 548 q 863 491 816 450 q 904 534 886 511 q 938 580 921 557 q 940 608 950 598 q 911 606 929 618 q 817 633 878 585 q 746 665 782 660 q 672 625 710 669 q 629 572 645 593 q 621 568 625 568 q 612 571 617 567 q 555 623 591 591 q 472 749 470 696 q 528 835 473 791 q 554 852 541 845 m 741 1046 q 739 1050 741 1049 l 582 1260 q 576 1263 579 1263 q 570 1260 573 1263 l 413 1050 q 412 1046 412 1050 l 412 1029 q 416 1023 412 1024 q 423 1024 419 1021 l 572 1149 q 581 1149 576 1154 l 730 1024 q 737 1023 733 1021 q 741 1029 741 1024 l 741 1046 "},"Ë":{"ha":976,"x_min":50,"x_max":940,"o":"m 554 852 q 594 863 574 862 q 756 806 639 863 q 780 797 771 798 q 796 802 789 797 q 854 855 825 828 q 919 916 884 882 q 921 936 929 927 q 897 934 913 944 q 829 936 863 918 q 773 966 795 954 q 720 994 749 979 q 669 992 691 1009 q 558 895 618 939 l 555 894 q 548 895 551 893 q 541 901 543 895 q 489 977 527 945 q 389 1008 452 1008 q 136 851 236 1008 q 50 467 35 694 q 195 147 60 311 q 539 -17 331 -17 q 909 111 747 -17 q 917 135 924 124 q 893 138 910 146 q 691 87 787 87 q 381 211 517 87 q 221 531 245 336 q 250 846 197 726 q 400 967 303 967 q 517 874 497 967 q 512 862 518 867 q 470 835 499 852 q 437 816 441 818 q 320 666 320 743 q 459 454 319 582 q 556 353 528 391 q 581 288 583 315 q 500 188 579 246 q 495 165 487 176 q 519 164 503 155 q 743 377 749 290 q 661 523 736 439 q 658 534 656 528 q 666 541 660 540 q 760 498 699 548 q 863 491 816 450 q 904 534 886 511 q 938 580 921 557 q 940 608 950 598 q 911 606 929 618 q 817 633 878 585 q 746 665 782 660 q 672 625 710 669 q 629 572 645 593 q 621 568 625 568 q 612 571 617 567 q 555 623 591 591 q 472 749 470 696 q 528 835 473 791 q 554 852 541 845 m 433 1228 q 373 1207 401 1228 q 342 1156 345 1187 q 353 1084 340 1123 q 390 1046 366 1046 q 456 1082 414 1045 q 502 1156 498 1119 q 433 1228 509 1228 m 725 1228 q 664 1207 692 1228 q 634 1156 636 1187 q 644 1084 631 1123 q 682 1046 657 1046 q 748 1082 706 1045 q 793 1156 789 1119 q 725 1228 800 1228 "},"Ì":{"ha":951,"x_min":33,"x_max":889,"o":"m 526 463 q 503 467 519 474 q 278 466 389 416 q 156 633 167 515 q 198 813 145 751 q 351 881 251 875 q 533 806 458 879 q 690 733 607 734 q 703 727 701 734 q 697 713 705 720 q 565 522 569 610 q 673 265 562 433 q 762 71 752 143 q 720 -49 771 -1 q 595 -85 667 -96 q 434 24 524 -73 q 35 32 239 239 q 33 9 23 19 q 61 12 43 -1 q 174 14 128 54 q 275 -75 220 -26 q 514 -162 387 -175 q 747 -73 641 -150 q 889 120 858 7 q 815 392 920 234 q 713 633 703 561 q 872 801 724 706 q 889 830 897 817 q 864 833 881 842 q 763 843 812 807 q 644 941 713 880 q 551 993 616 966 q 421 1019 486 1021 q 164 904 256 1015 q 82 651 73 793 q 229 435 92 509 q 517 441 366 361 q 526 463 532 449 m 482 1160 l 612 1035 l 637 1035 l 583 1196 q 543 1275 561 1260 q 495 1293 523 1293 q 431 1244 431 1293 q 482 1160 431 1210 "},"Í":{"ha":951,"x_min":33,"x_max":889,"o":"m 526 463 q 503 467 519 474 q 278 466 389 416 q 156 633 167 515 q 198 813 145 751 q 351 881 251 875 q 533 806 458 879 q 690 733 607 734 q 703 727 701 734 q 697 713 705 720 q 565 522 569 610 q 673 265 562 433 q 762 71 752 143 q 720 -49 771 -1 q 595 -85 667 -96 q 434 24 524 -73 q 35 32 239 239 q 33 9 23 19 q 61 12 43 -1 q 174 14 128 54 q 275 -75 220 -26 q 514 -162 387 -175 q 747 -73 641 -150 q 889 120 858 7 q 815 392 920 234 q 713 633 703 561 q 872 801 724 706 q 889 830 897 817 q 864 833 881 842 q 763 843 812 807 q 644 941 713 880 q 551 993 616 966 q 421 1019 486 1021 q 164 904 256 1015 q 82 651 73 793 q 229 435 92 509 q 517 441 366 361 q 526 463 532 449 m 611 1034 l 741 1158 q 792 1242 792 1208 q 728 1291 792 1291 q 680 1274 700 1291 q 640 1195 662 1259 l 586 1034 l 611 1034 "},"Î":{"ha":951,"x_min":33,"x_max":889,"o":"m 526 463 q 503 467 519 474 q 278 466 389 416 q 156 633 167 515 q 198 813 145 751 q 351 881 251 875 q 533 806 458 879 q 690 733 607 734 q 703 727 701 734 q 697 713 705 720 q 565 522 569 610 q 673 265 562 433 q 762 71 752 143 q 720 -49 771 -1 q 595 -85 667 -96 q 434 24 524 -73 q 35 32 239 239 q 33 9 23 19 q 61 12 43 -1 q 174 14 128 54 q 275 -75 220 -26 q 514 -162 387 -175 q 747 -73 641 -150 q 889 120 858 7 q 815 392 920 234 q 713 633 703 561 q 872 801 724 706 q 889 830 897 817 q 864 833 881 842 q 763 843 812 807 q 644 941 713 880 q 551 993 616 966 q 421 1019 486 1021 q 164 904 256 1015 q 82 651 73 793 q 229 435 92 509 q 517 441 366 361 q 526 463 532 449 m 678 1074 q 677 1078 678 1076 l 519 1287 q 514 1290 517 1290 q 508 1287 511 1290 l 351 1078 q 349 1074 349 1077 l 349 1057 q 353 1050 349 1051 q 361 1051 357 1048 l 509 1176 q 518 1176 513 1181 l 667 1051 q 675 1050 671 1048 q 678 1057 678 1051 l 678 1074 "},"Ï":{"ha":951,"x_min":33,"x_max":889,"o":"m 526 463 q 503 467 519 474 q 278 466 389 416 q 156 633 167 515 q 198 813 145 751 q 351 881 251 875 q 533 806 458 879 q 690 733 607 734 q 703 727 701 734 q 697 713 705 720 q 565 522 569 610 q 673 265 562 433 q 762 71 752 143 q 720 -49 771 -1 q 595 -85 667 -96 q 434 24 524 -73 q 35 32 239 239 q 33 9 23 19 q 61 12 43 -1 q 174 14 128 54 q 275 -75 220 -26 q 514 -162 387 -175 q 747 -73 641 -150 q 889 120 858 7 q 815 392 920 234 q 713 633 703 561 q 872 801 724 706 q 889 830 897 817 q 864 833 881 842 q 763 843 812 807 q 644 941 713 880 q 551 993 616 966 q 421 1019 486 1021 q 164 904 256 1015 q 82 651 73 793 q 229 435 92 509 q 517 441 366 361 q 526 463 532 449 m 339 1231 q 278 1210 307 1231 q 248 1158 250 1190 q 258 1087 245 1126 q 296 1048 271 1048 q 362 1085 320 1048 q 408 1158 404 1122 q 339 1231 414 1231 m 631 1231 q 570 1210 598 1231 q 540 1158 542 1190 q 550 1087 537 1126 q 587 1048 563 1048 q 653 1085 612 1048 q 699 1158 695 1122 q 631 1231 706 1231 "},"Ð":{"ha":1126,"x_min":32,"x_max":1080,"o":"m 490 424 q 159 420 254 354 q 97 631 64 486 q 273 812 123 751 q 571 838 422 873 q 915 599 786 787 q 963 218 1044 410 q 812 96 916 108 q 576 170 709 84 q 333 235 425 265 q 124 98 241 205 q 118 72 109 84 q 145 71 127 60 q 268 111 208 123 q 384 68 327 98 q 755 -2 609 -53 q 1002 201 901 48 q 1080 418 1069 301 q 1053 644 1091 534 q 929 842 1014 753 q 718 979 844 932 q 482 1007 602 1015 q 261 949 361 1000 q 96 815 161 899 q 32 629 32 731 q 149 380 32 444 q 522 391 265 316 q 543 366 532 379 q 515 256 593 309 q 508 233 500 245 q 534 230 515 220 q 682 395 672 306 q 681 431 684 412 l 886 488 q 894 494 890 488 l 893 517 q 893 525 895 521 q 885 529 890 530 l 670 470 q 574 603 646 531 q 533 785 432 722 q 542 809 550 795 q 515 812 534 822 q 361 666 409 753 q 452 460 313 578 q 490 424 470 444 "},"Ñ":{"ha":1226,"x_min":36,"x_max":1185,"o":"m 384 381 q 399 363 383 364 q 418 387 414 361 q 248 531 444 581 q 109 549 146 505 q 69 669 71 594 q 132 796 67 743 q 308 837 196 849 q 507 698 420 825 q 595 402 593 571 q 551 189 595 273 q 469 103 508 104 q 423 121 438 101 q 391 163 408 140 q 100 114 285 302 q 96 86 85 99 q 122 88 107 74 q 238 67 181 153 q 381 -12 303 -28 q 550 111 460 4 q 681 322 633 206 q 725 559 729 439 q 681 746 721 660 q 680 755 679 749 q 729 841 697 806 q 801 876 760 876 q 877 853 851 876 q 917 764 903 831 q 991 600 943 630 q 997 592 996 597 q 991 583 998 588 q 809 245 785 388 q 987 -12 832 103 q 1002 -12 995 -17 q 1092 62 1046 25 q 1181 135 1137 98 q 1185 159 1195 147 q 1156 158 1176 170 q 1058 154 1103 125 q 988 251 1013 182 q 981 502 933 404 q 1160 645 1029 600 q 1176 662 1177 651 q 1161 673 1175 673 q 1098 758 1114 679 q 1023 924 1069 873 q 869 975 977 975 q 747 922 800 975 q 667 807 693 869 q 657 800 665 801 q 647 805 650 800 q 508 935 590 890 q 354 980 427 980 q 122 889 207 979 q 36 662 37 800 q 112 466 36 532 q 284 423 188 399 q 366 428 347 437 q 384 381 385 419 m 782 1182 q 768 1155 775 1163 q 733 1141 756 1141 q 671 1154 712 1141 q 612 1172 629 1167 q 539 1184 569 1184 q 442 1132 478 1184 q 416 1059 426 1107 l 441 1059 q 488 1099 452 1099 q 549 1087 511 1099 q 682 1056 646 1056 q 778 1105 741 1056 q 810 1182 799 1135 l 782 1182 "},"Ò":{"ha":1047,"x_min":37,"x_max":986,"o":"m 41 162 q 37 143 30 152 q 54 141 44 135 q 159 139 103 172 q 282 64 215 106 q 585 -9 433 -32 q 875 164 736 14 q 986 383 958 253 q 960 654 1014 513 q 773 883 907 792 q 477 995 640 974 q 466 989 469 996 q 369 889 433 928 q 207 804 305 850 q 46 596 50 722 q 214 405 42 470 q 363 335 330 360 q 363 271 397 309 q 362 253 354 260 q 383 256 370 245 q 486 423 494 348 q 292 566 477 498 q 184 672 193 602 q 238 780 175 741 q 457 819 338 841 q 691 716 576 798 q 883 438 854 600 q 850 189 913 277 q 683 81 783 94 q 444 169 583 67 q 247 276 304 272 q 41 162 190 280 m 642 1090 l 772 966 l 797 966 l 743 1127 q 703 1206 721 1191 q 655 1223 683 1223 q 591 1175 591 1223 q 642 1090 591 1141 "},"Ó":{"ha":1047,"x_min":37,"x_max":986,"o":"m 41 162 q 37 143 30 152 q 54 141 44 135 q 159 139 103 172 q 282 64 215 106 q 585 -9 433 -32 q 875 164 736 14 q 986 383 958 253 q 960 654 1014 513 q 773 883 907 792 q 477 995 640 974 q 466 989 469 996 q 369 889 433 928 q 207 804 305 850 q 46 596 50 722 q 214 405 42 470 q 363 335 330 360 q 363 271 397 309 q 362 253 354 260 q 383 256 370 245 q 486 423 494 348 q 292 566 477 498 q 184 672 193 602 q 238 780 175 741 q 457 819 338 841 q 691 716 576 798 q 883 438 854 600 q 850 189 913 277 q 683 81 783 94 q 444 169 583 67 q 247 276 304 272 q 41 162 190 280 m 345 964 l 475 1088 q 526 1173 526 1139 q 462 1221 526 1221 q 414 1204 434 1221 q 374 1125 396 1189 l 320 964 l 345 964 "},"Ô":{"ha":1047,"x_min":37,"x_max":986,"o":"m 41 162 q 37 143 30 152 q 54 141 44 135 q 159 139 103 172 q 282 64 215 106 q 585 -9 433 -32 q 875 164 736 14 q 986 383 958 253 q 960 654 1014 513 q 773 883 907 792 q 477 995 640 974 q 466 989 469 996 q 369 889 433 928 q 207 804 305 850 q 46 596 50 722 q 214 405 42 470 q 363 335 330 360 q 363 271 397 309 q 362 253 354 260 q 383 256 370 245 q 486 423 494 348 q 292 566 477 498 q 184 672 193 602 q 238 780 175 741 q 457 819 338 841 q 691 716 576 798 q 883 438 854 600 q 850 189 913 277 q 683 81 783 94 q 444 169 583 67 q 247 276 304 272 q 41 162 190 280 m 688 1011 q 686 1015 688 1014 l 529 1225 q 524 1227 526 1227 q 517 1225 520 1227 l 360 1015 q 359 1011 359 1015 l 359 994 q 363 987 359 989 q 370 989 366 986 l 519 1114 q 528 1114 523 1119 l 677 989 q 684 987 680 986 q 688 994 688 989 l 688 1011 "},"Õ":{"ha":1047,"x_min":37,"x_max":986,"o":"m 41 162 q 37 143 30 152 q 54 141 44 135 q 159 139 103 172 q 282 64 215 106 q 585 -9 433 -32 q 875 164 736 14 q 986 383 958 253 q 960 654 1014 513 q 773 883 907 792 q 477 995 640 974 q 466 989 469 996 q 369 889 433 928 q 207 804 305 850 q 46 596 50 722 q 214 405 42 470 q 363 335 330 360 q 363 271 397 309 q 362 253 354 260 q 383 256 370 245 q 486 423 494 348 q 292 566 477 498 q 184 672 193 602 q 238 780 175 741 q 457 819 338 841 q 691 716 576 798 q 883 438 854 600 q 850 189 913 277 q 683 81 783 94 q 444 169 583 67 q 247 276 304 272 q 41 162 190 280 m 692 1182 q 679 1155 686 1163 q 644 1141 667 1141 q 581 1154 623 1141 q 522 1172 540 1167 q 450 1184 479 1184 q 353 1132 389 1184 q 326 1059 336 1107 l 352 1059 q 398 1099 363 1099 q 460 1087 422 1099 q 593 1056 556 1056 q 688 1105 652 1056 q 720 1182 709 1135 l 692 1182 "},"Ö":{"ha":1047,"x_min":37,"x_max":986,"o":"m 387 1231 q 326 1210 354 1231 q 296 1158 298 1190 q 306 1087 293 1126 q 343 1048 319 1048 q 409 1085 368 1048 q 455 1158 451 1122 q 387 1231 462 1231 m 678 1231 q 617 1210 646 1231 q 587 1158 589 1190 q 597 1087 585 1126 q 635 1048 610 1048 q 701 1085 659 1048 q 747 1158 743 1122 q 678 1231 753 1231 m 41 162 q 37 143 30 152 q 54 141 44 135 q 159 139 103 172 q 282 64 215 106 q 585 -9 433 -32 q 875 164 736 14 q 986 383 958 253 q 960 654 1014 513 q 773 883 907 792 q 477 995 640 974 q 466 989 469 996 q 369 889 433 928 q 207 804 305 850 q 46 596 50 722 q 214 405 42 470 q 363 335 330 360 q 363 271 397 309 q 362 253 354 260 q 383 256 370 245 q 486 423 494 348 q 292 566 477 498 q 184 672 193 602 q 238 780 175 741 q 457 819 338 841 q 691 716 576 798 q 883 438 854 600 q 850 189 913 277 q 683 81 783 94 q 444 169 583 67 q 247 276 304 272 q 41 162 190 280 "},"×":{"ha":538,"x_min":73,"x_max":468,"o":"m 145 611 q 129 610 137 618 l 75 556 q 74 540 66 548 l 199 414 l 73 288 q 74 273 66 281 l 129 218 q 144 217 137 210 l 271 343 l 397 217 q 412 218 404 210 l 467 273 q 468 288 475 281 l 342 414 l 467 540 q 467 556 475 548 l 412 610 q 396 611 404 618 l 271 486 l 145 611 "},"Ø":{"ha":1047,"x_min":37,"x_max":986,"o":"m 825 1034 q 810 1030 814 1039 l 737 906 q 477 995 618 977 q 466 989 469 996 q 369 889 433 928 q 207 804 305 850 q 46 596 50 722 q 214 405 42 470 q 363 335 330 360 q 363 271 397 309 q 359 257 357 263 l 346 235 q 247 276 281 273 q 41 162 190 280 q 37 143 30 152 q 54 141 44 135 q 159 138 103 172 q 256 80 203 112 l 195 -24 q 199 -40 189 -35 l 222 -54 q 237 -49 231 -59 l 297 54 q 585 -9 440 -31 q 875 164 736 14 q 986 383 958 253 q 960 654 1014 513 q 779 880 907 789 l 852 1005 q 848 1021 857 1014 l 825 1034 m 444 169 q 387 209 414 191 l 686 720 l 691 716 q 883 438 854 600 q 850 189 913 277 q 683 81 783 94 q 444 169 583 67 m 457 819 q 644 747 552 802 l 473 454 q 292 566 437 512 q 184 672 193 602 q 238 780 175 741 q 457 819 338 841 "},"Ù":{"ha":990,"x_min":33,"x_max":951,"o":"m 782 -9 q 800 -14 790 -14 q 819 -6 810 -13 l 948 111 q 951 129 958 120 q 930 133 943 138 q 826 204 827 96 l 821 682 q 839 831 821 767 q 909 933 857 895 q 915 955 924 946 q 893 958 905 964 q 757 890 825 924 q 621 823 689 856 q 620 791 589 805 q 658 726 658 776 l 662 236 q 659 229 662 232 q 528 127 595 155 q 374 180 461 98 q 325 229 348 203 q 260 264 302 254 q 250 272 250 266 q 256 283 249 279 q 432 478 417 393 q 335 677 446 563 q 281 728 313 699 q 252 837 249 758 q 288 909 253 879 q 364 937 323 939 q 449 885 421 933 q 422 795 477 838 q 417 769 406 781 q 442 768 427 756 q 483 891 507 818 q 363 969 458 965 q 240 940 311 971 q 127 837 170 908 q 107 673 73 746 q 192 549 142 600 q 274 427 251 488 q 210 283 296 366 l 210 282 l 38 138 q 34 117 25 126 q 54 117 42 107 q 151 141 101 158 q 251 70 200 123 q 530 53 397 -85 q 587 114 558 83 q 644 174 616 144 q 657 179 650 181 q 663 168 663 177 q 690 53 666 85 q 782 -9 713 24 m 508 1086 l 637 962 l 663 962 l 608 1123 q 569 1202 587 1187 q 521 1219 549 1219 q 456 1171 456 1219 q 508 1086 456 1137 "},"Ú":{"ha":990,"x_min":33,"x_max":951,"o":"m 782 -9 q 800 -14 790 -14 q 819 -6 810 -13 l 948 111 q 951 129 958 120 q 930 133 943 138 q 826 204 827 96 l 821 682 q 839 831 821 767 q 909 933 857 895 q 915 955 924 946 q 893 958 905 964 q 757 890 825 924 q 621 823 689 856 q 620 791 589 805 q 658 726 658 776 l 662 236 q 659 229 662 232 q 528 127 595 155 q 374 180 461 98 q 325 229 348 203 q 260 264 302 254 q 250 272 250 266 q 256 283 249 279 q 432 478 417 393 q 335 677 446 563 q 281 728 313 699 q 252 837 249 758 q 288 909 253 879 q 364 937 323 939 q 449 885 421 933 q 422 795 477 838 q 417 769 406 781 q 442 768 427 756 q 483 891 507 818 q 363 969 458 965 q 240 940 311 971 q 127 837 170 908 q 107 673 73 746 q 192 549 142 600 q 274 427 251 488 q 210 283 296 366 l 210 282 l 38 138 q 34 117 25 126 q 54 117 42 107 q 151 141 101 158 q 251 70 200 123 q 530 53 397 -85 q 587 114 558 83 q 644 174 616 144 q 657 179 650 181 q 663 168 663 177 q 690 53 666 85 q 782 -9 713 24 m 578 941 l 708 1066 q 760 1150 760 1116 q 695 1199 760 1199 q 647 1181 667 1199 q 608 1103 629 1166 l 553 941 l 578 941 "},"Û":{"ha":990,"x_min":33,"x_max":951,"o":"m 782 -9 q 800 -14 790 -14 q 819 -6 810 -13 l 948 111 q 951 129 958 120 q 930 133 943 138 q 826 204 827 96 l 821 682 q 839 831 821 767 q 909 933 857 895 q 915 955 924 946 q 893 958 905 964 q 757 890 825 924 q 621 823 689 856 q 620 791 589 805 q 658 726 658 776 l 662 236 q 659 229 662 232 q 528 127 595 155 q 374 180 461 98 q 325 229 348 203 q 260 264 302 254 q 250 272 250 266 q 256 283 249 279 q 432 478 417 393 q 335 677 446 563 q 281 728 313 699 q 252 837 249 758 q 288 909 253 879 q 364 937 323 939 q 449 885 421 933 q 422 795 477 838 q 417 769 406 781 q 442 768 427 756 q 483 891 507 818 q 363 969 458 965 q 240 940 311 971 q 127 837 170 908 q 107 673 73 746 q 192 549 142 600 q 274 427 251 488 q 210 283 296 366 l 210 282 l 38 138 q 34 117 25 126 q 54 117 42 107 q 151 141 101 158 q 251 70 200 123 q 530 53 397 -85 q 587 114 558 83 q 644 174 616 144 q 657 179 650 181 q 663 168 663 177 q 690 53 666 85 q 782 -9 713 24 m 659 1011 q 658 1015 659 1014 l 500 1225 q 495 1227 498 1227 q 489 1225 492 1227 l 332 1015 q 330 1011 330 1015 l 330 994 q 334 987 330 989 q 342 989 338 986 l 490 1114 q 499 1114 494 1119 l 648 989 q 656 987 652 986 q 659 994 659 989 l 659 1011 "},"Ü":{"ha":990,"x_min":33,"x_max":951,"o":"m 755 1231 q 694 1210 722 1231 q 664 1158 666 1190 q 674 1087 661 1126 q 711 1048 687 1048 q 778 1085 736 1048 q 823 1158 819 1122 q 755 1231 830 1231 m 463 1231 q 402 1210 431 1231 q 372 1158 374 1190 q 382 1087 370 1126 q 420 1048 395 1048 q 486 1085 444 1048 q 532 1158 528 1122 q 463 1231 538 1231 m 782 20 q 800 16 790 15 q 819 23 810 16 l 948 140 q 951 158 958 149 q 930 162 943 168 q 826 233 827 125 l 821 711 q 839 860 821 796 q 909 962 857 924 q 915 984 924 975 q 893 987 905 994 q 757 919 825 953 q 621 852 689 885 q 620 820 589 834 q 658 755 658 805 l 662 265 q 659 258 662 261 q 528 156 595 184 q 374 209 461 127 q 325 258 348 233 q 260 293 302 283 q 250 301 250 295 q 256 313 249 308 q 432 507 417 422 q 335 707 446 592 q 281 758 313 728 q 252 866 249 787 q 288 938 253 908 q 364 966 323 968 q 449 915 421 962 q 422 824 477 867 q 417 798 406 810 q 442 798 427 785 q 483 921 507 847 q 363 998 458 994 q 240 969 311 1000 q 127 866 170 937 q 107 702 73 775 q 192 578 142 629 q 274 456 251 517 q 210 312 296 395 l 210 311 l 38 167 q 34 146 25 155 q 54 146 42 136 q 151 170 101 187 q 251 99 200 153 q 530 82 397 -56 q 587 143 558 113 q 644 203 616 173 q 657 208 650 210 q 663 197 663 206 q 690 82 666 114 q 782 20 713 53 "},"Ý":{"ha":1190,"x_min":31,"x_max":1154,"o":"m 258 481 q 127 540 174 484 q 81 675 81 596 q 142 808 81 755 q 281 859 203 861 q 477 779 404 869 q 555 602 551 688 q 531 438 558 528 q 461 283 505 349 q 384 195 429 234 q 300 114 340 156 q 294 88 285 98 q 317 89 302 78 q 433 64 365 127 q 558 3 495 7 q 661 56 621 -1 q 704 112 679 80 q 766 184 730 144 q 764 210 777 201 q 736 203 751 219 q 655 151 699 161 q 547 192 611 141 q 478 235 501 224 q 471 243 472 236 q 475 253 471 250 q 594 387 537 309 q 681 602 650 464 q 682 762 699 684 q 690 864 671 819 q 758 916 710 909 q 846 882 817 922 q 887 787 875 842 q 926 685 901 717 q 976 642 951 654 q 982 632 982 637 q 976 622 982 627 q 829 486 856 558 q 869 304 802 413 q 921 -22 983 119 q 645 -173 858 -163 q 448 -133 532 -173 q 294 -16 365 -93 q 274 -11 283 -3 q 273 -29 264 -18 q 435 -165 343 -117 q 653 -216 528 -213 q 810 -192 732 -218 q 964 -111 888 -165 q 1117 101 1084 -18 q 1057 384 1150 221 q 990 574 975 523 q 1133 678 1004 625 q 1153 700 1157 687 q 1133 710 1149 713 q 1067 831 1105 705 q 963 970 1039 922 q 801 996 888 1018 q 699 936 737 979 q 650 838 660 892 q 527 954 606 912 q 357 995 448 995 q 124 905 217 995 q 31 701 31 815 q 98 518 31 587 q 271 446 165 448 q 431 517 355 444 q 431 533 441 526 q 409 529 420 541 q 258 481 349 477 m 644 981 l 774 1106 q 825 1190 825 1156 q 761 1239 825 1239 q 713 1221 733 1239 q 673 1143 695 1206 l 619 981 l 644 981 "},"Þ":{"ha":1236,"x_min":21,"x_max":1198,"o":"m 1067 719 l 659 513 q 658 650 660 576 q 651 723 656 677 q 611 825 646 769 q 513 926 577 882 q 356 973 450 971 q 111 890 201 973 q 21 690 21 806 q 93 506 21 574 q 273 441 165 439 q 345 450 309 442 q 407 482 380 458 q 414 511 425 500 q 390 509 404 521 q 277 473 346 472 q 124 525 182 473 q 67 665 67 576 q 130 803 67 754 q 283 848 192 852 q 425 774 368 846 q 492 603 481 702 q 508 428 500 515 q 525 254 517 341 q 523 245 525 248 q 515 241 520 242 q 309 96 414 233 q 310 75 299 83 q 332 79 320 67 q 534 91 399 144 q 541 82 541 88 q 507 -210 559 -101 q 508 -228 500 -222 q 526 -225 516 -234 q 601 -119 576 -177 q 636 24 626 -62 q 642 32 637 29 q 652 31 647 35 q 692 10 673 19 l 695 9 q 888 0 804 -39 q 1094 188 989 46 q 1197 380 1185 314 q 1147 495 1209 447 q 1064 601 1086 543 q 1091 694 1043 660 q 1096 716 1105 705 q 1067 719 1087 728 m 720 173 q 654 211 684 197 q 648 221 648 213 q 656 405 650 304 q 659 473 658 437 l 874 579 q 885 580 880 582 q 890 570 890 578 q 1005 426 895 503 q 1069 203 1116 348 q 939 110 1020 126 q 720 173 858 94 "},"ß":{"ha":676,"x_min":-5,"x_max":634,"o":"m 78 621 q 85 614 83 621 q 121 206 104 410 q 156 -208 139 -1 q 169 -231 157 -229 q 183 -210 180 -233 l 252 504 q 258 527 253 517 q 274 541 264 536 q 386 580 359 588 q 439 533 427 572 q 404 410 460 464 q 272 313 347 357 q 276 290 245 297 q 421 246 345 292 q 506 45 497 199 q 437 -140 506 -67 q 252 -240 368 -212 q 244 -245 247 -241 q 242 -254 241 -250 q 246 -261 243 -258 q 256 -264 250 -264 q 517 -137 410 -227 q 634 90 627 -45 q 617 253 644 199 q 530 334 591 307 q 425 366 468 361 q 415 374 416 368 q 422 385 414 380 q 563 520 516 448 q 497 678 609 592 q 477 689 490 685 q 458 706 465 692 q 421 705 445 727 q 357 641 391 671 q 281 582 334 619 q 254 582 256 564 q 245 646 255 614 q 159 731 230 694 q 129 826 115 753 q 222 863 143 899 q 367 845 328 819 q 430 949 406 872 q 437 974 437 973 q 417 964 427 978 q 359 950 400 937 q 245 984 318 962 q 126 948 156 1013 q 101 786 96 882 q 76 687 105 725 q 3 642 47 649 q -5 630 -5 640 q 5 621 -5 621 l 78 621 "},"à":{"ha":640,"x_min":36,"x_max":604,"o":"m 362 96 q 373 98 367 98 q 380 90 378 94 q 477 -13 400 4 q 495 -24 488 -16 q 518 -24 509 -39 l 519 -23 q 557 50 534 15 q 604 122 580 85 q 604 143 613 137 q 585 137 595 149 q 535 119 558 108 q 513 162 513 131 l 511 472 l 511 473 q 545 530 513 507 q 538 556 571 550 q 332 694 435 577 q 302 692 313 713 q 242 612 276 645 q 168 549 208 578 q 36 308 40 450 q 142 38 32 142 q 184 -16 184 -2 q 190 -28 183 -27 q 210 -20 197 -30 q 286 38 245 6 q 362 96 328 69 m 370 495 q 378 484 378 492 l 372 173 q 373 141 372 151 q 370 134 373 138 q 303 100 331 92 q 302 101 302 101 q 172 330 193 144 q 228 566 156 459 q 271 560 244 593 q 370 495 328 507 m 332 840 l 462 715 l 487 715 l 433 876 q 393 955 411 940 q 345 972 373 972 q 281 924 281 972 q 332 840 281 890 "},"á":{"ha":640,"x_min":36,"x_max":604,"o":"m 362 96 q 373 98 367 98 q 380 90 378 94 q 477 -13 400 4 q 495 -24 488 -16 q 518 -24 509 -39 l 519 -23 q 557 50 534 15 q 604 122 580 85 q 604 143 613 137 q 585 137 595 149 q 535 119 558 108 q 513 162 513 131 l 511 472 l 511 473 q 545 530 513 507 q 538 556 571 550 q 332 694 435 577 q 302 692 313 713 q 242 612 276 645 q 168 549 208 578 q 36 308 40 450 q 142 38 32 142 q 184 -16 184 -2 q 190 -28 183 -27 q 210 -20 197 -30 q 286 38 245 6 q 362 96 328 69 m 370 495 q 378 484 378 492 l 372 173 q 373 141 372 151 q 370 134 373 138 q 303 100 331 92 q 302 101 302 101 q 172 330 193 144 q 228 566 156 459 q 271 560 244 593 q 370 495 328 507 m 205 714 l 334 839 q 386 923 386 889 q 321 972 386 972 q 273 954 294 972 q 234 876 256 939 l 180 714 l 205 714 "},"â":{"ha":640,"x_min":36,"x_max":604,"o":"m 362 96 q 373 98 367 98 q 380 90 378 94 q 477 -13 400 4 q 495 -24 488 -16 q 518 -24 509 -39 l 519 -23 q 557 50 534 15 q 604 122 580 85 q 604 143 613 137 q 585 137 595 149 q 535 119 558 108 q 513 162 513 131 l 511 472 l 511 473 q 545 530 513 507 q 538 556 571 550 q 332 694 435 577 q 302 692 313 713 q 242 612 276 645 q 168 549 208 578 q 36 308 40 450 q 142 38 32 142 q 184 -16 184 -2 q 190 -28 183 -27 q 210 -20 197 -30 q 286 38 245 6 q 362 96 328 69 m 370 495 q 378 484 378 492 l 372 173 q 373 141 372 151 q 370 134 373 138 q 303 100 331 92 q 302 101 302 101 q 172 330 193 144 q 228 566 156 459 q 271 560 244 593 q 370 495 328 507 m 484 764 q 483 768 484 767 l 326 978 q 320 981 323 981 q 314 978 317 981 l 157 768 q 155 764 155 768 l 155 747 q 159 741 155 742 q 167 742 163 739 l 315 867 q 324 867 319 872 l 473 742 q 481 741 477 739 q 484 747 484 742 l 484 764 "},"ã":{"ha":640,"x_min":36,"x_max":604,"o":"m 362 96 q 373 98 367 98 q 380 90 378 94 q 477 -13 400 4 q 495 -24 488 -16 q 518 -24 509 -39 l 519 -23 q 557 50 534 15 q 604 122 580 85 q 604 143 613 137 q 585 137 595 149 q 535 119 558 108 q 513 162 513 131 l 511 472 l 511 473 q 545 530 513 507 q 538 556 571 550 q 332 694 435 577 q 302 692 313 713 q 242 612 276 645 q 168 549 208 578 q 36 308 40 450 q 142 38 32 142 q 184 -16 184 -2 q 190 -28 183 -27 q 210 -20 197 -30 q 286 38 245 6 q 362 96 328 69 m 370 495 q 378 484 378 492 l 372 173 q 373 141 372 151 q 370 134 373 138 q 303 100 331 92 q 302 101 302 101 q 172 330 193 144 q 228 566 156 459 q 271 560 244 593 q 370 495 328 507 m 490 935 q 476 908 483 916 q 441 894 464 894 q 378 907 420 894 q 319 925 337 920 q 247 937 277 937 q 150 885 186 937 q 123 812 134 860 l 149 812 q 195 852 160 852 q 257 840 219 852 q 390 809 353 809 q 486 859 449 809 q 517 935 507 888 l 490 935 "},"ä":{"ha":640,"x_min":36,"x_max":604,"o":"m 245 984 q 185 963 213 984 q 155 911 157 943 q 165 840 152 879 q 202 802 178 802 q 268 838 227 801 q 314 911 310 875 q 245 984 321 984 m 503 984 q 442 963 470 984 q 412 911 414 943 q 422 840 409 879 q 459 802 435 802 q 525 838 484 801 q 571 911 567 875 q 503 984 578 984 m 362 127 q 373 130 367 130 q 380 121 378 125 q 477 19 400 36 q 495 8 488 16 q 518 8 509 -7 l 519 9 q 557 82 534 47 q 604 154 580 117 q 604 175 613 169 q 585 169 595 180 q 535 151 558 140 q 513 194 513 163 l 511 504 l 511 505 q 545 562 513 539 q 538 588 571 582 q 332 726 435 609 q 302 724 313 745 q 242 644 276 677 q 168 581 208 610 q 36 340 40 482 q 142 70 32 174 q 184 16 184 30 q 190 3 183 5 q 210 12 197 2 q 286 70 245 38 q 362 127 328 101 m 370 527 q 378 516 378 524 l 372 205 q 373 173 372 183 q 370 165 373 170 q 303 132 331 123 q 302 133 302 133 q 172 361 193 176 q 228 598 156 491 q 271 592 244 625 q 370 527 328 538 "},"å":{"ha":640,"x_min":36,"x_max":604,"o":"m 326 1052 q 212 1007 259 1052 q 165 899 165 962 q 212 791 165 836 q 326 746 259 746 q 439 791 392 746 q 486 899 486 836 q 439 1007 486 962 q 326 1052 392 1052 m 326 1006 q 368 974 361 1006 q 375 897 375 942 q 368 820 375 852 q 326 788 361 788 q 283 820 290 788 q 277 897 277 852 q 283 974 277 942 q 326 1006 290 1006 m 362 96 q 373 98 367 98 q 380 90 378 94 q 477 -13 400 4 q 495 -24 488 -16 q 518 -24 509 -39 l 519 -23 q 557 50 534 15 q 604 122 580 85 q 604 143 613 137 q 585 137 595 149 q 535 119 558 108 q 513 162 513 131 l 511 472 l 511 473 q 545 530 513 507 q 538 556 571 550 q 332 694 435 577 q 302 692 313 713 q 242 612 276 645 q 168 549 208 578 q 36 308 40 450 q 142 38 32 142 q 184 -16 184 -2 q 190 -28 183 -27 q 210 -20 197 -30 q 286 38 245 6 q 362 96 328 69 m 370 495 q 378 484 378 492 l 372 173 q 373 141 372 151 q 370 134 373 138 q 303 100 331 92 q 302 101 302 101 q 172 330 193 144 q 228 566 156 459 q 271 560 244 593 q 370 495 328 507 "},"æ":{"ha":806,"x_min":36,"x_max":767,"o":"m 531 -19 q 543 -28 531 -26 q 561 -25 555 -29 q 650 36 600 7 q 755 93 700 65 q 760 105 764 97 q 743 107 756 113 q 587 120 665 77 q 476 313 509 162 q 483 326 475 321 l 761 433 l 762 433 q 767 456 774 438 l 669 686 q 644 703 661 706 q 537 666 589 688 q 445 607 485 643 q 437 600 441 603 q 332 694 385 634 q 302 692 313 713 q 242 612 276 645 q 168 549 208 578 q 36 308 40 450 q 142 38 32 142 q 184 -16 184 -2 q 190 -28 183 -27 q 210 -20 197 -30 q 286 37 245 6 q 393 119 321 64 q 487 22 426 63 q 514 5 498 14 q 531 -19 530 -3 m 271 560 q 349 500 328 507 l 367 496 q 340 313 336 418 q 376 151 345 227 q 382 139 379 144 q 303 100 322 94 q 302 101 302 101 q 172 330 193 144 q 228 566 156 459 q 271 560 244 593 m 468 364 q 473 526 458 444 q 526 631 487 608 q 551 627 545 642 l 633 424 q 627 410 637 414 l 483 355 q 473 356 477 353 q 468 364 469 359 "},"ç":{"ha":492,"x_min":40,"x_max":458,"o":"m 231 -20 q 242 -28 231 -27 q 260 -26 254 -30 q 350 35 300 6 q 454 92 399 64 q 458 105 463 96 q 442 106 452 111 q 285 120 363 76 q 174 321 206 164 q 169 504 157 404 q 226 630 181 604 q 250 626 243 640 l 321 479 q 352 467 333 455 q 444 503 393 495 q 448 525 458 505 l 369 685 q 344 702 359 705 q 237 665 289 688 q 144 606 184 642 q 40 312 32 505 q 76 150 44 227 q 186 21 109 74 q 213 5 197 13 q 231 -20 229 -3 m 244 0 l 156 -133 l 176 -153 q 213 -144 193 -144 q 253 -156 237 -144 q 270 -193 270 -169 q 242 -242 270 -226 q 180 -256 219 -256 q 100 -243 138 -256 l 86 -273 q 138 -287 105 -281 q 240 -298 196 -298 q 348 -279 307 -298 q 408 -190 408 -252 q 371 -119 408 -146 q 288 -94 337 -94 q 223 -104 260 -94 l 290 0 l 244 0 "},"è":{"ha":503,"x_min":40,"x_max":467,"o":"m 231 -19 q 242 -28 231 -26 q 260 -25 254 -29 q 350 36 300 7 q 454 93 399 65 q 459 105 463 97 q 442 107 456 113 q 287 120 365 77 q 176 313 209 162 q 182 326 174 321 l 460 433 l 462 433 q 467 456 473 438 l 369 686 q 344 703 361 706 q 237 666 289 688 q 144 607 184 643 q 40 313 32 506 q 76 151 44 227 q 186 22 109 75 q 213 5 197 14 q 231 -19 229 -3 m 168 364 q 172 526 158 444 q 226 631 186 608 q 250 627 244 642 l 333 424 q 327 410 337 414 l 182 355 q 172 356 176 353 q 168 364 168 359 m 290 838 l 419 713 l 444 713 l 390 874 q 351 953 368 938 q 302 970 330 970 q 238 922 238 970 q 290 838 238 888 "},"é":{"ha":503,"x_min":40,"x_max":467,"o":"m 231 -19 q 242 -28 231 -26 q 260 -25 254 -29 q 350 36 300 7 q 454 93 399 65 q 459 105 463 97 q 442 107 456 113 q 287 120 365 77 q 176 313 209 162 q 182 326 174 321 l 460 433 l 462 433 q 467 456 473 438 l 369 686 q 344 703 361 706 q 237 666 289 688 q 144 607 184 643 q 40 313 32 506 q 76 151 44 227 q 186 22 109 75 q 213 5 197 14 q 231 -19 229 -3 m 168 364 q 172 526 158 444 q 226 631 186 608 q 250 627 244 642 l 333 424 q 327 410 337 414 l 182 355 q 172 356 176 353 q 168 364 168 359 m 136 714 l 266 839 q 317 923 317 889 q 253 972 317 972 q 205 954 225 972 q 165 876 187 939 l 111 714 l 136 714 "},"ê":{"ha":503,"x_min":40,"x_max":467,"o":"m 231 -19 q 242 -28 231 -26 q 260 -25 254 -29 q 350 36 300 7 q 454 93 399 65 q 459 105 463 97 q 442 107 456 113 q 287 120 365 77 q 176 313 209 162 q 182 326 174 321 l 460 433 l 462 433 q 467 456 473 438 l 369 686 q 344 703 361 706 q 237 666 289 688 q 144 607 184 643 q 40 313 32 506 q 76 151 44 227 q 186 22 109 75 q 213 5 197 14 q 231 -19 229 -3 m 168 364 q 172 526 158 444 q 226 631 186 608 q 250 627 244 642 l 333 424 q 327 410 337 414 l 182 355 q 172 356 176 353 q 168 364 168 359 m 416 764 q 415 768 416 767 l 258 978 q 252 981 255 981 q 246 978 249 981 l 89 768 q 87 764 87 768 l 87 747 q 92 741 87 742 q 99 742 95 739 l 248 867 q 256 867 252 872 l 406 742 q 413 741 409 739 q 416 747 416 742 l 416 764 "},"ë":{"ha":503,"x_min":40,"x_max":475,"o":"m 185 968 q 124 947 153 968 q 94 895 96 926 q 104 824 92 863 q 142 785 117 785 q 208 822 166 785 q 254 895 250 859 q 185 968 260 968 m 406 967 q 346 946 374 967 q 315 895 317 926 q 326 823 313 862 q 363 785 338 785 q 429 821 387 784 q 475 895 471 858 q 406 967 481 967 m 231 -19 q 242 -28 231 -26 q 260 -25 254 -29 q 350 36 300 7 q 454 93 399 65 q 459 105 463 97 q 442 107 456 113 q 287 120 365 77 q 176 313 209 162 q 182 326 174 321 l 460 433 l 462 433 q 467 456 473 438 l 369 686 q 344 703 361 706 q 237 666 289 688 q 144 607 184 643 q 40 313 32 506 q 76 151 44 227 q 186 22 109 75 q 213 5 197 14 q 231 -19 229 -3 m 168 364 q 172 526 158 444 q 226 631 186 608 q 250 627 244 642 l 333 424 q 327 410 337 414 l 182 355 q 172 356 176 353 q 168 364 168 359 "},"ì":{"ha":379,"x_min":14,"x_max":341,"o":"m 112 159 q 143 54 112 96 q 235 -18 174 12 q 267 -9 254 -28 q 302 55 285 22 q 340 119 320 87 q 341 142 351 135 q 324 136 331 149 q 275 121 305 104 q 250 206 250 137 l 250 493 q 263 548 250 532 q 294 572 277 565 q 303 580 302 572 q 291 593 305 587 q 214 648 241 622 q 158 709 186 674 q 133 709 144 722 q 84 635 108 673 q 31 561 60 598 q 27 534 18 544 q 48 537 37 525 l 75 565 q 103 552 87 578 q 107 531 107 544 l 112 159 m 65 890 l 195 765 l 220 765 l 165 926 q 126 1005 144 990 q 78 1023 106 1023 q 14 974 14 1023 q 65 890 14 940 "},"í":{"ha":379,"x_min":27,"x_max":341,"o":"m 112 159 q 143 54 112 96 q 235 -18 174 12 q 267 -9 254 -28 q 302 55 285 22 q 340 119 320 87 q 341 142 351 135 q 324 136 331 149 q 275 121 305 104 q 250 206 250 137 l 250 493 q 263 548 250 532 q 294 572 277 565 q 303 580 302 572 q 291 593 305 587 q 214 648 241 622 q 158 709 186 674 q 133 709 144 722 q 84 635 108 673 q 31 561 60 598 q 27 534 18 544 q 48 537 37 525 l 75 565 q 103 552 87 578 q 107 531 107 544 l 112 159 m 136 773 l 265 898 q 317 982 317 948 q 252 1031 317 1031 q 204 1013 224 1031 q 165 935 186 998 l 111 773 l 136 773 "},"î":{"ha":379,"x_min":25,"x_max":354,"o":"m 112 159 q 143 54 112 96 q 235 -18 174 12 q 267 -9 254 -28 q 302 55 285 22 q 340 119 320 87 q 341 142 351 135 q 324 136 331 149 q 275 121 305 104 q 250 206 250 137 l 250 493 q 263 548 250 532 q 294 572 277 565 q 303 580 302 572 q 291 593 305 587 q 214 648 241 622 q 158 709 186 674 q 133 709 144 722 q 84 635 108 673 q 31 561 60 598 q 27 534 18 544 q 48 537 37 525 l 75 565 q 103 552 87 578 q 107 531 107 544 l 112 159 m 354 764 q 353 768 354 767 l 195 978 q 190 981 193 981 q 184 978 186 981 l 26 768 q 25 764 25 768 l 25 747 q 29 741 25 742 q 37 742 33 739 l 185 867 q 194 867 189 872 l 343 742 q 351 741 347 739 q 354 747 354 742 l 354 764 "},"ï":{"ha":379,"x_min":9,"x_max":356,"o":"m 112 159 q 143 54 112 96 q 235 -18 174 12 q 267 -9 254 -28 q 302 55 285 22 q 340 119 320 87 q 341 142 351 135 q 324 136 331 149 q 275 121 305 104 q 250 206 250 137 l 250 493 q 263 548 250 532 q 294 572 277 565 q 303 580 302 572 q 291 593 305 587 q 214 648 241 622 q 158 709 186 674 q 133 709 144 722 q 84 635 108 673 q 31 561 60 598 q 27 534 18 544 q 48 537 37 525 l 75 565 q 103 552 87 578 q 107 531 107 544 l 112 159 m 100 958 q 39 938 67 958 q 9 886 11 917 q 19 814 6 853 q 56 776 32 776 q 122 812 81 775 q 168 886 164 849 q 100 958 175 958 m 288 954 q 227 933 255 954 q 197 882 199 913 q 207 810 194 849 q 244 772 220 772 q 310 808 269 771 q 356 882 352 845 q 288 954 363 954 "},"ð":{"ha":631,"x_min":34,"x_max":607,"o":"m 69 664 q 60 658 63 663 l 42 618 q 42 608 39 612 q 50 605 43 605 l 173 646 q 213 629 193 637 q 264 608 239 618 q 271 600 270 605 q 267 589 271 592 q 132 543 199 534 q 110 521 110 545 l 111 239 q 68 149 111 165 q 61 137 60 145 q 72 127 62 129 q 281 -11 243 79 q 306 -11 287 -24 q 374 28 336 9 q 441 72 413 47 l 442 73 q 548 197 503 116 q 607 401 593 279 l 607 403 q 487 651 593 566 q 389 719 441 688 l 431 734 q 439 740 435 734 l 458 781 q 458 789 460 785 q 450 793 455 793 l 328 751 q 239 789 286 772 q 238 790 239 790 q 158 825 192 799 q 123 882 123 851 q 175 945 121 930 q 183 957 185 947 q 164 964 182 966 q 34 819 51 949 l 34 816 q 69 726 39 771 q 114 679 87 700 l 69 664 m 307 589 q 370 555 351 568 q 487 339 473 482 q 440 111 501 197 q 408 102 425 92 l 261 189 q 253 203 253 193 l 250 538 q 264 562 250 552 l 296 587 q 307 589 301 591 "},"ñ":{"ha":700,"x_min":42,"x_max":659,"o":"m 271 245 l 271 515 q 275 523 271 519 l 346 578 q 361 577 354 583 l 419 530 l 419 528 l 420 528 q 430 502 430 522 l 429 155 q 553 -22 429 37 q 583 -14 571 -33 q 620 51 602 18 q 658 115 637 83 q 658 138 668 131 q 641 132 648 145 q 593 117 623 99 q 567 202 567 133 l 567 489 q 581 544 567 528 q 612 568 594 561 q 620 578 621 570 q 608 589 620 586 q 510 626 538 601 q 440 694 481 651 q 416 694 423 712 q 362 631 401 665 q 286 565 323 596 q 275 562 280 561 q 268 571 269 564 q 149 694 248 644 l 148 694 q 117 686 128 706 q 80 621 98 654 q 43 557 62 589 q 42 534 33 541 q 59 541 52 526 q 108 555 78 574 q 134 470 134 539 l 134 245 q 90 119 134 136 q 85 109 85 115 q 89 100 85 103 q 192 -22 154 55 q 202 -27 196 -27 q 212 -22 208 -27 q 311 101 250 55 q 316 110 316 104 q 311 119 316 115 q 271 245 270 136 m 519 935 q 505 908 512 916 q 470 894 493 894 q 408 907 449 894 q 349 925 366 920 q 276 937 306 937 q 179 885 215 937 q 153 812 163 860 l 178 812 q 224 852 189 852 q 286 840 248 852 q 419 809 382 809 q 515 859 478 809 q 547 935 536 888 l 519 935 "},"ò":{"ha":574,"x_min":-1,"x_max":539,"o":"m 262 -12 q 342 76 291 46 q 437 149 393 106 q 503 230 474 186 q 539 328 532 273 q 522 446 544 375 q 467 557 500 516 q 395 701 406 627 q 389 710 394 709 q 378 708 384 711 q 57 610 237 625 q 48 605 50 609 q 47 597 45 602 q 48 585 48 593 l 50 239 q 7 149 50 164 q -1 138 -1 146 q 11 127 -1 131 q 237 -12 163 81 q 262 -12 252 -29 m 189 594 q 196 606 189 603 q 237 618 216 611 q 245 618 241 621 q 252 612 250 616 q 332 479 279 533 q 387 395 365 443 q 410 288 409 348 q 352 121 416 191 q 319 115 337 103 l 199 189 q 191 203 191 193 l 189 594 m 111 840 l 241 715 l 266 715 l 212 876 q 172 955 190 940 q 124 972 152 972 q 60 924 60 972 q 111 840 60 890 "},"ó":{"ha":574,"x_min":-1,"x_max":539,"o":"m 262 -12 q 342 76 291 46 q 437 149 393 106 q 503 230 474 186 q 539 328 532 273 q 522 446 544 375 q 467 557 500 516 q 395 701 406 627 q 389 710 394 709 q 378 708 384 711 q 57 610 237 625 q 48 605 50 609 q 47 597 45 602 q 48 585 48 593 l 50 239 q 7 149 50 164 q -1 138 -1 146 q 11 127 -1 131 q 237 -12 163 81 q 262 -12 252 -29 m 189 594 q 196 606 189 603 q 237 618 216 611 q 245 618 241 621 q 252 612 250 616 q 332 479 279 533 q 387 395 365 443 q 410 288 409 348 q 352 121 416 191 q 319 115 337 103 l 199 189 q 191 203 191 193 l 189 594 m 172 714 l 302 839 q 353 923 353 889 q 289 972 353 972 q 241 954 261 972 q 201 876 223 939 l 147 714 l 172 714 "},"ô":{"ha":574,"x_min":-1,"x_max":539,"o":"m 262 -12 q 342 76 291 46 q 437 149 393 106 q 503 230 474 186 q 539 328 532 273 q 522 446 544 375 q 467 557 500 516 q 395 701 406 627 q 389 710 394 709 q 378 708 384 711 q 57 610 237 625 q 48 605 50 609 q 47 597 45 602 q 48 585 48 593 l 50 239 q 7 149 50 164 q -1 138 -1 146 q 11 127 -1 131 q 237 -12 163 81 q 262 -12 252 -29 m 189 594 q 196 606 189 603 q 237 618 216 611 q 245 618 241 621 q 252 612 250 616 q 332 479 279 533 q 387 395 365 443 q 410 288 409 348 q 352 121 416 191 q 319 115 337 103 l 199 189 q 191 203 191 193 l 189 594 m 418 764 q 416 768 418 767 l 259 978 q 254 981 256 981 q 248 978 250 981 l 90 768 q 89 764 89 768 l 89 747 q 93 741 89 742 q 100 742 96 739 l 249 867 q 258 867 253 872 l 407 742 q 414 741 410 739 q 418 747 418 742 l 418 764 "},"õ":{"ha":574,"x_min":-1,"x_max":539,"o":"m 262 -12 q 342 76 291 46 q 437 149 393 106 q 503 230 474 186 q 539 328 532 273 q 522 446 544 375 q 467 557 500 516 q 395 701 406 627 q 389 710 394 709 q 378 708 384 711 q 57 610 237 625 q 48 605 50 609 q 47 597 45 602 q 48 585 48 593 l 50 239 q 7 149 50 164 q -1 138 -1 146 q 11 127 -1 131 q 237 -12 163 81 q 262 -12 252 -29 m 189 594 q 196 606 189 603 q 237 618 216 611 q 245 618 241 621 q 252 612 250 616 q 332 479 279 533 q 387 395 365 443 q 410 288 409 348 q 352 121 416 191 q 319 115 337 103 l 199 189 q 191 203 191 193 l 189 594 m 457 935 q 444 908 450 916 q 408 894 431 894 q 346 907 387 894 q 287 925 304 920 q 214 937 244 937 q 117 885 153 937 q 91 812 101 860 l 117 812 q 163 852 127 852 q 224 840 186 852 q 357 809 321 809 q 453 859 416 809 q 485 935 474 888 l 457 935 "},"ö":{"ha":574,"x_min":-1,"x_max":539,"o":"m 151 984 q 90 963 118 984 q 60 911 62 943 q 70 840 57 879 q 107 802 83 802 q 173 838 132 801 q 219 911 215 875 q 151 984 226 984 m 401 984 q 341 963 369 984 q 311 911 313 943 q 321 840 308 879 q 358 802 334 802 q 424 838 382 801 q 470 911 466 875 q 401 984 477 984 m 262 11 q 342 99 291 69 q 437 172 393 129 q 503 253 474 209 q 539 351 532 296 q 522 469 544 398 q 467 580 500 539 q 395 724 406 650 q 389 733 394 732 q 378 731 384 734 q 57 633 237 648 q 48 628 50 632 q 47 620 45 625 q 48 608 48 616 l 50 262 q 7 172 50 187 q -1 161 -1 169 q 11 151 -1 154 q 237 11 163 104 q 262 11 252 -6 m 189 617 q 196 629 189 626 q 237 642 216 634 q 245 641 241 644 q 252 635 250 639 q 332 503 279 556 q 387 418 365 466 q 410 311 409 371 q 352 144 416 214 q 319 138 337 126 l 199 212 q 191 227 191 216 l 189 617 "},"ø":{"ha":574,"x_min":-1,"x_max":539,"o":"m 484 724 q 468 720 472 729 l 416 631 q 395 701 400 665 q 389 710 394 709 q 378 708 384 711 q 57 610 237 625 q 48 605 50 609 q 47 597 45 602 q 48 585 48 593 l 50 239 q 7 149 50 164 q -1 138 -1 146 q 11 127 -1 131 q 102 92 60 112 l 42 -11 q 46 -26 37 -22 l 69 -40 q 84 -35 79 -45 l 144 68 q 237 -12 200 34 q 262 -12 252 -29 q 342 76 291 46 q 437 149 393 106 q 503 230 474 186 q 539 328 532 273 q 522 446 544 375 q 467 557 500 516 q 445 584 455 570 l 510 695 q 507 711 515 704 l 484 724 m 319 115 l 211 182 l 361 441 q 387 395 376 419 q 410 288 409 348 q 352 121 416 191 q 319 115 337 103 m 189 594 q 196 606 189 603 q 237 618 216 611 q 245 618 241 621 q 252 612 250 616 q 330 482 279 535 l 191 244 l 189 594 "},"ù":{"ha":700,"x_min":41,"x_max":658,"o":"m 429 168 q 425 159 429 161 q 353 103 408 146 q 338 104 345 98 l 279 153 q 269 179 269 159 l 271 526 q 148 703 271 638 l 147 703 q 117 695 128 715 q 80 630 98 663 q 42 567 62 597 q 41 543 32 551 q 58 549 51 536 q 107 564 77 582 q 133 479 133 548 l 133 192 q 119 137 133 153 q 88 114 105 120 q 79 104 80 111 q 92 92 79 97 q 186 55 151 78 q 259 -12 222 32 q 284 -12 273 -28 q 337 51 298 16 q 414 116 376 85 q 424 118 417 120 q 432 111 431 116 q 551 -12 450 37 q 583 -4 571 -24 q 619 60 601 27 q 657 123 637 92 q 657 147 667 140 q 640 141 648 154 q 592 126 621 107 q 566 212 566 142 l 566 450 q 610 576 565 564 q 615 585 615 579 q 610 595 615 591 q 507 716 543 638 q 497 722 504 722 q 488 716 490 722 q 388 594 448 637 q 383 585 383 590 q 388 576 383 580 q 429 450 429 564 l 429 168 m 270 831 l 399 707 l 425 707 l 370 868 q 331 947 349 932 q 283 964 311 964 q 218 916 218 964 q 270 831 218 882 "},"ú":{"ha":700,"x_min":41,"x_max":658,"o":"m 429 168 q 425 159 429 161 q 353 103 408 146 q 338 104 345 98 l 279 153 q 269 179 269 159 l 271 526 q 148 703 271 638 l 147 703 q 117 695 128 715 q 80 630 98 663 q 42 567 62 597 q 41 543 32 551 q 58 549 51 536 q 107 564 77 582 q 133 479 133 548 l 133 192 q 119 137 133 153 q 88 114 105 120 q 79 104 80 111 q 92 92 79 97 q 186 55 151 78 q 259 -12 222 32 q 284 -12 273 -28 q 337 51 298 16 q 414 116 376 85 q 424 118 417 120 q 432 111 431 116 q 551 -12 450 37 q 583 -4 571 -24 q 619 60 601 27 q 657 123 637 92 q 657 147 667 140 q 640 141 648 154 q 592 126 621 107 q 566 212 566 142 l 566 450 q 610 576 565 564 q 615 585 615 579 q 610 595 615 591 q 507 716 543 638 q 497 722 504 722 q 488 716 490 722 q 388 594 448 637 q 383 585 383 590 q 388 576 383 580 q 429 450 429 564 l 429 168 m 235 714 l 364 839 q 416 923 416 889 q 351 972 416 972 q 303 954 323 972 q 264 876 286 939 l 210 714 l 235 714 "},"û":{"ha":700,"x_min":41,"x_max":658,"o":"m 429 168 q 425 159 429 161 q 353 103 408 146 q 338 104 345 98 l 279 153 q 269 179 269 159 l 271 526 q 148 703 271 638 l 147 703 q 117 695 128 715 q 80 630 98 663 q 42 567 62 597 q 41 543 32 551 q 58 549 51 536 q 107 564 77 582 q 133 479 133 548 l 133 192 q 119 137 133 153 q 88 114 105 120 q 79 104 80 111 q 92 92 79 97 q 186 55 151 78 q 259 -12 222 32 q 284 -12 273 -28 q 337 51 298 16 q 414 116 376 85 q 424 118 417 120 q 432 111 431 116 q 551 -12 450 37 q 583 -4 571 -24 q 619 60 601 27 q 657 123 637 92 q 657 147 667 140 q 640 141 648 154 q 592 126 621 107 q 566 212 566 142 l 566 450 q 610 576 565 564 q 615 585 615 579 q 610 595 615 591 q 507 716 543 638 q 497 722 504 722 q 488 716 490 722 q 388 594 448 637 q 383 585 383 590 q 388 576 383 580 q 429 450 429 564 l 429 168 m 514 764 q 513 768 514 767 l 355 978 q 350 981 353 981 q 344 978 347 981 l 186 768 q 185 764 185 768 l 185 747 q 189 741 185 742 q 197 742 193 739 l 345 867 q 354 867 349 872 l 503 742 q 511 741 507 739 q 514 747 514 742 l 514 764 "},"ü":{"ha":700,"x_min":41,"x_max":658,"o":"m 505 984 q 444 963 472 984 q 414 911 416 943 q 424 840 411 879 q 461 802 437 802 q 527 838 486 801 q 573 911 569 875 q 505 984 580 984 m 213 984 q 152 963 180 984 q 122 911 124 943 q 132 840 119 879 q 170 802 145 802 q 236 838 194 801 q 281 911 277 875 q 213 984 288 984 m 429 168 q 425 159 429 161 q 353 103 408 146 q 338 104 345 98 l 279 153 q 269 179 269 159 l 271 526 q 148 703 271 638 l 147 703 q 117 695 128 715 q 80 630 98 663 q 42 567 62 597 q 41 543 32 551 q 58 549 51 536 q 107 564 77 582 q 133 479 133 548 l 133 192 q 119 137 133 153 q 88 114 105 120 q 79 104 80 111 q 92 92 79 97 q 186 55 151 78 q 259 -12 222 32 q 284 -12 273 -28 q 337 51 298 16 q 414 116 376 85 q 424 118 417 120 q 432 111 431 116 q 551 -12 450 37 q 583 -4 571 -24 q 619 60 601 27 q 657 123 637 92 q 657 147 667 140 q 640 141 648 154 q 592 126 621 107 q 566 212 566 142 l 566 450 q 610 576 565 564 q 615 585 615 579 q 610 595 615 591 q 507 716 543 638 q 497 722 504 722 q 488 716 490 722 q 388 594 448 637 q 383 585 383 590 q 388 576 383 580 q 429 450 429 564 l 429 168 "},"ý":{"ha":650,"x_min":41,"x_max":620,"o":"m 282 595 q 272 596 277 593 q 266 604 267 599 q 240 662 260 637 q 167 703 220 687 q 118 746 121 717 q 145 807 115 776 q 145 824 154 817 q 123 818 136 831 q 42 692 54 754 q 90 580 29 631 q 118 551 104 568 q 134 504 133 535 q 135 350 136 429 q 133 193 133 271 q 90 104 134 119 q 81 94 81 101 q 94 81 81 86 q 176 36 159 51 q 225 -16 193 21 q 250 -16 243 -32 q 302 53 270 20 q 369 120 334 85 q 370 137 379 130 q 350 136 361 144 l 319 112 q 275 157 277 95 q 273 338 274 248 q 271 559 272 428 q 276 569 271 566 q 370 578 338 604 q 450 452 428 528 q 477 291 473 376 q 389 -27 486 73 q 195 -212 291 -127 q 192 -229 184 -221 q 215 -227 199 -237 q 479 7 334 -146 q 620 359 624 160 q 526 612 616 496 q 491 650 510 631 q 470 695 472 670 q 441 704 465 729 q 365 644 406 670 q 282 595 323 618 m 308 723 l 437 848 q 489 932 489 898 q 425 981 489 981 q 376 963 397 981 q 337 884 359 948 l 283 723 l 308 723 "},"þ":{"ha":626,"x_min":5,"x_max":596,"o":"m 102 643 l 107 262 l 109 227 q 99 216 109 216 q 5 100 5 210 q 11 88 5 90 q 24 92 18 85 q 121 98 52 123 q 128 88 127 96 q 148 -91 135 2 q 174 -267 160 -184 q 185 -276 176 -275 q 197 -267 194 -276 q 223 -125 211 -195 q 244 19 236 -54 q 249 28 244 26 q 260 28 254 31 q 294 8 277 18 q 328 -12 311 -1 q 343 -9 336 -18 q 496 149 397 65 q 596 368 587 225 q 522 579 606 485 q 479 630 500 604 q 452 692 458 656 q 445 701 450 698 q 434 699 439 703 q 257 579 343 629 q 247 579 252 577 q 241 588 241 581 l 240 594 l 240 762 q 280 903 240 865 q 388 942 321 942 q 404 955 405 942 q 388 968 404 967 q 234 929 305 970 q 123 819 163 887 q 113 814 119 814 q 103 821 106 814 q 75 865 92 844 q 43 906 58 887 q 21 909 30 918 q 22 891 13 901 q 81 797 60 853 q 102 643 102 741 m 252 189 q 252 245 252 226 q 242 538 243 530 q 249 549 242 545 q 373 541 337 591 q 437 432 408 489 q 465 302 467 374 q 446 185 464 232 q 408 106 429 138 q 393 102 403 98 q 326 141 359 121 q 258 178 293 161 q 252 189 252 180 "},"ÿ":{"ha":650,"x_min":41,"x_max":620,"o":"m 264 983 q 203 963 231 983 q 173 911 175 942 q 183 840 170 878 q 220 801 196 801 q 287 837 245 800 q 332 911 328 874 q 264 983 339 983 m 480 984 q 419 963 448 984 q 389 911 391 943 q 399 840 387 879 q 437 802 412 802 q 503 838 461 801 q 549 911 545 875 q 480 984 555 984 m 282 595 q 272 596 277 593 q 266 604 267 599 q 240 662 260 637 q 167 703 220 687 q 118 746 121 717 q 145 807 115 776 q 145 824 154 817 q 123 818 136 831 q 42 692 54 754 q 90 580 29 631 q 118 551 104 568 q 134 504 133 535 q 135 350 136 429 q 133 193 133 271 q 90 104 134 119 q 81 94 81 101 q 94 81 81 86 q 176 36 159 51 q 225 -16 193 21 q 250 -16 243 -32 q 302 53 270 20 q 369 120 334 85 q 370 137 379 130 q 350 136 361 144 l 319 112 q 275 157 277 95 q 273 338 274 248 q 271 559 272 428 q 276 569 271 566 q 370 578 338 604 q 450 452 428 528 q 477 291 473 376 q 389 -27 486 73 q 195 -212 291 -127 q 192 -229 184 -221 q 215 -227 199 -237 q 479 7 334 -146 q 620 359 624 160 q 526 612 616 496 q 491 650 510 631 q 470 695 472 670 q 441 704 465 729 q 365 644 406 670 q 282 595 323 618 "},"Œ":{"ha":1537,"x_min":37,"x_max":1516,"o":"m 1130 852 q 1170 863 1150 862 q 1332 806 1215 863 q 1356 797 1347 798 q 1372 802 1365 797 q 1430 855 1400 828 q 1495 916 1460 882 q 1497 936 1505 927 q 1473 934 1489 944 q 1405 936 1439 918 q 1349 966 1371 954 q 1296 994 1324 979 q 1244 992 1267 1009 q 1134 895 1194 939 l 1131 894 q 1124 895 1127 893 q 1117 901 1119 895 q 1065 977 1103 945 q 965 1008 1027 1008 q 747 900 838 1008 q 477 995 624 976 q 466 989 469 996 q 369 889 433 928 q 207 804 305 850 q 46 596 50 722 q 214 405 42 470 q 363 335 330 360 q 363 271 397 309 q 362 253 354 260 q 383 256 370 245 q 486 423 494 348 q 292 566 477 498 q 184 672 193 602 q 238 780 175 741 q 457 819 338 841 q 657 739 559 800 q 625 467 616 618 q 771 146 635 311 q 790 125 781 136 q 683 81 742 89 q 444 169 583 67 q 247 276 304 272 q 41 162 190 280 q 37 143 30 152 q 54 141 44 135 q 159 139 103 172 q 282 64 215 106 q 585 -9 433 -32 q 812 102 702 9 q 1115 -17 937 -17 q 1485 111 1323 -17 q 1493 135 1500 124 q 1469 138 1486 146 q 1267 87 1363 87 q 957 199 1093 87 q 797 518 821 311 q 789 631 790 578 q 798 747 796 698 q 826 846 806 802 q 976 967 879 967 q 1093 874 1073 967 q 1088 862 1094 867 q 1046 835 1075 852 q 1013 816 1017 818 q 896 666 896 743 q 1035 454 895 582 q 1132 353 1104 391 q 1157 288 1159 315 q 1076 188 1155 246 q 1070 165 1063 176 q 1095 164 1078 155 q 1318 377 1325 290 q 1236 523 1312 439 q 1234 534 1232 528 q 1242 541 1236 540 q 1335 498 1274 548 q 1439 491 1392 450 q 1479 534 1462 511 q 1514 580 1497 557 q 1515 608 1526 598 q 1487 606 1505 618 q 1393 633 1454 585 q 1322 665 1358 660 q 1248 625 1286 669 q 1204 572 1221 593 q 1197 568 1201 568 q 1188 571 1193 567 q 1131 623 1166 591 q 1048 749 1046 696 q 1104 835 1048 791 q 1130 852 1117 845 "},"œ":{"ha":867,"x_min":-1,"x_max":838,"o":"m 602 -19 q 613 -28 602 -26 q 631 -25 625 -29 q 721 36 671 7 q 825 93 770 65 q 830 105 834 97 q 813 107 827 113 q 658 120 736 77 q 547 313 580 162 q 553 326 545 321 l 831 433 l 833 433 q 838 456 844 438 l 740 686 q 715 703 732 706 q 608 666 660 688 q 515 607 555 643 q 469 554 489 583 q 467 557 467 555 q 395 701 406 627 q 389 710 394 709 q 378 708 384 711 q 57 610 237 625 q 48 605 50 609 q 47 597 45 602 q 48 585 48 593 l 50 239 q 7 149 50 164 q -1 138 -1 146 q 11 127 -1 131 q 237 -12 163 81 q 262 -12 252 -29 q 342 76 291 46 q 437 149 393 106 q 444 157 441 153 l 447 151 q 557 22 479 75 q 584 5 568 14 q 602 -19 600 -3 m 189 594 q 196 606 189 603 q 237 618 216 611 q 245 618 241 621 q 252 612 250 616 q 332 479 279 533 q 387 395 365 443 q 410 288 409 348 q 352 121 416 191 q 319 115 337 103 l 199 189 q 191 203 191 193 l 189 594 m 539 360 q 536 388 538 373 q 543 526 531 456 q 597 631 557 608 q 621 627 615 642 l 704 424 q 698 410 708 414 l 553 355 q 543 355 547 353 q 539 360 541 357 "},"Š":{"ha":1053,"x_min":38,"x_max":1002,"o":"m 382 1241 q 384 1237 382 1238 l 541 1027 q 547 1025 544 1025 q 553 1027 550 1025 l 710 1237 q 711 1241 711 1238 l 711 1258 q 707 1265 711 1263 q 700 1263 704 1266 l 551 1139 q 543 1139 547 1133 l 393 1263 q 386 1265 390 1266 q 382 1258 382 1263 l 382 1241 m 937 914 q 847 882 914 884 q 570 984 781 880 q 522 987 545 996 q 38 472 43 795 q 196 114 34 243 q 551 -16 358 -16 q 784 38 682 -16 q 947 183 886 92 q 999 293 979 232 q 1002 429 1019 354 q 917 570 981 514 q 784 642 852 625 q 667 635 713 659 q 568 582 621 611 q 427 513 491 537 q 322 549 363 489 q 297 560 310 568 q 298 535 284 553 q 473 371 410 381 q 675 450 536 361 q 869 511 782 517 q 971 406 957 505 q 884 220 988 282 q 635 155 779 157 q 289 259 429 149 q 144 531 149 368 q 162 665 142 600 q 249 794 182 730 q 396 856 317 860 q 571 804 475 852 q 714 744 663 757 q 817 762 764 732 q 881 810 846 779 q 966 890 915 842 q 969 921 985 908 q 937 914 953 933 "},"š":{"ha":580,"x_min":35,"x_max":545,"o":"m 88 1087 q 90 1083 88 1084 l 247 873 q 252 871 250 871 q 258 873 256 871 l 416 1083 q 417 1087 417 1084 l 417 1104 q 413 1111 417 1109 q 406 1109 410 1112 l 257 985 q 248 985 253 979 l 99 1109 q 92 1111 96 1112 q 88 1104 88 1109 l 88 1087 m 263 840 q 246 822 243 836 q 267 814 250 808 q 429 808 355 844 q 500 741 478 781 q 503 663 522 701 q 424 627 485 627 q 273 709 363 628 q 258 712 264 717 q 166 632 215 668 q 79 554 118 597 q 36 448 38 508 q 100 318 33 387 q 136 268 126 290 q 115 218 146 246 q 76 180 96 199 q 38 142 56 161 q 40 122 26 127 q 190 68 119 96 q 269 3 260 40 q 300 0 275 -24 q 402 103 351 52 q 500 212 454 155 q 520 307 534 253 q 414 441 506 361 q 420 499 385 467 q 457 530 437 515 q 508 572 477 545 q 545 656 538 600 q 521 758 551 712 q 437 829 491 803 q 263 840 358 865 m 155 231 l 250 329 q 309 342 285 357 q 420 166 462 233 q 352 127 386 113 q 255 170 303 148 q 159 214 207 191 q 155 231 148 220 m 248 372 q 139 473 184 425 q 140 576 94 522 q 199 603 176 618 q 297 545 222 588 q 382 515 344 519 q 393 509 391 515 q 389 496 395 503 l 263 373 q 248 372 256 366 "},"Ÿ":{"ha":1190,"x_min":31,"x_max":1154,"o":"m 258 481 q 127 540 174 484 q 81 675 81 596 q 142 808 81 755 q 281 859 203 861 q 477 779 404 869 q 555 602 551 688 q 531 438 558 528 q 461 283 505 349 q 384 195 429 234 q 300 114 340 156 q 294 88 285 98 q 317 89 302 78 q 433 64 365 127 q 558 3 495 7 q 661 56 621 -1 q 704 112 679 80 q 766 184 730 144 q 764 210 777 201 q 736 203 751 219 q 655 151 699 161 q 547 192 611 141 q 478 235 501 224 q 471 243 472 236 q 475 253 471 250 q 594 387 537 309 q 681 602 650 464 q 682 762 699 684 q 690 864 671 819 q 758 916 710 909 q 846 882 817 922 q 887 787 875 842 q 926 685 901 717 q 976 642 951 654 q 982 632 982 637 q 976 622 982 627 q 829 486 856 558 q 869 304 802 413 q 921 -22 983 119 q 645 -173 858 -163 q 448 -133 532 -173 q 294 -16 365 -93 q 274 -11 283 -3 q 273 -29 264 -18 q 435 -165 343 -117 q 653 -216 528 -213 q 810 -192 732 -218 q 964 -111 888 -165 q 1117 101 1084 -18 q 1057 384 1150 221 q 990 574 975 523 q 1133 678 1004 625 q 1153 700 1157 687 q 1133 710 1149 713 q 1067 831 1105 705 q 963 970 1039 922 q 801 996 888 1018 q 699 936 737 979 q 650 838 660 892 q 527 954 606 912 q 357 995 448 995 q 124 905 217 995 q 31 701 31 815 q 98 518 31 587 q 271 446 165 448 q 431 517 355 444 q 431 533 441 526 q 409 529 420 541 q 258 481 349 477 m 458 1231 q 398 1210 426 1231 q 368 1158 370 1190 q 378 1087 365 1126 q 415 1048 391 1048 q 481 1085 439 1048 q 527 1158 523 1122 q 458 1231 534 1231 m 750 1231 q 689 1210 718 1231 q 659 1158 661 1190 q 669 1087 656 1126 q 707 1048 682 1048 q 773 1085 731 1048 q 819 1158 814 1122 q 750 1231 825 1231 "},"Ž":{"ha":925,"x_min":32,"x_max":888,"o":"m 309 1261 q 311 1257 309 1259 l 468 1048 q 473 1045 471 1045 q 479 1048 477 1045 l 637 1257 q 638 1261 638 1258 l 638 1278 q 634 1285 638 1284 q 627 1284 631 1286 l 478 1159 q 469 1159 474 1154 l 320 1284 q 313 1285 317 1286 q 309 1278 309 1284 l 309 1261 m 353 576 q 249 617 286 580 q 217 725 212 654 q 275 836 223 796 q 422 877 326 876 q 614 829 544 878 q 678 691 684 779 q 590 539 672 597 q 369 457 507 481 q 343 433 340 453 q 373 418 347 414 q 709 265 577 464 q 762 101 762 184 q 705 -34 762 19 q 553 -79 629 -105 q 383 56 477 -54 q 229 150 310 142 q 41 58 149 159 q 32 29 22 41 q 56 28 42 17 q 130 41 96 58 q 222 -35 163 24 q 431 -156 310 -125 q 743 -50 551 -187 q 850 78 809 -1 q 888 262 890 157 q 825 427 886 357 q 664 524 764 496 q 654 533 654 526 q 661 545 653 541 q 777 626 730 574 q 823 768 823 678 q 727 942 821 869 q 517 1015 633 1015 q 262 948 359 1017 q 157 765 166 878 q 206 598 149 652 q 345 542 264 543 q 373 558 372 542 q 353 576 375 575 "},"ž":{"ha":463,"x_min":38,"x_max":429,"o":"m 65 977 q 66 973 65 975 l 224 764 q 229 761 227 761 q 235 764 233 761 l 393 973 q 394 977 394 974 l 394 994 q 390 1001 394 1000 q 382 1000 387 1002 l 234 875 q 225 875 230 869 l 76 1000 q 68 1001 73 1002 q 65 994 65 1000 l 65 977 m 90 561 q 178 580 140 590 q 231 520 216 570 q 190 414 246 471 q 58 313 133 357 q 62 290 32 297 q 167 257 122 281 q 169 239 180 252 q 38 -50 38 113 q 91 -197 38 -138 q 203 -255 144 -255 q 356 -159 281 -255 q 429 54 431 -63 q 398 220 427 166 q 317 312 369 273 q 318 330 304 322 q 419 387 355 356 q 427 403 431 393 q 404 405 422 412 q 290 338 345 376 q 278 336 285 334 q 211 366 248 353 q 203 375 203 369 q 208 385 202 381 q 349 520 302 448 q 283 678 395 592 q 258 689 269 688 q 245 706 248 690 q 231 719 241 718 q 208 705 220 721 q 144 641 177 671 q 79 581 111 611 q 72 563 68 572 q 90 561 76 553 m 203 -231 q 121 -176 144 -231 q 97 -51 97 -122 q 193 227 98 117 q 208 228 200 236 q 301 12 288 158 q 282 -176 313 -122 q 203 -231 252 -231 "},"ſ":{"ha":339,"x_min":-3,"x_max":413,"o":"m 76 621 q 84 618 82 621 q 87 610 86 615 q 123 206 106 408 q 158 -208 141 -1 q 171 -231 159 -229 q 185 -210 182 -233 l 254 504 q 247 646 262 597 q 161 731 232 694 q 131 826 117 753 q 224 863 145 899 q 346 850 307 823 q 412 954 385 877 q 413 982 422 980 q 396 968 404 985 q 338 955 379 942 q 248 984 297 967 q 128 948 158 1013 q 103 786 98 882 q 78 687 107 725 q 5 642 49 649 q -3 630 -3 640 q 7 621 -3 621 l 76 621 "},"ƒ":{"ha":339,"x_min":-72,"x_max":403,"o":"m 83 621 q 92 613 90 621 l 93 -46 q 53 -187 93 -149 q -55 -226 12 -226 q -72 -239 -72 -226 q -55 -252 -71 -252 q 99 -213 28 -254 q 210 -103 170 -171 q 220 -98 214 -98 q 230 -104 227 -98 q 258 -149 241 -127 q 290 -190 275 -171 q 312 -196 301 -203 q 311 -175 323 -188 q 252 -81 273 -137 q 233 60 231 -24 l 237 612 q 240 622 237 618 q 248 625 243 625 l 339 622 q 350 633 350 622 l 350 675 q 339 686 350 686 l 222 686 q 206 693 214 686 q 151 731 193 708 q 122 826 108 753 q 215 863 136 899 q 336 850 297 823 q 402 952 375 877 q 402 980 411 977 q 387 968 394 983 q 329 955 370 942 q 238 984 288 967 q 119 948 149 1013 q 94 786 89 882 q 68 687 98 725 q -5 642 39 649 q -13 630 -13 640 q -2 621 -12 621 l 83 621 "},"ˆ":{"ha":581,"x_min":126,"x_max":455,"o":"m 455 764 q 454 768 455 767 l 296 978 q 291 981 294 981 q 285 978 288 981 l 127 768 q 126 764 126 768 l 126 747 q 130 741 126 742 q 138 742 134 739 l 286 867 q 295 867 290 872 l 444 742 q 452 741 448 739 q 455 747 455 742 l 455 764 "},"ˇ":{"ha":581,"x_min":126,"x_max":455,"o":"m 126 956 q 127 952 126 954 l 285 743 q 290 740 288 740 q 296 743 294 740 l 454 952 q 455 956 455 953 l 455 973 q 451 980 455 979 q 444 979 448 981 l 295 854 q 286 854 291 848 l 137 979 q 130 980 134 981 q 126 973 126 979 l 126 956 "},"˚":{"ha":640,"x_min":165,"x_max":486,"o":"m 326 1052 q 212 1007 259 1052 q 165 899 165 962 q 212 791 165 836 q 326 746 259 746 q 439 791 392 746 q 486 899 486 836 q 439 1007 486 962 q 326 1052 392 1052 m 326 1006 q 368 974 361 1006 q 375 897 375 942 q 368 820 375 852 q 326 788 361 788 q 283 820 290 788 q 277 897 277 852 q 283 974 277 942 q 326 1006 290 1006 "},"˜":{"ha":694,"x_min":135,"x_max":529,"o":"m 501 935 q 488 908 494 916 q 452 894 475 894 q 390 907 431 894 q 331 925 349 920 q 258 937 288 937 q 161 885 197 937 q 135 812 145 860 l 161 812 q 207 852 172 852 q 269 840 231 852 q 401 809 365 809 q 497 859 460 809 q 529 935 518 888 l 501 935 "},"̀":{"ha":0,"x_min":-469,"x_max":-263,"o":"m -418 840 l -288 715 l -263 715 l -317 876 q -357 955 -339 940 q -405 972 -377 972 q -469 924 -469 972 q -418 840 -469 890 "},"́":{"ha":0,"x_min":-405,"x_max":-199,"o":"m -380 714 l -250 839 q -199 923 -199 889 q -263 972 -199 972 q -311 954 -291 972 q -351 876 -329 939 l -405 714 l -380 714 "},"̂":{"ha":0,"x_min":-455,"x_max":-126,"o":"m -126 764 q -127 768 -126 767 l -285 978 q -290 981 -288 981 q -296 978 -294 981 l -454 768 q -455 764 -455 768 l -455 747 q -451 741 -455 742 q -444 742 -448 739 l -295 867 q -286 867 -291 872 l -137 742 q -130 741 -134 739 q -126 747 -126 742 l -126 764 "},"̃":{"ha":0,"x_min":-559,"x_max":-165,"o":"m -193 935 q -207 908 -200 916 q -242 894 -219 894 q -304 907 -263 894 q -363 925 -346 920 q -436 937 -406 937 q -533 885 -497 937 q -559 812 -549 860 l -534 812 q -488 852 -523 852 q -426 840 -464 852 q -293 809 -330 809 q -197 859 -234 809 q -165 935 -176 888 l -193 935 "},"̄":{"ha":0,"x_min":-650,"x_max":-62,"o":"m -639 905 q -650 894 -650 905 l -650 817 q -639 805 -650 805 l -73 805 q -62 817 -62 805 l -62 894 q -73 905 -62 905 l -639 905 "},"̈":{"ha":0,"x_min":-519,"x_max":-68,"o":"m -429 984 q -489 963 -461 984 q -519 911 -517 943 q -509 840 -522 879 q -472 802 -496 802 q -406 838 -448 801 q -360 911 -364 875 q -429 984 -353 984 m -137 984 q -198 963 -170 984 q -228 911 -226 943 q -218 840 -231 879 q -180 802 -205 802 q -114 838 -156 801 q -68 911 -73 875 q -137 984 -62 984 "},"̊":{"ha":0,"x_min":-474,"x_max":-153,"o":"m -314 1052 q -427 1007 -380 1052 q -474 899 -474 962 q -427 791 -474 836 q -314 746 -380 746 q -200 791 -248 746 q -153 899 -153 836 q -200 1007 -153 962 q -314 1052 -248 1052 m -314 1006 q -272 974 -279 1006 q -264 897 -264 942 q -272 820 -264 852 q -314 788 -279 788 q -356 820 -349 788 q -363 897 -363 852 q -356 974 -363 942 q -314 1006 -349 1006 "},"̌":{"ha":0,"x_min":-455,"x_max":-126,"o":"m -455 956 q -454 952 -455 954 l -296 743 q -291 740 -294 740 q -285 743 -288 740 l -127 952 q -126 956 -126 953 l -126 973 q -130 980 -126 979 q -138 979 -134 981 l -286 854 q -295 854 -290 848 l -444 979 q -452 980 -448 981 q -455 973 -455 979 l -455 956 "},"̧":{"ha":0,"x_min":-476,"x_max":-154,"o":"m -318 0 l -406 -133 l -386 -153 q -349 -144 -369 -144 q -309 -156 -326 -144 q -292 -193 -292 -169 q -320 -242 -292 -226 q -382 -256 -343 -256 q -463 -243 -425 -256 l -476 -273 q -425 -287 -457 -281 q -322 -298 -366 -298 q -214 -279 -256 -298 q -154 -190 -154 -252 q -191 -119 -154 -146 q -275 -94 -225 -94 q -339 -104 -302 -94 l -272 0 l -318 0 "},"ẞ":{"ha":881,"x_min":-3,"x_max":855,"o":"m 224 55 q 242 51 232 50 q 260 58 252 52 l 390 175 q 393 194 400 184 q 372 197 385 203 q 268 269 269 160 l 270 739 q 305 905 268 860 q 431 941 342 951 q 580 855 520 930 q 634 691 640 779 q 546 539 628 597 q 369 469 463 481 q 343 445 340 465 q 373 429 347 425 q 673 219 533 464 q 742 -11 738 92 q 669 -191 745 -113 q 517 -236 593 -262 q 348 -100 441 -210 q 194 -6 275 -15 q 5 -98 113 2 q -3 -127 -14 -115 q 21 -128 7 -140 q 94 -115 60 -98 q 187 -191 128 -132 q 395 -313 275 -281 q 707 -207 516 -344 q 855 128 859 -69 q 785 368 851 264 q 620 524 718 471 q 610 533 610 526 q 617 545 609 541 q 733 626 686 574 q 779 768 779 678 q 687 945 777 869 q 473 1015 597 1020 q 321 973 377 1016 q 225 872 265 930 q 62 809 184 814 q 60 777 29 791 q 98 711 98 762 q 105 232 105 241 q 132 117 108 149 q 224 55 155 88 "},"‌":{"ha":1,"x_min":0,"x_max":0,"o":""},"‍":{"ha":1,"x_min":0,"x_max":0,"o":""},"–":{"ha":538,"x_min":32,"x_max":510,"o":"m 43 465 q 32 453 32 465 l 32 376 q 43 364 32 364 l 499 364 q 510 376 510 364 l 510 453 q 499 465 510 465 l 43 465 "},"—":{"ha":719,"x_min":32,"x_max":688,"o":"m 43 465 q 32 453 32 465 l 32 376 q 43 364 32 364 l 677 364 q 688 376 688 364 l 688 453 q 677 465 688 465 l 43 465 "},"‘":{"ha":275,"x_min":30,"x_max":233,"o":"m 233 714 q 233 733 251 726 q 133 844 141 778 q 167 974 125 910 q 161 987 171 981 q 147 983 153 990 q 70 857 110 934 q 30 724 30 781 q 35 714 30 717 q 124 625 92 685 q 144 625 133 608 q 233 714 180 680 "},"’":{"ha":304,"x_min":51,"x_max":254,"o":"m 51 884 q 51 865 33 872 q 150 754 142 821 q 117 625 158 688 q 123 612 113 618 q 136 615 130 608 q 214 741 174 665 q 254 875 254 818 q 248 884 254 882 q 159 974 191 913 q 140 974 151 990 q 51 884 104 918 "},"‚":{"ha":267,"x_min":31,"x_max":234,"o":"m 31 108 q 31 89 13 96 q 131 -22 123 44 q 97 -152 138 -88 q 103 -165 93 -159 q 117 -161 111 -168 q 194 -35 154 -112 q 234 98 234 41 q 229 108 234 105 q 140 197 172 137 q 120 197 131 214 q 31 108 84 142 "},"“":{"ha":545,"x_min":39,"x_max":501,"o":"m 241 714 q 241 733 260 726 q 142 844 150 778 q 176 974 134 910 q 170 987 180 981 q 156 983 162 990 q 79 857 119 934 q 39 724 39 781 q 44 714 39 717 q 133 625 101 685 q 153 625 142 608 q 241 714 189 680 m 501 714 q 501 733 519 726 q 402 844 410 778 q 435 974 394 910 q 429 987 439 981 q 416 983 422 990 q 338 857 378 934 q 298 724 298 781 q 304 714 298 717 q 393 625 361 685 q 412 625 401 608 q 501 714 448 680 "},"”":{"ha":567,"x_min":51,"x_max":513,"o":"m 311 884 q 311 865 292 872 q 410 754 402 821 q 376 625 418 688 q 382 612 372 618 q 396 615 390 608 q 473 741 433 665 q 513 875 513 818 q 508 884 513 882 q 419 974 451 913 q 399 974 410 990 q 311 884 363 918 m 51 884 q 51 865 33 872 q 150 754 142 821 q 117 625 158 688 q 123 612 113 618 q 136 615 130 608 q 214 741 174 665 q 254 875 254 818 q 248 884 254 882 q 159 974 191 913 q 140 974 151 990 q 51 884 104 918 "},"„":{"ha":511,"x_min":28,"x_max":488,"o":"m 286 108 q 286 89 267 96 q 385 -22 377 44 q 351 -152 393 -88 q 357 -165 347 -159 q 371 -161 365 -168 q 448 -35 408 -112 q 488 98 488 41 q 483 108 488 105 q 394 197 426 137 q 374 197 385 214 q 286 108 338 142 m 28 108 q 28 89 10 96 q 128 -22 120 44 q 94 -152 136 -88 q 100 -165 90 -159 q 114 -161 108 -168 q 191 -35 151 -112 q 231 98 231 41 q 226 108 231 105 q 137 197 169 137 q 117 197 128 214 q 28 108 81 142 "},"†":{"ha":618,"x_min":37,"x_max":583,"o":"m 401 900 q 321 980 354 928 q 303 980 311 994 q 220 894 273 924 q 220 876 203 885 q 268 817 251 857 q 289 728 285 776 q 286 720 290 724 q 278 717 283 717 q 191 742 231 722 q 133 795 151 761 q 116 795 125 810 q 37 715 88 750 q 37 697 24 705 q 122 612 92 667 q 139 612 130 599 q 195 659 157 642 q 277 682 233 677 q 285 679 281 682 q 288 671 289 675 q 266 587 283 625 q 220 532 249 548 q 220 514 203 523 q 303 -212 273 417 q 321 -212 311 -226 q 401 508 355 412 q 401 526 415 517 q 347 582 366 542 q 323 673 327 623 q 325 680 321 676 q 334 683 330 684 q 421 661 380 679 q 480 612 463 644 q 498 612 488 596 q 583 697 528 668 q 583 715 596 705 q 503 795 531 749 q 486 795 494 814 q 427 739 469 759 q 333 716 384 720 q 325 720 328 716 q 322 727 322 722 q 345 821 326 777 q 401 882 365 864 q 401 900 415 890 "},"‡":{"ha":618,"x_min":37,"x_max":583,"o":"m 401 900 q 321 980 354 928 q 303 980 311 994 q 220 894 273 924 q 220 876 203 885 q 268 817 251 857 q 289 728 285 776 q 286 720 290 724 q 278 717 283 717 q 191 742 231 722 q 133 795 151 761 q 116 795 125 810 q 37 715 88 750 q 37 697 24 705 q 122 612 92 667 q 139 612 130 599 q 195 659 157 642 q 277 682 233 677 q 285 679 281 682 q 288 671 289 675 q 266 587 283 625 q 220 532 249 548 q 220 514 203 523 q 282 366 286 467 q 219 227 278 266 q 219 210 205 218 q 273 153 254 193 q 297 62 293 113 q 295 56 298 59 q 286 52 290 52 q 198 74 239 56 q 140 123 157 92 q 122 123 132 139 q 37 38 92 67 q 37 20 24 30 q 117 -60 89 -14 q 134 -60 126 -79 q 193 -4 151 -24 q 287 19 236 16 q 295 16 292 19 q 298 8 298 14 q 275 -85 294 -42 q 219 -147 255 -129 q 219 -165 205 -155 q 299 -245 266 -193 q 317 -245 309 -258 q 400 -159 347 -189 q 400 -141 416 -150 q 352 -81 369 -122 q 331 7 335 -41 q 334 15 330 12 q 342 18 337 18 q 429 -6 389 13 q 487 -60 469 -26 q 504 -60 494 -75 q 583 20 532 -15 q 583 38 596 30 q 498 123 528 68 q 481 123 490 136 q 425 76 463 94 q 342 54 387 58 q 335 56 338 53 q 332 64 331 60 q 354 149 336 110 q 400 203 371 187 q 400 221 416 212 q 335 368 338 267 q 401 508 331 470 q 401 526 415 517 q 347 582 366 542 q 323 673 327 623 q 325 680 321 676 q 334 683 330 684 q 421 661 380 679 q 480 612 463 644 q 498 612 488 596 q 583 697 528 668 q 583 715 596 705 q 503 795 531 749 q 486 795 494 814 q 427 739 469 759 q 333 716 384 720 q 325 720 328 716 q 322 727 322 722 q 345 821 326 777 q 401 882 365 864 q 401 900 415 890 "},"•":{"ha":418,"x_min":54,"x_max":350,"o":"m 54 465 q 54 436 29 448 q 187 302 143 384 q 216 302 201 273 q 350 436 260 392 q 350 465 378 450 q 216 599 264 508 q 187 599 203 623 q 54 465 133 515 "},"…":{"ha":836,"x_min":36,"x_max":791,"o":"m 36 108 q 36 89 20 97 q 125 0 96 54 q 144 0 134 -20 q 233 89 174 60 q 233 108 252 98 q 144 197 176 137 q 125 197 136 214 q 36 108 89 142 m 315 108 q 315 89 298 97 q 404 0 374 54 q 423 0 413 -20 q 512 89 452 60 q 512 108 531 98 q 423 197 455 137 q 404 197 414 214 q 315 108 368 142 m 593 108 q 593 89 577 97 q 682 0 653 54 q 702 0 692 -20 q 791 89 731 60 q 791 108 810 98 q 702 197 734 137 q 682 197 693 214 q 593 108 646 142 "},"‰":{"ha":1426,"x_min":37,"x_max":1388,"o":"m 1192 521 q 1331 447 1274 521 q 1388 269 1388 373 q 1331 92 1388 165 q 1192 18 1274 18 q 1054 92 1111 18 q 997 269 997 165 q 1054 447 997 373 q 1192 521 1111 521 m 1192 478 q 1141 417 1149 478 q 1133 269 1133 356 q 1141 121 1133 182 q 1192 60 1149 60 q 1244 121 1236 60 q 1253 269 1253 182 q 1244 417 1253 356 q 1192 478 1236 478 m 912 977 q 897 976 902 984 l 97 53 q 98 37 90 43 l 119 20 q 134 21 127 12 l 933 944 q 932 960 940 951 l 912 977 m 233 972 q 94 899 151 972 q 37 722 37 825 q 94 544 37 617 q 233 470 151 470 q 371 544 313 470 q 428 722 428 617 q 371 899 428 825 q 233 972 313 972 m 233 930 q 284 869 275 930 q 293 722 293 808 q 284 574 293 635 q 233 513 275 513 q 181 574 189 513 q 173 722 173 635 q 181 869 173 808 q 233 930 189 930 m 755 521 q 894 447 837 521 q 951 269 951 373 q 894 92 951 165 q 755 18 837 18 q 617 92 674 18 q 560 269 560 165 q 617 447 560 373 q 755 521 674 521 m 755 478 q 704 417 712 478 q 696 269 696 356 q 704 121 696 182 q 755 60 712 60 q 807 121 799 60 q 816 269 816 182 q 807 417 816 356 q 755 478 799 478 "},"‹":{"ha":401,"x_min":5,"x_max":379,"o":"m 342 648 q 336 646 338 648 l 10 401 q 5 392 5 396 q 10 383 5 387 l 336 138 q 342 136 337 136 l 369 136 q 379 142 377 136 q 378 153 382 147 l 182 385 q 182 399 175 391 l 378 631 q 379 642 382 636 q 369 648 377 648 l 342 648 "},"›":{"ha":401,"x_min":8,"x_max":382,"o":"m 45 136 q 52 138 50 136 l 377 383 q 382 392 382 388 q 377 401 382 397 l 52 646 q 45 648 50 648 l 18 648 q 8 642 10 648 q 9 631 5 637 l 205 399 q 205 385 212 393 l 9 153 q 8 142 5 148 q 18 136 10 136 l 45 136 "},"€":{"ha":817,"x_min":28,"x_max":778,"o":"m 500 956 q 239 850 351 956 q 96 583 127 743 q 85 574 95 574 l 58 574 q 47 566 50 574 l 43 549 q 44 539 41 543 q 53 534 47 534 l 77 534 q 85 531 82 534 q 89 522 89 528 q 87 482 87 503 q 90 435 87 455 q 86 427 90 430 q 78 422 82 422 l 44 422 q 33 414 35 422 l 28 397 q 30 387 26 392 q 38 382 32 382 l 87 382 q 98 374 95 382 q 241 112 130 216 q 500 8 353 8 q 669 46 561 8 q 778 184 778 84 q 755 254 778 225 q 700 283 732 283 q 644 254 667 283 q 621 184 621 225 q 624 160 621 171 q 596 70 636 96 q 500 44 556 44 q 321 139 371 44 q 261 371 271 235 q 264 379 261 375 q 273 382 267 382 l 433 382 q 444 391 439 382 l 448 408 q 447 418 450 413 q 437 422 443 422 l 270 422 q 258 434 258 422 q 258 482 258 450 q 259 524 258 496 q 270 534 259 534 l 479 534 q 490 542 487 534 l 495 560 q 493 570 497 565 q 484 574 490 574 l 276 574 q 267 578 271 574 q 264 587 263 582 q 346 824 283 726 q 500 922 409 922 q 632 847 602 922 q 659 690 661 773 q 667 679 659 680 q 687 679 675 678 q 706 680 698 680 q 715 692 715 680 q 730 838 713 762 q 758 939 748 915 q 755 954 762 948 q 736 962 747 960 q 726 955 730 962 q 687 918 711 918 q 646 926 662 918 q 500 956 575 956 "},"₰":{"ha":568,"x_min":15,"x_max":547,"o":"m 418 447 l 405 473 q 354 595 376 536 q 329 713 332 654 l 329 718 q 335 744 329 734 q 359 757 342 754 q 394 744 380 757 q 417 711 408 732 q 429 664 425 690 q 432 614 432 639 l 432 585 q 430 538 432 561 q 427 493 429 515 l 418 447 m 501 458 q 519 536 513 496 q 526 618 526 576 l 526 628 q 519 700 526 665 q 492 761 511 734 q 441 804 473 788 q 361 821 410 821 l 347 821 q 272 787 302 821 q 228 696 241 753 q 224 661 224 679 q 367 320 224 544 q 268 198 319 241 q 179 155 216 155 q 166 156 172 155 q 161 170 161 157 q 172 223 161 184 q 207 330 183 261 q 249 473 249 428 q 203 525 249 525 q 15 425 144 525 q 26 410 18 422 q 40 390 33 398 l 58 366 q 102 409 83 393 q 125 425 122 425 q 126 424 126 425 q 104 356 119 396 q 65 264 89 315 q 42 191 50 222 q 35 137 35 161 q 60 78 35 94 q 118 62 86 62 q 183 74 147 62 q 257 107 220 85 q 332 162 294 129 q 401 241 370 196 q 441 49 435 154 l 441 40 q 404 -48 441 -12 q 296 -104 367 -85 q 260 -111 278 -109 q 231 -113 242 -113 q 167 -87 191 -113 q 144 -26 144 -61 l 144 -19 q 127 15 144 15 q 106 6 119 15 q 80 -17 93 -3 q 59 -46 68 -31 q 50 -75 50 -61 q 65 -115 50 -96 q 103 -148 81 -134 q 153 -170 126 -161 q 204 -178 180 -178 q 220 -177 212 -178 q 237 -175 229 -175 q 359 -149 302 -170 q 458 -96 416 -129 q 524 -16 500 -63 q 547 92 547 31 q 468 357 547 203 q 483 401 476 376 q 501 458 490 425 "},"℔":{"ha":751,"x_min":-32,"x_max":700,"o":"m 536 504 q 585 510 559 504 q 632 524 610 515 q 700 589 700 547 q 693 604 700 596 q 676 620 686 612 q 655 631 667 627 q 635 636 643 636 q 599 593 606 636 q 588 579 596 586 q 568 572 579 572 q 500 595 558 572 q 481 601 489 597 q 465 607 473 604 q 433 616 446 614 q 416 621 421 619 q 334 635 375 631 q 250 640 293 640 q 35 586 117 640 q -14 532 4 562 q -32 465 -32 501 q 113 330 -32 371 q 109 313 110 321 q 104 297 109 306 q 100 282 103 293 l 100 283 q 92 262 96 273 q 85 236 89 250 l 85 237 q 83 231 83 235 q 82 225 83 228 q 65 160 71 189 q 60 107 60 131 q 89 32 60 60 q 174 0 121 0 q 306 61 216 0 q 365 11 330 28 q 440 -7 400 -7 q 614 93 529 -7 q 644 148 633 121 q 654 207 654 175 q 496 349 654 328 l 538 478 l 416 490 q 403 447 411 471 q 387 399 395 422 q 380 378 385 390 q 374 358 376 367 q 298 366 326 363 q 248 371 271 368 q 274 450 262 416 q 292 504 285 484 l 179 510 q 156 452 167 479 q 135 395 144 424 q 105 406 115 401 q 85 412 94 410 q 73 416 79 415 q 64 419 66 418 q 33 469 33 437 q 186 543 33 543 q 257 539 214 543 q 359 524 301 534 q 461 509 418 514 q 536 504 505 504 m 559 225 q 519 135 559 186 q 427 69 479 69 q 403 90 403 69 q 419 146 403 97 q 475 292 436 195 q 559 225 559 279 m 215 78 q 180 66 193 66 q 163 82 163 66 q 179 153 163 97 q 227 310 195 210 q 293 301 261 304 q 354 298 325 298 q 215 78 290 114 m 366 330 l 385 298 l 353 298 q 357 309 355 302 q 366 330 359 315 "},"№":{"ha":1360,"x_min":-4,"x_max":1280,"o":"m 1016 705 q 834 623 906 707 q 763 422 763 538 q 837 221 763 304 q 1016 138 911 138 q 1195 221 1120 138 q 1269 422 1269 304 q 1195 622 1269 538 q 1016 705 1120 705 m 300 685 q 309 696 300 694 q 322 690 318 698 l 642 -11 q 655 -17 646 -19 q 664 -6 664 -15 q 666 418 664 206 q 671 844 667 630 q 712 915 671 888 q 800 937 753 942 q 832 917 825 930 q 808 890 838 904 q 791 753 721 830 q 958 785 861 677 q 949 928 1004 867 q 791 993 895 989 q 669 944 705 983 q 632 847 633 904 l 627 429 q 618 417 627 419 q 606 424 609 415 l 378 922 q 290 983 350 983 l 32 983 q 19 966 20 983 q 32 949 19 949 q 99 943 47 949 q 199 895 151 937 q 255 834 248 852 q 262 763 262 817 l 262 121 q 226 51 262 75 q 154 54 191 26 q 157 155 117 83 q 149 303 235 264 q -4 227 63 342 q 7 77 -29 161 q 117 -7 44 -7 q 252 22 204 -17 q 300 118 299 60 l 300 685 m 1013 673 q 1086 621 1056 673 q 1117 420 1117 568 q 1086 220 1117 273 q 1013 168 1056 168 q 939 220 969 168 q 908 420 908 273 q 939 621 908 568 q 1013 673 969 673 m 774 102 q 764 91 764 102 l 764 14 q 774 2 764 2 l 1270 2 q 1280 14 1280 2 l 1280 91 q 1270 102 1280 102 l 774 102 "},"™":{"ha":743,"x_min":28,"x_max":707,"o":"m 218 905 q 293 820 289 909 l 311 820 l 311 926 l 28 926 l 28 820 l 46 820 q 68 885 50 864 q 121 905 87 905 l 121 627 l 92 627 l 92 606 l 248 606 l 248 627 l 218 627 l 218 905 m 444 926 l 328 926 l 328 905 l 353 905 l 353 663 q 348 633 353 638 q 330 627 344 627 q 321 627 328 627 l 321 606 l 401 606 l 401 627 q 379 629 384 627 q 372 663 372 634 l 372 868 l 467 606 l 489 606 l 583 876 l 583 627 l 553 627 l 553 606 l 707 606 l 707 627 l 677 627 l 677 905 l 707 905 l 707 926 l 583 926 l 514 730 l 444 926 "},"ℳ":{"ha":1083,"x_min":11,"x_max":1064,"o":"m 513 380 q 483 239 493 301 q 472 127 472 176 q 547 1 472 1 q 561 4 550 1 l 564 5 q 672 184 615 24 q 827 585 755 422 q 754 193 754 346 q 890 -7 754 -7 q 998 61 950 -7 q 1022 106 1008 76 q 1051 176 1035 136 q 1061 197 1059 187 q 1064 214 1064 207 q 1029 249 1064 249 q 1003 227 1010 249 l 1003 228 q 971 160 972 174 l 971 163 q 939 106 951 127 q 924 83 926 86 q 895 62 903 62 q 883 80 888 62 q 875 124 878 98 q 870 177 872 150 q 868 224 868 205 q 874 329 868 278 q 892 441 880 379 q 925 586 905 503 q 972 786 944 669 q 997 883 987 847 q 1010 924 1007 918 q 1016 941 1014 934 q 1018 957 1018 949 q 988 988 1018 988 q 959 975 975 988 q 942 950 944 961 q 757 604 847 815 q 701 461 734 553 q 618 237 668 370 q 602 190 610 210 q 587 155 595 171 q 594 207 588 174 q 606 280 600 240 q 620 366 612 320 q 635 458 628 412 q 704 753 672 635 q 760 920 736 871 q 774 957 774 939 q 766 976 774 964 q 746 987 757 987 q 713 974 730 987 q 681 944 696 961 q 653 908 665 926 q 637 879 642 889 q 608 820 628 863 q 563 722 587 778 q 513 605 539 666 q 464 490 486 543 q 426 399 441 437 q 405 353 410 361 q 178 58 268 58 q 146 69 164 58 q 129 96 129 79 q 131 109 129 102 q 135 120 132 115 q 153 157 146 139 q 161 189 161 174 q 90 257 161 257 q 35 234 58 257 q 11 168 11 211 q 28 90 11 123 q 70 33 45 56 q 123 -3 94 9 q 178 -16 153 -16 q 464 311 320 -16 q 506 410 488 364 q 544 500 525 456 q 526 436 533 466 q 513 380 518 407 "},"✥":{"ha":658,"x_min":0,"x_max":612,"o":"m 408 670 q 318 759 355 702 q 298 759 307 774 q 205 663 265 697 q 205 644 186 654 q 259 577 239 623 q 282 479 278 532 q 279 471 283 475 q 270 467 275 467 q 172 495 217 473 q 108 554 127 516 q 88 554 99 570 q 0 465 57 504 q 0 446 -15 454 q 95 351 61 412 q 115 351 104 336 q 177 403 134 384 q 269 428 219 422 q 278 425 274 429 q 281 416 282 420 q 257 323 276 366 q 205 262 237 280 q 205 242 186 252 q 298 146 265 209 q 318 146 307 131 q 408 235 356 204 q 408 255 424 246 q 347 318 369 273 q 320 418 325 363 q 323 426 319 422 q 332 429 328 430 q 431 406 385 425 q 496 351 477 386 q 516 351 506 333 q 612 446 551 413 q 612 465 627 454 q 523 554 553 503 q 503 554 512 574 q 436 492 484 513 q 332 467 389 470 q 323 470 326 467 q 319 478 319 472 q 346 582 323 534 q 408 650 368 630 q 408 670 424 659 "},"㎏":{"ha":1425,"x_min":32,"x_max":1388,"o":"m 1388 557 q 1307 646 1388 646 q 1190 588 1251 646 l 1192 588 q 1184 584 1186 586 q 1181 581 1181 581 l 1177 576 q 1102 613 1140 602 q 1017 624 1064 624 q 921 609 966 624 q 843 567 876 595 q 790 499 810 539 q 771 411 771 459 q 791 315 771 357 q 864 241 811 273 q 777 190 802 224 q 753 110 753 155 q 755 71 753 87 q 765 40 757 54 q 788 16 772 26 q 832 -4 804 5 q 747 -56 771 -26 q 724 -125 724 -85 q 988 -263 724 -263 q 1318 -54 1318 -263 q 1270 72 1318 33 q 1112 110 1222 110 q 1027 106 1072 106 q 944 106 981 106 l 932 106 q 849 147 849 106 q 876 184 849 172 q 981 196 903 196 q 1095 211 1042 196 q 1185 252 1147 225 q 1243 319 1222 279 q 1264 411 1264 359 q 1256 478 1264 450 q 1223 536 1247 505 q 1244 552 1239 547 q 1251 557 1249 557 q 1265 539 1256 547 l 1264 539 q 1326 496 1282 496 q 1388 557 1388 496 m 1134 407 q 1106 291 1134 327 q 1015 256 1079 256 q 924 293 951 256 q 897 407 897 330 q 925 520 897 483 q 1017 557 954 557 q 1106 522 1079 557 q 1134 407 1134 486 m 1215 -89 q 997 -195 1215 -195 q 840 -111 840 -195 q 867 -48 840 -72 q 934 -12 893 -24 l 1092 -12 q 1186 -31 1157 -12 q 1215 -89 1215 -50 m 403 4 l 733 4 l 733 74 q 662 92 694 76 q 610 136 629 109 q 518 271 566 204 q 422 405 471 337 l 481 461 q 679 564 581 564 l 681 629 l 350 629 l 350 564 l 400 564 q 440 559 429 564 q 452 551 452 554 q 440 527 452 542 q 412 496 429 513 q 378 463 396 479 q 347 435 359 447 q 306 393 325 412 q 264 353 286 374 l 264 993 l 32 978 l 32 913 l 59 913 q 64 913 62 913 q 69 913 66 913 l 76 913 q 124 904 111 913 q 137 866 137 895 l 137 118 q 130 85 137 94 q 103 75 122 76 l 39 74 l 39 4 l 359 4 l 359 74 q 341 75 353 74 q 323 75 330 75 l 298 75 q 271 85 278 76 q 264 118 264 94 l 264 254 q 289 277 278 265 q 313 301 300 289 l 329 319 q 400 216 368 265 q 471 113 433 167 q 476 100 471 106 q 485 89 482 94 q 483 83 483 85 q 478 79 482 81 q 467 77 475 78 q 446 75 459 76 l 403 74 l 403 4 "},"ꝛ":{"ha":387,"x_min":30,"x_max":359,"o":"m 174 231 q 294 371 248 302 q 347 502 340 440 q 310 617 355 563 q 142 718 265 671 q 111 710 123 730 q 75 645 93 677 q 37 581 57 612 q 36 557 26 565 q 54 564 45 550 q 102 578 68 591 q 230 435 231 532 q 151 242 229 337 q 39 135 73 147 q 30 123 29 131 q 42 113 31 115 q 149 73 105 101 q 226 2 193 44 q 251 2 242 -10 q 359 158 287 78 q 359 174 368 168 q 342 172 351 180 q 298 138 308 132 l 184 203 q 174 231 163 217 "},"":{"ha":726,"x_min":29,"x_max":693,"o":"m 629 500 q 693 561 693 500 q 611 647 693 647 q 554 634 585 647 q 494 593 524 621 l 496 593 q 487 588 489 590 q 484 585 485 586 l 479 581 q 406 618 443 608 q 321 628 370 628 q 150 574 221 628 q 94 506 114 546 q 74 415 74 465 q 96 318 74 361 q 167 245 118 275 q 79 195 103 229 q 56 113 56 160 q 58 75 56 92 q 68 44 60 58 q 92 20 77 31 q 135 0 107 9 q 52 -52 74 -22 q 29 -121 29 -81 q 293 -258 29 -258 q 623 -50 623 -258 q 574 75 623 37 q 416 113 526 113 l 249 110 l 236 110 q 154 150 154 110 q 199 193 154 182 q 286 199 221 199 q 475 248 401 199 q 541 319 517 275 q 566 415 566 363 q 558 483 566 454 q 526 542 550 511 q 529 545 529 542 l 529 546 q 535 548 532 547 q 541 551 538 549 l 542 553 q 555 561 547 558 q 562 551 558 557 q 568 543 566 546 l 567 543 q 629 500 587 500 m 321 561 q 411 525 383 561 q 439 410 439 489 q 411 294 439 330 q 319 258 383 258 q 228 296 256 258 q 200 410 200 334 q 229 524 200 488 q 321 561 258 561 m 239 -8 l 395 -8 q 490 -27 461 -8 q 519 -86 519 -46 q 301 -191 519 -191 q 144 -107 144 -191 q 171 -44 144 -68 q 239 -8 197 -20 "},"":{"ha":1364,"x_min":21,"x_max":1349,"o":"m 52 -2 l 248 -2 q 320 -2 279 -2 q 401 -5 361 -3 q 476 -9 441 -7 q 530 -16 511 -11 q 546 -20 537 -19 q 555 -21 554 -21 q 571 -13 564 -21 q 581 7 579 -4 q 595 54 586 21 q 615 122 604 87 q 635 189 625 157 q 648 232 644 221 q 640 256 648 248 l 628 265 q 614 271 618 271 q 600 258 605 271 q 580 224 596 250 q 545 169 564 198 q 507 113 526 140 q 475 74 488 86 l 178 74 q 201 119 180 81 q 251 215 221 157 q 318 345 281 273 q 394 492 355 418 q 471 638 433 567 q 538 767 509 710 q 587 860 568 823 q 610 903 607 897 q 618 930 618 920 q 591 954 618 954 q 493 950 539 954 l 458 949 q 426 947 442 949 q 395 946 410 946 q 329 946 366 946 q 257 947 293 946 q 192 949 222 947 q 146 954 163 951 q 123 957 132 957 q 100 930 109 957 l 41 696 q 40 688 40 693 q 49 672 40 681 q 60 664 54 669 q 72 659 66 659 q 89 672 83 659 q 111 716 96 688 q 144 773 126 744 q 179 828 163 803 q 201 861 195 852 q 227 876 212 876 l 456 876 q 438 840 454 873 q 393 753 421 807 q 331 631 366 700 q 258 489 296 562 q 183 345 221 416 q 114 213 146 273 q 60 112 83 154 q 28 54 37 69 q 22 40 24 49 q 21 24 21 31 q 32 1 21 4 q 52 -2 42 -2 m 828 500 l 828 614 q 828 685 828 649 q 831 757 828 720 l 956 757 q 972 764 966 757 q 979 779 978 771 l 990 817 q 991 825 991 819 q 970 842 991 842 l 833 842 l 839 940 q 835 962 839 953 q 814 971 831 971 q 799 966 807 971 q 787 951 791 961 q 765 917 781 937 q 732 875 750 896 q 696 838 713 854 q 669 815 679 821 q 651 803 659 808 q 644 783 644 798 q 673 757 644 757 l 725 757 l 725 603 q 721 576 722 596 q 720 532 720 555 q 720 484 720 509 q 720 441 720 458 q 730 402 720 422 q 757 368 741 383 q 795 342 774 353 q 839 332 817 332 q 885 338 864 332 q 923 352 907 344 q 952 369 940 361 q 968 381 964 378 q 974 400 974 393 q 972 408 974 405 l 966 421 q 947 431 954 431 q 933 427 942 431 q 906 417 924 418 q 871 415 889 415 q 857 418 865 415 q 843 430 849 421 q 833 455 838 439 q 828 500 828 472 m 1063 661 l 1063 553 q 1063 475 1063 509 q 1061 415 1063 442 q 1053 407 1061 407 l 1011 407 q 990 401 995 407 q 986 381 986 396 l 986 363 q 991 342 986 347 q 1005 337 997 337 l 1015 337 q 1056 339 1029 337 q 1120 342 1083 342 q 1179 340 1153 342 q 1218 337 1204 339 l 1234 337 q 1251 363 1251 337 l 1251 381 q 1248 400 1251 393 q 1231 407 1244 407 l 1181 407 q 1164 439 1164 407 l 1164 681 q 1167 692 1164 682 q 1175 711 1171 703 q 1200 743 1186 734 q 1225 753 1214 753 q 1249 747 1242 753 l 1258 742 q 1290 733 1272 733 q 1329 753 1308 733 q 1349 804 1349 772 q 1332 848 1349 828 q 1280 868 1315 868 q 1217 844 1249 868 q 1160 787 1186 821 l 1160 835 q 1153 853 1157 844 q 1137 861 1149 861 q 1111 854 1126 861 q 1077 837 1095 847 q 1042 815 1059 827 q 1011 796 1025 804 q 997 774 997 788 l 997 768 q 1012 747 997 753 l 1032 734 q 1046 724 1040 729 q 1056 711 1053 720 q 1061 692 1059 703 q 1063 661 1063 681 m 673 279 l 673 170 l 1337 170 l 1337 279 l 673 279 "},"ﬀ":{"ha":659,"x_min":-13,"x_max":720,"o":"m -13 630 q -2 621 -12 621 l 59 621 q 72 613 66 621 q 79 597 78 606 q 114 206 97 403 q 149 -208 132 -1 q 161 -231 150 -229 q 176 -210 173 -233 l 244 504 q 246 610 250 572 q 257 622 245 622 l 374 623 q 390 614 384 623 q 397 597 397 606 q 433 206 416 403 q 467 -208 450 -1 q 480 -231 469 -229 q 494 -210 492 -233 l 563 504 q 565 610 569 572 q 576 622 563 623 l 658 622 q 669 633 669 622 l 669 675 q 658 686 669 686 l 541 686 q 525 693 532 686 q 470 731 512 708 q 440 826 427 753 q 534 863 454 899 q 655 850 616 823 q 719 954 694 877 q 720 981 728 978 q 705 968 713 983 q 647 955 688 942 q 557 984 606 967 q 437 948 467 1013 q 412 786 408 882 q 391 694 416 725 q 373 686 385 686 l 222 686 q 206 693 214 686 q 151 731 193 708 q 122 826 108 753 q 215 863 136 899 q 336 850 297 823 q 401 954 375 877 q 403 979 411 976 q 387 968 395 983 q 329 955 370 942 q 238 984 288 967 q 119 948 149 1013 q 94 786 89 882 q 68 687 98 725 q -5 642 39 649 q -13 630 -13 640 "},"ﬁ":{"ha":665,"x_min":-15,"x_max":658,"o":"m -15 631 q -2 621 -15 621 l 62 621 q 73 616 68 621 q 78 604 77 611 q 114 206 97 405 q 149 -208 132 -1 q 161 -231 150 -229 q 176 -210 173 -233 l 244 504 q 246 610 250 572 q 257 622 245 622 l 357 622 q 420 572 377 623 q 424 551 424 564 l 424 530 l 429 178 q 459 67 427 103 q 551 2 490 31 q 583 10 570 -9 q 619 74 602 42 q 657 138 637 106 q 657 162 667 155 q 641 156 648 169 q 592 141 622 123 q 566 226 566 157 l 566 513 q 580 568 566 551 q 611 591 593 585 q 618 604 618 592 q 608 612 618 607 q 530 668 557 642 q 475 728 503 694 q 450 729 460 742 q 418 693 430 700 q 395 686 406 686 l 222 686 q 206 693 214 686 q 151 731 193 708 q 122 826 108 753 q 215 863 136 899 q 336 850 297 823 q 399 954 375 877 q 406 979 407 978 q 387 968 396 983 q 329 955 370 942 q 238 984 288 967 q 119 948 149 1013 q 94 786 89 882 q 68 687 98 725 q -5 642 39 649 q -15 631 -15 640 m 527 984 q 466 963 494 984 q 436 911 438 943 q 446 840 433 879 q 484 802 459 802 q 550 838 508 801 q 595 911 591 875 q 527 984 602 984 "},"ﬂ":{"ha":675,"x_min":-13,"x_max":692,"o":"m -13 630 q -2 621 -12 621 l 60 621 q 71 614 65 621 q 79 600 77 608 q 114 206 97 404 q 149 -208 132 -1 q 161 -231 150 -229 q 176 -210 173 -233 l 244 504 q 246 610 250 572 q 257 622 245 621 l 339 622 q 350 633 350 622 l 350 675 q 339 686 350 686 l 222 686 q 206 693 214 686 q 151 731 193 708 q 122 826 108 753 q 215 863 136 899 q 314 844 292 823 q 346 855 336 866 q 365 818 355 844 q 389 663 389 760 l 389 207 q 345 129 389 147 q 337 117 337 125 q 349 107 338 109 q 447 71 413 94 q 516 2 481 48 q 541 2 530 -14 q 650 158 578 79 q 651 176 661 169 q 632 172 642 182 q 585 139 595 133 l 536 167 q 526 195 526 173 l 527 782 q 567 923 527 884 q 675 962 608 962 q 691 975 692 962 q 675 987 691 987 q 521 948 592 990 q 410 839 450 907 q 399 833 406 833 q 390 840 393 833 q 380 887 380 861 q 410 964 380 913 q 407 981 418 975 q 387 968 397 986 q 329 955 370 942 q 238 984 288 967 q 119 948 149 1013 q 94 786 89 882 q 68 687 98 725 q -5 642 39 649 q -13 630 -13 640 "},"ﬃ":{"ha":991,"x_min":-13,"x_max":979,"o":"m -13 630 q -2 621 -12 621 l 59 621 q 72 613 66 621 q 79 597 78 606 q 114 206 97 403 q 149 -208 132 -1 q 161 -231 150 -229 q 176 -210 173 -233 l 244 504 q 246 610 250 572 q 257 622 245 622 l 374 623 q 390 614 384 623 q 397 597 397 606 q 433 206 416 403 q 467 -208 450 -1 q 480 -231 469 -229 q 494 -210 492 -233 l 563 504 q 565 610 569 572 q 576 622 563 623 l 678 622 q 741 572 698 623 q 745 551 745 564 l 745 530 l 750 178 q 780 67 748 103 q 872 2 811 31 q 904 10 891 -9 q 940 74 922 42 q 978 138 958 106 q 978 162 988 155 q 962 156 968 169 q 913 141 943 123 q 887 226 887 157 l 887 513 q 901 568 887 551 q 932 591 914 585 q 939 604 939 592 q 928 612 939 607 q 851 668 878 642 q 795 728 824 694 q 770 729 781 742 q 739 693 751 700 q 716 686 726 686 l 541 686 q 525 693 532 686 q 470 731 512 708 q 440 826 427 753 q 534 863 454 899 q 655 850 616 823 q 719 954 694 877 q 720 981 728 978 q 705 968 713 983 q 647 955 688 942 q 557 984 606 967 q 437 948 467 1013 q 412 786 408 882 q 391 694 416 725 q 373 686 385 686 l 222 686 q 206 693 214 686 q 151 731 193 708 q 122 826 108 753 q 215 863 136 899 q 336 850 297 823 q 401 954 375 877 q 403 979 411 976 q 387 968 395 983 q 329 955 370 942 q 238 984 288 967 q 119 948 149 1013 q 94 786 89 882 q 68 687 98 725 q -5 642 39 649 q -13 630 -13 640 m 848 984 q 787 963 815 984 q 757 911 759 943 q 767 840 754 879 q 804 802 780 802 q 870 838 829 801 q 916 911 912 875 q 848 984 923 984 "},"ﬄ":{"ha":995,"x_min":-13,"x_max":1010,"o":"m 411 821 q 412 786 412 804 q 391 694 416 725 q 373 686 385 686 l 222 686 q 206 693 214 686 q 151 731 193 708 q 122 826 108 753 q 215 863 136 899 q 336 850 297 823 q 401 954 375 877 q 403 979 411 976 q 387 968 395 983 q 329 955 370 942 q 238 984 288 967 q 119 948 149 1013 q 94 786 89 882 q 68 687 98 725 q -5 642 39 649 q -13 630 -13 640 q -2 621 -12 621 l 59 621 q 72 613 66 621 q 79 597 78 606 q 114 206 97 403 q 149 -208 132 -1 q 161 -231 150 -229 q 176 -210 173 -233 l 244 504 q 246 610 250 572 q 257 622 245 622 l 374 623 q 390 614 384 623 q 397 597 397 606 q 433 206 416 403 q 467 -208 450 -1 q 480 -231 469 -229 q 494 -210 492 -233 l 563 504 q 565 610 569 572 q 576 622 563 623 l 658 622 q 669 633 669 622 l 669 675 q 658 686 669 686 l 541 686 q 525 693 532 686 q 470 731 512 708 q 440 826 427 753 q 444 842 441 835 q 533 863 463 895 q 632 844 610 823 q 664 855 654 866 q 683 818 673 844 q 707 663 707 760 l 707 207 q 663 129 707 147 q 655 117 655 125 q 667 107 656 109 q 765 71 731 94 q 834 2 800 48 q 859 2 848 -14 q 968 158 897 79 q 969 176 979 169 q 950 172 960 182 q 903 139 913 133 l 854 167 q 844 195 844 173 l 845 782 q 885 923 845 884 q 993 962 926 962 q 1009 975 1010 962 q 993 987 1009 987 q 839 948 910 990 q 728 839 768 907 q 718 833 724 833 q 708 840 711 833 q 698 887 698 861 q 728 964 698 913 q 725 981 736 975 q 705 968 715 986 q 647 955 688 942 q 556 984 606 967 q 437 947 467 1013 q 411 821 412 895 "},"ﬅ":{"ha":697,"x_min":-3,"x_max":684,"o":"m 76 621 q 84 618 82 621 q 87 610 86 615 q 123 206 106 408 q 158 -208 141 -1 q 171 -231 159 -229 q 185 -210 182 -233 l 254 504 q 247 646 262 597 q 161 731 232 694 q 131 826 117 753 q 224 863 145 899 q 448 796 401 804 q 449 757 484 790 q 309 641 390 699 q 302 628 300 635 q 315 621 305 621 l 395 621 q 405 608 406 621 l 406 207 q 361 129 406 140 q 353 117 352 125 q 364 107 353 109 q 461 69 429 92 q 532 2 494 47 q 557 2 545 -12 q 666 158 593 79 q 665 174 675 168 q 648 172 654 180 q 601 139 615 127 l 552 167 q 542 195 542 174 l 543 609 q 552 621 543 621 l 669 621 q 681 631 680 621 l 684 682 q 680 691 684 686 q 672 694 677 694 l 555 694 q 545 699 549 694 q 545 709 543 702 q 583 821 551 760 q 646 922 614 883 q 645 938 654 932 q 628 935 637 944 q 609 914 618 924 q 536 902 576 890 q 248 984 496 915 q 128 948 158 1013 q 103 786 98 882 q 78 687 107 725 q 5 642 49 649 q -3 630 -3 640 q 7 621 -3 621 l 76 621 "}}}
